<?xml version="1.0" encoding="utf-8"?>
<!-- Generator: Adobe Illustrator 20.1.0, SVG Export Plug-In . SVG Version: 6.00 Build 0)  -->
<svg version="1.1" id="Layer_1" xmlns="http://www.w3.org/2000/svg" xmlns:xlink="http://www.w3.org/1999/xlink" x="0px" y="0px"
	 width="97.9px" height="97.9px" viewBox="0 0 97.9 97.9" style="enable-background:new 0 0 97.9 97.9;" xml:space="preserve">
<style type="text/css">
	.st0{opacity:0.9;fill:#FFFFFF;}
	.st1{fill:#FFFFFF;}
	.st2{fill:#C3C3C2;}
	.st3{fill:none;stroke:#AEAEAE;stroke-miterlimit:10;}
	.st4{fill:none;stroke:#AEAEAE;stroke-width:1.5;stroke-miterlimit:10;}
	.st5{fill:#1E1E1C;}
	.st6{fill:#F8CB00;}
	.st7{fill:#2E353D;}
	.st8{fill:#034356;}
	.st9{fill:#BCBBBB;}
	.st10{fill:#0B6284;}
	.st11{fill:#2096D3;}
	.st12{fill:#126180;}
	.st13{fill:#3D3D3C;}
	.st14{fill:#DAD9D8;}
	.st15{opacity:0.85;}
	.st16{opacity:0.8;}
	.st17{fill:none;stroke:#FFFFFF;stroke-linecap:round;stroke-linejoin:round;stroke-miterlimit:10;}
	.st18{opacity:0.8;fill:#FFFFFF;}
	.st19{fill:#2496D3;}
	.st20{opacity:0.65;fill:#2496D3;}
	.st21{fill:#3D3E3D;}
	.st22{fill:none;stroke:#FFFFFF;stroke-width:3.5;stroke-miterlimit:10;}
	.st23{fill:none;stroke:#2496D3;stroke-miterlimit:10;}
	.st24{fill:none;stroke:#2496D3;stroke-width:1.5;stroke-miterlimit:10;}
	.st25{opacity:0.8;fill:#2496D3;}
	.st26{opacity:0.75;}
	.st27{fill:none;stroke:#FFFFFF;stroke-width:2.5;stroke-miterlimit:10;}
	.st28{fill:none;stroke:#2496D3;stroke-width:0.5;stroke-miterlimit:10;}
	.st29{fill:none;stroke:#2496D3;stroke-width:2.375;stroke-linecap:round;stroke-linejoin:round;stroke-miterlimit:10;}
	.st30{fill:#2D3134;}
	.st31{fill:none;stroke:#000000;stroke-width:3.4954;stroke-miterlimit:10;}
	.st32{fill:#2496D3;stroke:#000000;stroke-width:2.0102;stroke-miterlimit:10;}
	.st33{fill:#2496D3;stroke:#000000;stroke-width:2.0098;stroke-miterlimit:10;}
	.st34{fill:none;stroke:#000000;stroke-width:2;stroke-miterlimit:10;}
	.st35{fill:#2496D3;stroke:#000000;stroke-width:0.9727;stroke-miterlimit:10;}
	.st36{fill:#2496D3;stroke:#000000;stroke-width:1.4055;stroke-miterlimit:10;}
	.st37{fill:#2496D3;stroke:#000000;stroke-width:2;stroke-miterlimit:10;}
	.st38{fill:none;stroke:#000000;stroke-width:4;stroke-linejoin:round;stroke-miterlimit:10;}
	.st39{fill:none;stroke:#000000;stroke-width:3.8779;stroke-linejoin:round;stroke-miterlimit:10;}
</style>
<g>
	<path class="st19" d="M43,25.4c-0.2,4.2-7.9,7-7.8,11.9c0,3.1,7,12.6,13,21.1c1.3,1.8,6.7-0.4,7.9,1.2c1.1,1.6,8.1-8,8.9-6.7
		c0.6,1,10.4,7,9.5,9.7c-0.7,1.9-5,8.4-8.5,9.8c-4.6,1.8-9.1,0.8-9.8,0.6c-17.9-3.6-32-30.6-33.8-39.9c-1.9-9.6,6.9-19.5,13.7-18
		C40.8,16.3,43.2,20.5,43,25.4z"/>
	<path d="M91.3,73.8c-0.9,1.2-1.7,2.4-2.6,3.6c-1.5,1.8-3.2,3.3-5.5,4c-3.1,0.9-5.9-0.1-8.2-2.2c-1.8-1.7-3.2-3.7-4.8-5.5
		c-0.2-0.2-0.4-0.5-0.4-0.6C68.1,74,66.6,75,65,75.5c-3.1,1-6.2,0.5-9.3-0.5c-7-2.2-12.7-6.5-17.8-11.5c-6.9-6.8-12.5-14.5-16-23.6
		c-1.7-4.4-2.7-8.8-2.1-13.5c0.4-3.1,1.7-5.7,4.3-7.7c1.5-1.2,2.9-2.4,4.4-3.6c3.9-3.2,9.1-2.7,12.4,1.1c0.9,1.1,1.8,2.1,2.7,3.2
		c3.2,3.9,2.7,9.3-1.2,12.6c-1.4,1.2-2.8,2.4-4.3,3.5c-1.1,0.8-1.3,1.8-1.2,3c0.3,2.4,1.2,4.5,2.5,6.6c2.4,4.1,5.5,7.6,9.5,10.3
		c1.1,0.7,2.3,1.2,3.5,1.7c1,0.4,1.9,0.2,2.8-0.6c1.4-1.2,2.8-2.4,4.3-3.5c4.1-3.3,9.3-2.8,12.7,1.2c0.9,1,1.8,2.1,2.6,3.2
		c3.1,3.9,2.7,9-1.1,12.3c-0.3,0.3-0.6,0.5-0.9,0.8c1.6,2.4,3.3,4.7,5.6,6.4c1.8,1.3,3.5,1.3,5.4-0.2c2.1-1.6,3.4-3.8,4.6-6
		c5.6-10.5,7-21.5,4-32.9C89.6,27.5,84.1,19.2,75.7,13C64,4.5,51,2,37,5.8c-9.9,2.7-18,8.2-24,16.5C4.5,33.9,2,46.8,5.7,60.7
		c2.6,10,8.2,18.2,16.5,24.3c10.2,7.5,21.6,10.2,34.1,8.2c3.1-0.5,6.2-1.7,9.3-2.6c1.1-0.3,2-0.2,2.6,0.6c0.5,0.7,0.6,1.7,0.1,2.4
		c-0.3,0.4-0.7,0.7-1.1,0.8c-11.1,4.3-22.3,4.7-33.6,1c-1.2-0.4-2.5-0.8-3.7-1.2c-1.9-1-3.9-1.9-5.8-2.9c-0.2-0.1-0.3-0.3-0.5-0.4
		c-3.5-2.1-6.8-4.5-9.5-7.5C0.8,69-3.1,52.4,2.5,33.6c0.4-1.2,0.8-2.4,1.2-3.7c1-1.9,1.9-3.9,2.9-5.8c0.2-0.2,0.3-0.4,0.5-0.5
		c1.2-1.7,2.3-3.5,3.6-5.2C17.6,9.8,26.5,4.1,37.2,1.5c14.5-3.5,28-0.9,40.2,7.7c8.9,6.3,14.9,14.8,18.2,25.3
		c3.1,9.9,3,19.9-0.2,29.8c-0.4,1.3-0.9,2.6-1.3,3.9C93.1,70,92.2,71.9,91.3,73.8z M51.5,68.9c4.3,2.2,7.1,3,9.6,3.1
		c2,0.1,3.8-0.4,5.3-1.8c1.4-1.3,2.9-2.4,4.4-3.7c2.2-1.9,2.5-4.6,0.7-6.9c-0.8-1-1.7-2.1-2.6-3.1c-1.9-2.2-4.6-2.5-6.8-0.6
		c-1.6,1.3-3.2,2.6-4.7,3.9c-1.2,1-2.7,1.5-4.3,1.4c-2-0.1-3.8-0.9-5.5-1.9c-5-3-8.8-7.2-11.8-12.1c-1.6-2.7-2.8-5.5-3.1-8.6
		c-0.2-2.5,0.5-4.6,2.6-6.2c1.5-1.2,3-2.4,4.5-3.7c1.9-1.7,2.2-4.4,0.7-6.4c-0.9-1.2-1.9-2.4-2.9-3.5c-1.8-2-4.4-2.2-6.6-0.5
		c-1.4,1.2-2.8,2.4-4.3,3.5c-2.1,1.5-3,3.7-3.1,6.2c-0.2,3.2,0.5,6.3,1.5,9.3c2.5,7.1,6.5,13.4,11.4,19.1
		C41.1,61.5,46.3,66.1,51.5,68.9z"/>
</g>
</svg>
