<?xml version="1.0" encoding="utf-8"?>
<!-- Generator: Adobe Illustrator 20.1.0, SVG Export Plug-In . SVG Version: 6.00 Build 0)  -->
<svg version="1.1" id="Layer_1" xmlns="http://www.w3.org/2000/svg" xmlns:xlink="http://www.w3.org/1999/xlink" x="0px" y="0px"
	 width="98.8px" height="98.8px" viewBox="0 0 98.8 98.8" style="enable-background:new 0 0 98.8 98.8;" xml:space="preserve">
<style type="text/css">
	.st0{opacity:0.9;fill:#FFFFFF;}
	.st1{fill:#FFFFFF;}
	.st2{fill:#C3C3C2;}
	.st3{fill:none;stroke:#AEAEAE;stroke-miterlimit:10;}
	.st4{fill:none;stroke:#AEAEAE;stroke-width:1.5;stroke-miterlimit:10;}
	.st5{fill:#1E1E1C;}
	.st6{fill:#F8CB00;}
	.st7{fill:#2E353D;}
	.st8{fill:#034356;}
	.st9{fill:#BCBBBB;}
	.st10{fill:#0B6284;}
	.st11{fill:#2096D3;}
	.st12{fill:#126180;}
	.st13{fill:#3D3D3C;}
	.st14{fill:#DAD9D8;}
	.st15{opacity:0.85;}
	.st16{opacity:0.8;}
	.st17{fill:none;stroke:#FFFFFF;stroke-linecap:round;stroke-linejoin:round;stroke-miterlimit:10;}
	.st18{opacity:0.8;fill:#FFFFFF;}
	.st19{fill:#2496D3;}
	.st20{opacity:0.65;fill:#2496D3;}
	.st21{fill:#3D3E3D;}
	.st22{fill:none;stroke:#FFFFFF;stroke-width:3.5;stroke-miterlimit:10;}
	.st23{fill:none;stroke:#2496D3;stroke-miterlimit:10;}
	.st24{fill:none;stroke:#2496D3;stroke-width:1.5;stroke-miterlimit:10;}
	.st25{opacity:0.8;fill:#2496D3;}
	.st26{opacity:0.75;}
	.st27{fill:none;stroke:#FFFFFF;stroke-width:2.5;stroke-miterlimit:10;}
	.st28{fill:none;stroke:#2496D3;stroke-width:0.5;stroke-miterlimit:10;}
	.st29{fill:none;stroke:#2496D3;stroke-width:2.375;stroke-linecap:round;stroke-linejoin:round;stroke-miterlimit:10;}
	.st30{fill:#2D3134;}
	.st31{fill:none;stroke:#000000;stroke-width:3.4954;stroke-miterlimit:10;}
	.st32{fill:#2496D3;stroke:#000000;stroke-width:2.0102;stroke-miterlimit:10;}
	.st33{fill:#2496D3;stroke:#000000;stroke-width:2.0098;stroke-miterlimit:10;}
	.st34{fill:none;stroke:#000000;stroke-width:2;stroke-miterlimit:10;}
	.st35{fill:#2496D3;stroke:#000000;stroke-width:0.9727;stroke-miterlimit:10;}
	.st36{fill:#2496D3;stroke:#000000;stroke-width:1.4055;stroke-miterlimit:10;}
	.st37{fill:#2496D3;stroke:#000000;stroke-width:2;stroke-miterlimit:10;}
	.st38{fill:none;stroke:#000000;stroke-width:4;stroke-linejoin:round;stroke-miterlimit:10;}
	.st39{fill:none;stroke:#000000;stroke-width:3.8779;stroke-linejoin:round;stroke-miterlimit:10;}
</style>
<g>
	<path d="M39.4,71.3c2.8,1.8,5.5,3.6,8.2,5.4c1.2,0.8,2.3,0.7,3.4,0c2.7-1.8,5.4-3.5,8.2-5.3c10.9,9.1,21.8,18.2,33,27.5
		c-28.7,0-57.1,0-85.8,0C17.6,89.5,28.5,80.4,39.4,71.3z"/>
	<path d="M98.4,38.5c-5.6,3.5-11.1,6.8-16.8,10.3c0-0.5,0-0.8,0-1.2c0-10.2,0-20.3,0-30.5c0-2.1-0.4-2.5-2.4-2.5
		c-20,0-39.9,0-59.9,0c-1.7,0-2.2,0.5-2.2,2.1c0,10.4,0,20.8,0,31.3c0,0.5,0,1,0,1.6C11.5,46,5.9,42.5,0.3,38.8
		c1.8-1.3,3.5-2.6,5.1-3.9c1.6-1.2,3.2-2.4,4.8-3.6c0.5-0.4,0.7-0.8,0.7-1.4c0-5.7,0.1-11.3,0-17c-0.1-2.8,1.9-4.6,4.6-4.5
		c7.2,0.1,14.4,0.1,21.6,0c0.6,0,1.2-0.2,1.6-0.6c2.9-2.3,5.7-4.7,8.6-7.1c1.2-1,2.6-1,3.8,0c2.9,2.4,5.8,4.8,8.7,7.2
		c0.4,0.3,0.9,0.5,1.4,0.5c7.5,0,14.9,0,22.4,0c2.8,0,4.3,1.6,4.3,4.3c0,5.8,0,11.6,0,17.4c0,0.7,0.2,1.2,0.8,1.6
		C91.9,33.9,95.1,36.1,98.4,38.5z"/>
	<path d="M98.8,96.9c-11.7-9.6-23.2-19-34.8-28.5c11.6-8.2,23.2-16.3,34.8-24.5C98.8,61.6,98.8,79.1,98.8,96.9z"/>
	<path d="M0,43.9c11.6,8.2,23.1,16.3,34.7,24.5C23.2,77.9,11.7,87.3,0,96.9C0,79.1,0,61.6,0,43.9z"/>
	<path class="st19" d="M49.4,38.3c-7.6,0-15.3,0-22.9,0c-1.2,0-2.3-0.1-2.8-1.3c-0.5-1.3-0.6-2.7,0.2-4c0.5-0.9,1.4-1,2.4-1
		c6.4,0,12.8,0,19.2,0c8.9,0,17.7,0,26.6,0c2.9,0,4.3,2.4,3,5c-0.5,1-1.4,1.3-2.5,1.3c-5,0-10,0-15,0C54.8,38.3,52.1,38.3,49.4,38.3
		z"/>
	<path class="st19" d="M49.4,21c7.7,0,15.4,0,23.1,0c1.2,0,2.3,0.3,2.7,1.5c0.4,1.4,0.7,2.9-0.5,4.1c-0.5,0.5-1.3,0.7-2,0.7
		c-12.3,0-24.7,0-37,0c-3.1,0-6.2,0-9.3,0c-1.9,0-2.8-0.9-2.8-2.8c0-0.2,0-0.5,0-0.7c0-1.9,0.9-2.8,2.8-2.8c3.5,0,7,0,10.5,0
		C40.9,21,45.1,21,49.4,21C49.4,21,49.4,21,49.4,21z"/>
	<path class="st19" d="M42,43c5.1,0,10.3,0,15.4,0c1.2,0,2.3,0.2,2.7,1.4c0.5,1.4,0.7,2.9-0.4,4.1c-0.5,0.5-1.4,0.7-2.2,0.8
		c-7.5,0.1-15,0-22.5,0c-2.9,0-5.8,0-8.7,0c-2,0-2.9-0.9-2.9-2.9c0-0.3,0-0.5,0-0.8c0.1-1.7,1-2.6,2.7-2.6C31.4,43,36.7,43,42,43z"
		/>
</g>
</svg>
