<?xml version="1.0" encoding="utf-8"?>
<!-- Generator: Adobe Illustrator 20.1.0, SVG Export Plug-In . SVG Version: 6.00 Build 0)  -->
<svg version="1.1" id="Layer_1" xmlns="http://www.w3.org/2000/svg" xmlns:xlink="http://www.w3.org/1999/xlink" x="0px" y="0px"
	 width="15.7px" height="15.7px" viewBox="0 0 15.7 15.7" style="enable-background:new 0 0 15.7 15.7;" xml:space="preserve">
<style type="text/css">
	.st0{opacity:0.9;fill:#FFFFFF;}
	.st1{fill:#FFFFFF;}
	.st2{fill:#C3C3C2;}
	.st3{fill:none;stroke:#AEAEAE;stroke-miterlimit:10;}
	.st4{fill:none;stroke:#AEAEAE;stroke-width:1.5;stroke-miterlimit:10;}
	.st5{fill:#1E1E1C;}
	.st6{fill:#F8CB00;}
	.st7{fill:#2E353D;}
	.st8{fill:#034356;}
	.st9{fill:#BCBBBB;}
	.st10{fill:#0B6284;}
	.st11{fill:#2096D3;}
	.st12{fill:#126180;}
	.st13{fill:#3D3D3C;}
	.st14{fill:#DAD9D8;}
	.st15{opacity:0.85;}
	.st16{opacity:0.8;}
	.st17{fill:none;stroke:#FFFFFF;stroke-linecap:round;stroke-linejoin:round;stroke-miterlimit:10;}
	.st18{opacity:0.8;fill:#FFFFFF;}
	.st19{fill:#2496D3;}
	.st20{opacity:0.65;fill:#2496D3;}
	.st21{fill:#3D3E3D;}
	.st22{fill:none;stroke:#FFFFFF;stroke-width:3.5;stroke-miterlimit:10;}
	.st23{fill:none;stroke:#2496D3;stroke-miterlimit:10;}
	.st24{fill:none;stroke:#2496D3;stroke-width:1.5;stroke-miterlimit:10;}
	.st25{opacity:0.8;fill:#2496D3;}
	.st26{opacity:0.75;}
	.st27{fill:none;stroke:#FFFFFF;stroke-width:2.5;stroke-miterlimit:10;}
	.st28{fill:none;stroke:#2496D3;stroke-width:0.5;stroke-miterlimit:10;}
	.st29{fill:none;stroke:#2496D3;stroke-width:2.375;stroke-linecap:round;stroke-linejoin:round;stroke-miterlimit:10;}
	.st30{fill:#2D3134;}
	.st31{fill:none;stroke:#000000;stroke-width:3.4954;stroke-miterlimit:10;}
	.st32{fill:#2496D3;stroke:#000000;stroke-width:2.0102;stroke-miterlimit:10;}
	.st33{fill:#2496D3;stroke:#000000;stroke-width:2.0098;stroke-miterlimit:10;}
	.st34{fill:none;stroke:#000000;stroke-width:2;stroke-miterlimit:10;}
	.st35{fill:#2496D3;stroke:#000000;stroke-width:0.9727;stroke-miterlimit:10;}
	.st36{fill:#2496D3;stroke:#000000;stroke-width:1.4055;stroke-miterlimit:10;}
	.st37{fill:#2496D3;stroke:#000000;stroke-width:2;stroke-miterlimit:10;}
	.st38{fill:none;stroke:#000000;stroke-width:4;stroke-linejoin:round;stroke-miterlimit:10;}
	.st39{fill:none;stroke:#000000;stroke-width:3.8779;stroke-linejoin:round;stroke-miterlimit:10;}
</style>
<path class="st0" d="M0,14.9c0-4.7,0-9.4,0-14.1c0,0,0,0,0-0.1C0.1,0.4,0.3,0.1,0.7,0c0,0,0.1,0,0.1,0c4.7,0,9.4,0,14.1,0
	c0,0,0,0,0.1,0c0.4,0.1,0.6,0.3,0.7,0.6c0,0,0,0.1,0,0.1c0,4.7,0,9.5,0,14.2c0,0,0,0.1,0,0.1c-0.1,0.3-0.3,0.5-0.6,0.6
	c0,0,0,0-0.1,0c-1.4,0-2.8,0-4.1,0c0-2,0-4,0-6.1c0.7,0,1.4,0,2,0c0-0.1,0.3-2.3,0.3-2.4c-0.1,0-0.1,0-0.2,0c-0.1,0-0.1,0-0.2,0
	c-0.1,0-0.1,0-0.2,0c-0.1,0-0.1,0-0.2,0c-0.1,0-0.1,0-0.2,0c-0.1,0-0.1,0-0.2,0c-0.1,0-0.1,0-0.2,0c-0.1,0-0.1,0-0.2,0s-0.1,0-0.2,0
	c-0.1,0-0.1,0-0.2,0c-0.1,0-0.1,0-0.2,0c0,0,0,0,0,0c0-0.5,0-1,0-1.5c0-0.1,0-0.2,0-0.4c0.1-0.3,0.3-0.6,0.6-0.7
	c0.1,0,0.3-0.1,0.5-0.1c0.4,0,0.8,0,1.2,0c0,0,0,0,0.1,0c0-0.1,0-2.1,0-2.1c-0.1,0-0.3,0-0.4,0c-0.5,0-0.9-0.1-1.4-0.1
	c-0.3,0-0.6,0-1,0.1C10,2.6,9.6,2.8,9.3,3.1C8.9,3.5,8.7,3.9,8.5,4.4C8.4,4.8,8.4,5.1,8.4,5.5c0,0.6,0,1.1,0,1.7c0,0,0,0,0,0.1
	c-0.2,0-0.3,0-0.5,0c-0.2,0-0.3,0-0.5,0s-0.3,0-0.5,0c-0.2,0-0.3,0-0.5,0c0,0.8,0,1.6,0,2.4c0.7,0,1.4,0,2,0c0,0,0,0.1,0,0.1
	c0,2,0,3.9,0,5.9c0,0,0,0.1,0,0.1c-2.5,0-5.1,0-7.6,0c0,0,0,0,0,0C0.4,15.6,0.1,15.3,0,14.9C0,14.9,0,14.9,0,14.9z"/>
</svg>
