<?xml version="1.0" encoding="utf-8"?>
<!-- Generator: Adobe Illustrator 20.1.0, SVG Export Plug-In . SVG Version: 6.00 Build 0)  -->
<svg version="1.1" id="Layer_1" xmlns="http://www.w3.org/2000/svg" xmlns:xlink="http://www.w3.org/1999/xlink" x="0px" y="0px"
	 width="18.6px" height="18.1px" viewBox="0 0 18.6 18.1" style="enable-background:new 0 0 18.6 18.1;" xml:space="preserve">
<style type="text/css">
	.st0{opacity:0.9;fill:#FFFFFF;}
	.st1{fill:#FFFFFF;}
	.st2{fill:#C3C3C2;}
	.st3{fill:none;stroke:#AEAEAE;stroke-miterlimit:10;}
	.st4{fill:none;stroke:#AEAEAE;stroke-width:1.5;stroke-miterlimit:10;}
	.st5{fill:#1E1E1C;}
	.st6{fill:#F8CB00;}
	.st7{fill:#2E353D;}
	.st8{fill:#034356;}
	.st9{fill:#BCBBBB;}
	.st10{fill:#0B6284;}
	.st11{fill:#2096D3;}
	.st12{fill:#126180;}
	.st13{fill:#3D3D3C;}
	.st14{fill:#DAD9D8;}
	.st15{opacity:0.85;}
	.st16{opacity:0.8;}
	.st17{fill:none;stroke:#FFFFFF;stroke-linecap:round;stroke-linejoin:round;stroke-miterlimit:10;}
	.st18{opacity:0.8;fill:#FFFFFF;}
	.st19{fill:#2496D3;}
	.st20{opacity:0.65;fill:#2496D3;}
	.st21{fill:#3D3E3D;}
	.st22{fill:none;stroke:#FFFFFF;stroke-width:3.5;stroke-miterlimit:10;}
	.st23{fill:none;stroke:#2496D3;stroke-miterlimit:10;}
	.st24{fill:none;stroke:#2496D3;stroke-width:1.5;stroke-miterlimit:10;}
	.st25{opacity:0.8;fill:#2496D3;}
	.st26{opacity:0.75;}
	.st27{fill:none;stroke:#FFFFFF;stroke-width:2.5;stroke-miterlimit:10;}
	.st28{fill:none;stroke:#2496D3;stroke-width:0.5;stroke-miterlimit:10;}
	.st29{fill:none;stroke:#2496D3;stroke-width:2.375;stroke-linecap:round;stroke-linejoin:round;stroke-miterlimit:10;}
	.st30{fill:#2D3134;}
	.st31{fill:none;stroke:#000000;stroke-width:3.4954;stroke-miterlimit:10;}
	.st32{fill:#2496D3;stroke:#000000;stroke-width:2.0102;stroke-miterlimit:10;}
	.st33{fill:#2496D3;stroke:#000000;stroke-width:2.0098;stroke-miterlimit:10;}
	.st34{fill:none;stroke:#000000;stroke-width:2;stroke-miterlimit:10;}
	.st35{fill:#2496D3;stroke:#000000;stroke-width:0.9727;stroke-miterlimit:10;}
	.st36{fill:#2496D3;stroke:#000000;stroke-width:1.4055;stroke-miterlimit:10;}
	.st37{fill:#2496D3;stroke:#000000;stroke-width:2;stroke-miterlimit:10;}
	.st38{fill:none;stroke:#000000;stroke-width:4;stroke-linejoin:round;stroke-miterlimit:10;}
	.st39{fill:none;stroke:#000000;stroke-width:3.8779;stroke-linejoin:round;stroke-miterlimit:10;}
</style>
<g>
	<path class="st2" d="M16.3,9.9c0-0.5-0.2-0.9-0.5-1.3c-0.2-0.2-0.5-0.5-0.7-0.7c-0.2-0.2-0.6-0.6-0.7-0.7c-0.1-0.1-0.1-0.1-0.2-0.2
		c-1.2-1.2-2.4-2.4-3.5-3.6c-0.7-0.7-1.7-0.7-2.4,0C7.4,4.2,6.5,5,5.7,5.9C4.8,6.8,3.8,7.7,2.9,8.6C2.5,8.9,2.3,9.4,2.3,9.9
		c0,2.2,0,4.3,0,6.5c0,0.1,0,0.3,0.1,0.4c0.2,0.8,0.9,1.3,1.7,1.3c0.9,0,1.8,0,2.8,0c0,0,0.1,0,0.1,0C7,18,7,18,7,17.9
		c0-2,0-3.9,0-5.9c0-0.6,0.4-1,0.9-0.9c0.9,0,1.9,0,2.8,0c0.5,0,0.9,0.4,0.9,0.9c0,1.3,0,2.6,0,3.8c0,0,0,1.1,0,1.1
		c0,0.4,0,0.7,0,1.1c0,0,0,0.1,0,0.1c0,0,0,0,0.1,0c1,0,1.9,0,2.9,0c0.4,0,0.7-0.1,1-0.3c0.5-0.3,0.8-0.8,0.8-1.4c0-1.3,0-2.7,0-4
		C16.3,11.5,16.3,10.7,16.3,9.9z"/>
	<path class="st2" d="M18.4,9.1c-0.9-0.9-1.8-1.8-2.7-2.7c-1-1-1.9-2-2.9-2.9c-0.1-0.1-0.6-0.6-0.7-0.7c0,0-0.1-0.1-0.1-0.1
		C11.3,1.8,10.5,1,9.7,0.2c-0.2-0.2-0.5-0.2-0.8,0c-1,1.1-2.1,2.1-3.1,3.2C4.2,5,2.6,6.6,1,8.2C0.7,8.5,0.4,8.8,0.2,9.1
		C0,9.2,0,9.4,0,9.6C0.1,9.8,0.2,9.9,0.4,10c0.2,0,0.4-0.1,0.5-0.2c0.9-1,1.9-1.9,2.9-2.9c1.7-1.7,3.4-3.5,5.1-5.2
		C9,1.5,9.2,1.4,9.3,1.3c2,2,7.6,7.8,8.4,8.6c0.2,0.2,0.5,0.2,0.7,0C18.6,9.6,18.6,9.3,18.4,9.1z M16,6.8L16,6.8L16,6.8L16,6.8z"/>
</g>
</svg>
