<?xml version="1.0" encoding="utf-8"?>
<!-- Generator: Adobe Illustrator 20.1.0, SVG Export Plug-In . SVG Version: 6.00 Build 0)  -->
<svg version="1.1" id="Layer_1" xmlns="http://www.w3.org/2000/svg" xmlns:xlink="http://www.w3.org/1999/xlink" x="0px" y="0px"
	 width="566.3px" height="409.2px" viewBox="0 0 566.3 409.2" style="enable-background:new 0 0 566.3 409.2;" xml:space="preserve"
	>
<style type="text/css">
	.st0{opacity:0.9;fill:#FFFFFF;}
	.st1{fill:#FFFFFF;}
	.st2{fill:#C3C3C2;}
	.st3{fill:none;stroke:#AEAEAE;stroke-miterlimit:10;}
	.st4{fill:none;stroke:#AEAEAE;stroke-width:1.5;stroke-miterlimit:10;}
	.st5{fill:#1E1E1C;}
	.st6{fill:#F8CB00;}
	.st7{fill:#2E353D;}
	.st8{fill:#034356;}
	.st9{fill:#BCBBBB;}
	.st10{fill:#0B6284;}
	.st11{fill:#2096D3;}
	.st12{fill:#126180;}
	.st13{fill:#3D3D3C;}
	.st14{fill:#DAD9D8;}
	.st15{opacity:0.85;}
	.st16{opacity:0.8;}
	.st17{fill:none;stroke:#FFFFFF;stroke-linecap:round;stroke-linejoin:round;stroke-miterlimit:10;}
	.st18{opacity:0.8;fill:#FFFFFF;}
	.st19{fill:#2496D3;}
	.st20{opacity:0.65;fill:#2496D3;}
	.st21{fill:#3D3E3D;}
	.st22{fill:none;stroke:#FFFFFF;stroke-width:3.5;stroke-miterlimit:10;}
	.st23{fill:none;stroke:#2496D3;stroke-miterlimit:10;}
	.st24{fill:none;stroke:#2496D3;stroke-width:1.5;stroke-miterlimit:10;}
	.st25{opacity:0.8;fill:#2496D3;}
	.st26{opacity:0.75;}
	.st27{fill:none;stroke:#FFFFFF;stroke-width:2.5;stroke-miterlimit:10;}
	.st28{fill:none;stroke:#2496D3;stroke-width:0.5;stroke-miterlimit:10;}
	.st29{fill:none;stroke:#2496D3;stroke-width:2.375;stroke-linecap:round;stroke-linejoin:round;stroke-miterlimit:10;}
	.st30{fill:#2D3134;}
	.st31{fill:none;stroke:#000000;stroke-width:3.4954;stroke-miterlimit:10;}
	.st32{fill:#2496D3;stroke:#000000;stroke-width:2.0102;stroke-miterlimit:10;}
	.st33{fill:#2496D3;stroke:#000000;stroke-width:2.0098;stroke-miterlimit:10;}
	.st34{fill:none;stroke:#000000;stroke-width:2;stroke-miterlimit:10;}
	.st35{fill:#2496D3;stroke:#000000;stroke-width:0.9727;stroke-miterlimit:10;}
	.st36{fill:#2496D3;stroke:#000000;stroke-width:1.4055;stroke-miterlimit:10;}
	.st37{fill:#2496D3;stroke:#000000;stroke-width:2;stroke-miterlimit:10;}
	.st38{fill:none;stroke:#000000;stroke-width:4;stroke-linejoin:round;stroke-miterlimit:10;}
	.st39{fill:none;stroke:#000000;stroke-width:3.8779;stroke-linejoin:round;stroke-miterlimit:10;}
</style>
<g>
	<g class="st15">
		<path class="st1" d="M172.4,165.1c1-0.7,1.9-1.4,2.8-2c0.9-0.6,2.4,0.1,3,1c0.6,0.9,0.6,2.4-0.3,3c0,0,0,0,0,0
			c-1.8,1.2-3.6,2.4-5.4,3.7c0,0,0,0,0,0c-0.9,0.6-2.3,0.1-2.9-0.8c-0.6-0.9-0.4-2.2,0.5-2.8C170.9,166.7,171.5,165.7,172.4,165.1z
			 M159.3,174.8c0.8-0.6,2-0.4,2.7,0.4c0.7,0.9,0.5,2.1-0.3,2.8c-1.7,1.3-3.4,2.7-5.1,4.1c-0.8,0.7-2.1,0.6-2.8-0.3
			c-0.7-0.8-0.6-2.1,0.3-2.8c1.7-1.4,3.4-2.8,5.1-4.2C159.3,174.9,159.3,174.8,159.3,174.8z M186.5,156.4c0,0,0.1-0.1,0.1-0.1
			c1.9-1.1,3.9-2.2,5.8-3.2c1-0.5,2.2-0.1,2.7,0.8c0.5,1,0.1,2.2-0.8,2.7c-1.9,1-3.8,2-5.7,3.1c-0.9,0.5-2.1,0.2-2.7-0.7
			C185.3,158.1,185.6,157,186.5,156.4z M144.3,187.5c0.8-0.5,1.9-0.4,2.6,0.3c0.7,0.8,0.7,2-0.1,2.8c-1.6,1.4-3.2,2.9-4.8,4.4
			c-0.8,0.7-2,0.7-2.8-0.1c-0.7-0.8-0.7-2,0.1-2.8c1.6-1.5,3.2-3,4.8-4.5C144.2,187.7,144.3,187.6,144.3,187.5z M204,147.6
			c0.1-0.1,0.2-0.1,0.3-0.2c2-0.9,4.1-1.7,6.2-2.5c1-0.4,2.2,0.1,2.5,1.1c0.4,1-0.1,2.2-1.1,2.5c-2,0.8-4,1.6-6,2.4
			c-1,0.4-2.2,0-2.6-1C203,149.1,203.3,148.1,204,147.6z M130.2,201.3c0.8-0.5,1.8-0.4,2.5,0.2c0.8,0.8,0.8,2,0,2.8
			c-1.5,1.5-3,3.1-4.5,4.7c-0.7,0.8-2,0.8-2.8,0.1c-0.8-0.7-0.8-2-0.1-2.8c1.5-1.6,3-3.2,4.5-4.8C130,201.4,130.1,201.3,130.2,201.3
			z M222.6,141c0.2-0.1,0.4-0.2,0.6-0.3c2.2-0.6,4.3-1.2,6.4-1.7c0.8-0.2,1.6,0.1,2,0.8c1.2-1.1,2.3-2.2,3.5-3.2
			c0.8-0.7,2.1-0.6,2.8,0.2c0.7,0.8,0.6,2.1-0.2,2.8c-1.6,1.4-3.2,2.9-4.8,4.4c-0.8,0.7-2,0.7-2.8-0.1c-0.2-0.2-0.4-0.5-0.5-0.8
			c-1.8,0.4-3.7,0.9-5.5,1.5c-1,0.3-2.1-0.3-2.4-1.4C221.5,142.3,221.9,141.5,222.6,141z M262.3,117.8
			C262.3,117.8,262.3,117.8,262.3,117.8c1.9-1.3,3.4-2.9,5.3-4.1c0.9-0.6,1.8-0.7,2.4,0.2c0.6,0.9,0.3,2.1-0.7,2.7
			c-1.9,1.1-3.7,2.4-5.5,3.5c-0.9,0.6-1.9,0.7-2.5-0.2C260.8,119.1,261.4,118.4,262.3,117.8z M251.4,125.2c0.9-0.6,1.7-0.9,2.3,0
			c0.6,0.9,0.2,1.7-0.7,2.3c-1.8,1.3-3.5,2.6-5.2,3.9c-0.8,0.7-2.1,0.6-2.7-0.3c-0.7-0.9-0.3-1.7,0.6-2.4
			C247.4,127.4,249.5,126.5,251.4,125.2C251.4,125.2,251.4,125.2,251.4,125.2z M116.9,215.8c0.7-0.5,1.7-0.5,2.4,0.1
			c0.8,0.7,0.9,2,0.2,2.8c-1.4,1.6-2.8,3.3-4.3,5c-0.7,0.8-1.9,0.9-2.8,0.2c-0.8-0.7-0.9-1.9-0.2-2.8c1.4-1.7,2.9-3.4,4.3-5
			C116.6,216,116.8,215.9,116.9,215.8z M278.4,106.6c0.1,0,0.1-0.1,0.2-0.1c1.9-1.1,3.9-2.1,5.8-3.1c1-0.5,2.2-0.1,2.7,0.8
			c0.5,1,0.1,2.2-0.8,2.7c-1.9,1-3.9,2-5.8,3.1c-1,0.5-2.2,0.2-2.7-0.8C277.3,108.3,277.6,107.2,278.4,106.6z M296,97.7
			c0.1-0.1,0.2-0.1,0.3-0.2c2-0.9,4-1.9,6-2.8c1-0.4,2.2,0,2.6,1c0.4,1,0,2.2-1,2.6c-2,0.9-4,1.8-5.9,2.7c-1,0.5-2.2,0-2.6-0.9
			C294.9,99.3,295.2,98.2,296,97.7z M221.4,150.3c0.7-0.5,1.7-0.5,2.4,0.2c0.8,0.7,0.9,2,0.2,2.8c-1.4,1.6-2.9,3.3-4.2,4.9
			c-0.7,0.8-1.9,1-2.8,0.3c-0.8-0.7-1-1.9-0.3-2.8c1.4-1.7,2.8-3.4,4.3-5C221.1,150.5,221.3,150.4,221.4,150.3z M241.8,137
			c0.2-0.2,0.5-0.3,0.9-0.3c2.2-0.3,4.4-0.5,6.6-0.7c1.1-0.1,2,0.7,2.1,1.8c0.1,1.1-0.7,2-1.8,2.1c-2.1,0.2-4.3,0.4-6.4,0.7
			c-1.1,0.1-2.1-0.6-2.2-1.7C240.8,138.1,241.2,137.4,241.8,137z M104.3,230.9c0.7-0.5,1.6-0.5,2.3,0.1c0.9,0.7,1,1.9,0.3,2.8
			c-1.3,1.7-2.7,3.4-4,5.1c-0.7,0.9-1.9,1-2.8,0.4c-0.9-0.7-1-1.9-0.4-2.8c1.4-1.8,2.7-3.5,4.1-5.2C104,231.1,104.2,231,104.3,230.9
			z M314,89.7c0.1-0.1,0.2-0.1,0.4-0.2c2-0.8,4.1-1.7,6.1-2.5c1-0.4,2.2,0.1,2.6,1.1c0.4,1-0.1,2.2-1.1,2.6c-2,0.8-4.1,1.6-6.1,2.4
			c-1,0.4-2.2-0.1-2.6-1.1C312.9,91.2,313.3,90.3,314,89.7z M209.3,165.8c0.6-0.4,1.5-0.5,2.2,0c0.9,0.6,1.1,1.8,0.5,2.7
			c-1.2,1.8-2.4,3.6-3.5,5.4c-0.6,0.9-1.8,1.2-2.7,0.7c-0.9-0.6-1.2-1.8-0.7-2.7c1.1-1.9,2.3-3.8,3.6-5.6
			C208.9,166.1,209.1,166,209.3,165.8z M332.4,82.7c0.1-0.1,0.3-0.2,0.4-0.2c2.1-0.7,4.2-1.5,6.2-2.2c1-0.4,2.1,0.2,2.5,1.2
			c0.4,1-0.2,2.2-1.2,2.5c-2.1,0.7-4.1,1.4-6.2,2.2c-1,0.4-2.2-0.2-2.5-1.2C331.4,84.1,331.7,83.2,332.4,82.7z M92.4,246.6
			c0.7-0.5,1.6-0.5,2.3,0c0.9,0.6,1.1,1.9,0.4,2.8c-1.3,1.7-2.5,3.5-3.8,5.3c-0.6,0.9-1.9,1.1-2.7,0.5c-0.9-0.6-1.1-1.9-0.5-2.7
			c1.3-1.8,2.6-3.6,3.9-5.3C92.1,246.8,92.2,246.7,92.4,246.6z M261.4,136c0.3-0.2,0.7-0.4,1.2-0.3c2.2,0.1,4.5,0.2,6.7,0.4
			c1.1,0.1,1.9,1,1.8,2.1c-0.1,1.1-1,1.9-2.1,1.8c-2.1-0.2-4.3-0.3-6.4-0.4c-1.1,0-1.9-0.9-1.9-2C260.6,136.9,260.9,136.3,261.4,136
			z M351.1,76.4c0.2-0.1,0.3-0.2,0.5-0.3c2.1-0.7,4.2-1.3,6.3-2c1-0.3,2.1,0.3,2.5,1.3c0.3,1-0.3,2.1-1.3,2.5
			c-2.1,0.6-4.2,1.3-6.3,1.9c-1,0.3-2.1-0.2-2.5-1.3C350.1,77.7,350.4,76.8,351.1,76.4z M81.1,262.7c0.6-0.4,1.5-0.5,2.2,0
			c0.9,0.6,1.1,1.8,0.5,2.7c-1.2,1.8-2.4,3.6-3.6,5.4c-0.6,0.9-1.8,1.2-2.7,0.6c-0.9-0.6-1.2-1.8-0.6-2.7c1.2-1.8,2.4-3.7,3.7-5.5
			C80.7,263,80.9,262.8,81.1,262.7z M199.5,182.9c0.6-0.4,1.3-0.5,2-0.2c1,0.5,1.4,1.6,0.9,2.6c-0.9,1.9-1.8,3.9-2.6,5.9
			c-0.4,1-1.6,1.5-2.6,1.1c-1-0.4-1.5-1.6-1.1-2.6c0.8-2,1.7-4.1,2.7-6.1C199,183.3,199.2,183.1,199.5,182.9z M370,70.7
			c0.2-0.1,0.4-0.2,0.6-0.3c2.1-0.6,4.2-1.2,6.3-1.7c1.1-0.3,2.1,0.3,2.4,1.4c0.3,1.1-0.3,2.1-1.4,2.4c-2.1,0.6-4.2,1.1-6.3,1.7
			c-1,0.3-2.1-0.3-2.4-1.4C369,72.1,369.3,71.2,370,70.7z M70.3,279.1c0.6-0.4,1.5-0.5,2.2,0c0.9,0.6,1.2,1.8,0.6,2.7
			c-1.2,1.8-2.3,3.7-3.5,5.5c-0.6,0.9-1.8,1.2-2.7,0.6c-0.9-0.6-1.2-1.8-0.6-2.7c1.2-1.9,2.3-3.7,3.5-5.6
			C69.9,279.5,70.1,279.3,70.3,279.1z M280.9,138.2c0.4-0.3,0.9-0.4,1.5-0.3c2.2,0.4,4.4,0.9,6.5,1.5c1.1,0.3,1.7,1.3,1.4,2.4
			c-0.3,1.1-1.3,1.7-2.4,1.4c-2.1-0.5-4.2-1-6.3-1.4c-1.1-0.2-1.8-1.2-1.6-2.3C280.2,138.9,280.5,138.4,280.9,138.2z M389,65.7
			c0.2-0.1,0.4-0.2,0.6-0.3c2.1-0.5,4.3-1,6.4-1.5c1.1-0.2,2.1,0.4,2.4,1.5c0.2,1.1-0.4,2.1-1.5,2.4c-2.1,0.5-4.2,1-6.4,1.5
			c-1.1,0.3-2.1-0.4-2.4-1.4C388,67,388.4,66.2,389,65.7z M192.5,201.3c0.5-0.3,1.1-0.4,1.7-0.3c1,0.3,1.6,1.4,1.3,2.4
			c-0.6,2-1.1,4.1-1.6,6.2c-0.2,1.1-1.3,1.7-2.4,1.5c-1.1-0.2-1.7-1.3-1.5-2.4c0.5-2.2,1.1-4.3,1.7-6.4
			C191.9,201.9,192.1,201.5,192.5,201.3z M60,295.9c0.6-0.4,1.4-0.5,2.1-0.1c0.9,0.6,1.2,1.8,0.7,2.7c-1.1,1.9-2.2,3.7-3.3,5.6
			c-0.5,0.9-1.8,1.3-2.7,0.7c-0.9-0.5-1.3-1.8-0.7-2.7c1.1-1.9,2.2-3.8,3.3-5.7C59.6,296.3,59.8,296.1,60,295.9z M408.2,61.3
			c0.2-0.1,0.4-0.2,0.7-0.3c2.2-0.5,4.3-0.9,6.4-1.4c1.1-0.2,2.1,0.5,2.3,1.5c0.2,1.1-0.5,2.1-1.5,2.3c-2.1,0.4-4.3,0.9-6.4,1.4
			c-1.1,0.2-2.1-0.4-2.3-1.5C407.2,62.5,407.6,61.7,408.2,61.3z M50.2,313c0.6-0.4,1.4-0.5,2.1-0.1c0.9,0.5,1.3,1.7,0.8,2.7
			c-1.1,1.9-2.1,3.8-3.2,5.7c-0.5,1-1.7,1.3-2.7,0.8c-1-0.5-1.3-1.7-0.8-2.7c1.1-1.9,2.1-3.9,3.2-5.8
			C49.7,313.4,49.9,313.1,50.2,313z M299.9,143.5c0.5-0.3,1.2-0.5,1.8-0.2c2.1,0.8,4.2,1.6,6.2,2.5c1,0.4,1.5,1.6,1,2.6
			c-0.4,1-1.6,1.5-2.6,1c-2-0.9-4-1.7-6-2.4c-1-0.4-1.5-1.5-1.2-2.5C299.3,144,299.5,143.7,299.9,143.5z M427.5,57.4
			c0.2-0.1,0.5-0.3,0.7-0.3c2.2-0.4,4.3-0.8,6.5-1.2c1.1-0.2,2.1,0.5,2.3,1.6c0.2,1.1-0.5,2.1-1.6,2.3c-2.1,0.4-4.3,0.8-6.4,1.2
			c-1.1,0.2-2.1-0.5-2.3-1.6C426.6,58.6,426.9,57.8,427.5,57.4z M188.6,220.5c0.4-0.3,0.9-0.4,1.3-0.3c1.1,0.1,1.8,1.1,1.7,2.2
			c-0.3,2.1-0.5,4.3-0.6,6.4c-0.1,1.1-1,1.9-2.1,1.8c-1.1-0.1-1.9-1-1.8-2.1c0.2-2.2,0.4-4.5,0.6-6.6
			C187.8,221.3,188.1,220.8,188.6,220.5z M40.7,330.3c0.6-0.4,1.4-0.5,2-0.1c1,0.5,1.3,1.7,0.8,2.7c-1,1.9-2,3.8-3,5.8
			c-0.5,1-1.7,1.3-2.7,0.8c-1-0.5-1.3-1.7-0.8-2.7c1-2,2-3.9,3.1-5.8C40.3,330.7,40.5,330.4,40.7,330.3z M446.9,53.9
			c0.2-0.2,0.5-0.3,0.8-0.3c2.2-0.4,4.4-0.7,6.5-1.1c1.1-0.2,2.1,0.6,2.3,1.6c0.2,1.1-0.6,2.1-1.6,2.3c-2.1,0.3-4.3,0.7-6.5,1
			c-1.1,0.2-2.1-0.5-2.3-1.6C446,55.1,446.3,54.4,446.9,53.9z M187.3,240.2c0.3-0.2,0.7-0.3,1.2-0.3c1.1,0,1.9,0.9,1.9,2
			c0,2.2-0.1,4.4-0.1,6.5c0,1.1-0.9,2-2,2c-1.1,0-2-0.9-2-2c0-2.2,0-4.4,0.1-6.6C186.5,241.1,186.8,240.5,187.3,240.2z M317.7,151.7
			c0.6-0.4,1.4-0.5,2.1-0.1c1.9,1.1,3.8,2.2,5.7,3.4c0.9,0.6,1.2,1.8,0.6,2.7c-0.6,0.9-1.8,1.2-2.7,0.6c-1.8-1.1-3.7-2.3-5.6-3.3
			c-1-0.5-1.3-1.7-0.8-2.7C317.3,152.1,317.5,151.9,317.7,151.7z M466.4,50.9c0.2-0.2,0.5-0.3,0.8-0.3c2.2-0.3,4.4-0.6,6.5-0.9
			c1.1-0.1,2.1,0.6,2.2,1.7c0.1,1.1-0.6,2.1-1.7,2.2c-2.1,0.3-4.3,0.6-6.5,0.9c-1.1,0.2-2.1-0.6-2.2-1.7
			C465.5,52.1,465.8,51.3,466.4,50.9z M31.7,347.7c0.6-0.4,1.3-0.5,2-0.1c1,0.5,1.4,1.7,0.9,2.6c-1,1.9-2,3.9-2.9,5.9
			c-0.5,1-1.7,1.4-2.6,0.9c-1-0.5-1.4-1.7-0.9-2.6c1-2,2-3.9,2.9-5.9C31.2,348.2,31.4,347.9,31.7,347.7z M486,48.4
			c0.3-0.2,0.5-0.3,0.9-0.3c2.2-0.3,4.4-0.5,6.5-0.8c1.1-0.1,2.1,0.7,2.2,1.7c0.1,1.1-0.7,2.1-1.7,2.2c-2.1,0.2-4.3,0.5-6.5,0.8
			c-1.1,0.1-2.1-0.6-2.2-1.7C485,49.5,485.4,48.8,486,48.4z M23,365.4c0.6-0.4,1.3-0.5,2-0.1c1,0.5,1.4,1.6,0.9,2.6
			c-0.9,2-1.9,3.9-2.8,5.9c-0.5,1-1.6,1.4-2.6,0.9c-1-0.5-1.4-1.6-0.9-2.6c0.9-2,1.9-4,2.8-5.9C22.5,365.9,22.7,365.6,23,365.4z
			 M187.7,259.8c0.3-0.2,0.6-0.3,1-0.3c1.1-0.1,2,0.7,2.1,1.8c0.1,2.2,0.3,4.4,0.5,6.5c0.1,1.1-0.7,2-1.8,2.2
			c-1.1,0.1-2-0.7-2.2-1.8c-0.2-2.2-0.4-4.4-0.6-6.6C186.8,260.9,187.2,260.2,187.7,259.8z M334.2,162.5c0.7-0.5,1.6-0.5,2.3,0.1
			c1.7,1.3,3.5,2.7,5.2,4.2c0.8,0.7,0.9,1.9,0.2,2.8c-0.7,0.8-1.9,0.9-2.8,0.2c-1.7-1.4-3.4-2.7-5.1-4c-0.9-0.7-1-1.9-0.4-2.8
			C333.9,162.8,334,162.6,334.2,162.5z M505.6,46.2c0.3-0.2,0.6-0.3,0.9-0.3c2.3-0.2,4.4-0.4,6.6-0.6c1.1-0.1,2,0.7,2.1,1.8
			c0.1,1.1-0.7,2-1.8,2.1c-2.1,0.2-4.3,0.4-6.5,0.6c-1.1,0.1-2-0.7-2.2-1.8C504.7,47.3,505,46.6,505.6,46.2z M14.6,383.2
			c0.6-0.4,1.3-0.5,1.9-0.2c1,0.5,1.4,1.6,1,2.6l-0.8,1.6c0,0-0.9,1.5-2.5,4.3c-0.6,0.9-1.8,1.2-2.7,0.7c-0.9-0.6-1.2-1.8-0.7-2.7
			c1.4-2.4,2.3-3.8,2.5-4.2l0.6-1.4C14.1,383.7,14.3,383.4,14.6,383.2z M4.5,400.1c0.6-0.4,1.5-0.5,2.2,0c0.9,0.6,1.2,1.8,0.6,2.7
			c-1.1,1.7-2.3,3.6-3.6,5.5c-0.6,0.9-1.8,1.2-2.7,0.6c-0.9-0.6-1.2-1.8-0.6-2.7c1.3-1.9,2.5-3.8,3.6-5.5
			C4.1,400.5,4.2,400.3,4.5,400.1z M190.1,279.4c0.2-0.2,0.5-0.3,0.8-0.3c1.1-0.2,2.1,0.5,2.3,1.6c0.4,2.2,0.8,4.3,1.3,6.3
			c0.2,1.1-0.4,2.1-1.5,2.4c-1.1,0.2-2.1-0.4-2.4-1.5c-0.5-2.1-0.9-4.3-1.3-6.5C189.1,280.6,189.5,279.8,190.1,279.4z M349,175.5
			c0.8-0.5,1.8-0.4,2.5,0.2c1.6,1.6,3.1,3.2,4.6,4.8c0.7,0.8,0.7,2.1-0.1,2.8c-0.8,0.7-2,0.7-2.8-0.1c-1.4-1.6-2.9-3.2-4.5-4.7
			c-0.8-0.8-0.8-2,0-2.8C348.8,175.6,348.9,175.6,349,175.5z M194.9,298.5c0.1-0.1,0.3-0.2,0.5-0.2c1-0.3,2.1,0.2,2.5,1.2
			c0.7,2.1,1.4,4.1,2.2,6.1c0.4,1-0.1,2.2-1.1,2.6c-1,0.4-2.2-0.1-2.6-1.1c-0.8-2-1.6-4.1-2.3-6.3
			C193.8,299.8,194.2,298.9,194.9,298.5z M361.8,190.2c0.9-0.6,1.9-0.5,2.6,0.3c1.3,1.8,3.4,4.7,4.7,6.5c0.6,0.9,1,3,0.1,3.6
			c0,0,0,0,0,0c-0.9,0.6-2.7-0.5-3.3-1.4c-1.2-1.8-2.6-3.7-3.9-5.4c-0.7-0.9-0.7-2.5,0.1-3.1C362.1,190.7,361.8,190.2,361.8,190.2z
			 M202.8,316.5c0,0,0.1,0,0.2-0.1c0.9-0.5,2.2-0.1,2.7,0.8c1,1.9,2.6,4.4,3.8,6.1c0.6,0.9,0.9,2.9,0,3.5c0,0,0,0,0,0
			c-0.9,0.6-2.6-0.4-3.2-1.3c-1.2-1.8-2.7-4.3-3.8-6.2C201.8,318.4,201.9,317.1,202.8,316.5z M372.7,206.8c0,0,0.1-0.1,0.2-0.1
			c1-0.5,2.1-0.2,2.7,0.8c1.1,1.9,2.1,3.9,3.1,5.9c0.5,1,0.1,2.2-0.9,2.6c-1,0.5-2.2,0.1-2.6-0.9c-0.9-1.9-1.9-3.8-3-5.7
			C371.6,208.5,371.8,207.4,372.7,206.8z M214.1,332.5c0.8-0.5,1.9-0.4,2.6,0.3c1.4,1.6,3,3.1,4.5,4.5c0.8,0.7,0.8,2,0.1,2.8
			c-0.7,0.8-2,0.8-2.8,0.1c-1.6-1.5-3.2-3.1-4.7-4.8c-0.7-0.8-0.7-2.1,0.1-2.8C214,332.6,214.1,332.5,214.1,332.5z M380.8,224.7
			c0.1-0.1,0.3-0.2,0.5-0.2c1-0.4,2.1,0.2,2.5,1.2c0.7,2.1,1.4,4.3,2,6.4c0.3,1.1-0.4,2.1-1.4,2.4c-1.1,0.3-2.1-0.3-2.4-1.4
			c-0.5-2-1.2-4.1-1.9-6.1C379.7,226.1,380,225.2,380.8,224.7z M229.1,345.2c0.6-0.4,1.5-0.5,2.2,0c1.8,1.1,3.6,2.2,5.5,3.2
			c1,0.5,1.3,1.7,0.8,2.7c-0.5,1-1.7,1.3-2.7,0.8c-2-1-3.9-2.2-5.8-3.4c-0.9-0.6-1.2-1.8-0.6-2.7
			C228.7,345.5,228.9,345.3,229.1,345.2z M385,243.9c0.3-0.2,0.6-0.3,1-0.3c1.1-0.1,2,0.7,2.1,1.8c0.1,1.6,0.2,3.2,0.2,4.8
			c0,0.7,0,1.3,0,2c0,1.1-0.9,1.9-2,1.9c-1.1,0-1.9-0.9-1.9-2c0-0.6,0-1.3,0-1.9c0-1.4,0-2.9-0.1-4.5C384,245,384.4,244.3,385,243.9
			z M246.8,353.5c0.5-0.3,1.1-0.4,1.7-0.2c2,0.6,4.1,1.2,6.2,1.7c1.1,0.2,1.7,1.3,1.5,2.4c-0.2,1.1-1.3,1.7-2.4,1.5
			c-2.2-0.5-4.4-1.1-6.5-1.8c-1-0.3-1.6-1.4-1.3-2.5C246.2,354.1,246.5,353.8,246.8,353.5z M383.8,263.5c0.4-0.3,0.9-0.4,1.4-0.3
			c1.1,0.2,1.8,1.2,1.6,2.3c-0.3,2.2-0.8,4.4-1.3,6.6c-0.2,1.1-1.3,1.7-2.4,1.5c-1.1-0.2-1.7-1.3-1.5-2.4c0.5-2.1,0.9-4.2,1.2-6.3
			C383.1,264.3,383.4,263.8,383.8,263.5z M266.1,357.2c0.4-0.2,0.8-0.4,1.2-0.3c2.1,0.2,4.3,0.2,6.4,0.2c1.1,0,2,0.9,2,2
			c0,1.1-0.9,2-2,2c-2.2,0-4.5-0.1-6.7-0.2c-1.1-0.1-1.9-1-1.8-2.1C265.3,358.1,265.6,357.5,266.1,357.2z M378.9,282.5
			c0.5-0.3,1.2-0.4,1.8-0.2c1,0.4,1.5,1.5,1.2,2.5c-0.8,2.1-1.6,4.2-2.5,6.2c-0.4,1-1.6,1.4-2.6,1c-1-0.4-1.4-1.6-1-2.6
			c0.9-2,1.7-4,2.4-6C378.3,283.1,378.5,282.8,378.9,282.5z M285.7,356.5c0.2-0.2,0.5-0.3,0.8-0.3c2.1-0.3,4.2-0.6,6.4-1.1
			c1.1-0.2,2.1,0.5,2.3,1.5c0.2,1.1-0.5,2.1-1.5,2.3c-2.2,0.4-4.4,0.8-6.6,1.1c-1.1,0.1-2.1-0.6-2.2-1.7
			C284.8,357.7,285.1,356.9,285.7,356.5z M370.4,300.3c0.6-0.4,1.4-0.5,2.1-0.1c0.9,0.6,1.2,1.8,0.7,2.7c-1.1,1.9-2.3,3.8-3.6,5.6
			c-0.6,0.9-1.8,1.1-2.7,0.5c-0.9-0.6-1.1-1.8-0.5-2.7c1.2-1.8,2.4-3.6,3.5-5.4C370,300.6,370.2,300.4,370.4,300.3z M304.9,352.1
			c0.2-0.1,0.3-0.2,0.5-0.2c2-0.7,4.1-1.4,6.1-2.2c1-0.4,2.2,0.1,2.6,1.1c0.4,1-0.1,2.2-1.1,2.6c-2.1,0.8-4.2,1.6-6.3,2.2
			c-1,0.3-2.1-0.2-2.5-1.3C303.9,353.5,304.2,352.6,304.9,352.1z M358.9,316.2c0.7-0.5,1.7-0.5,2.4,0.1c0.8,0.7,0.9,2,0.2,2.8
			c-1.4,1.7-2.9,3.3-4.5,4.9c-0.7,0.8-2,0.8-2.8,0c-0.8-0.8-0.8-2,0-2.8c1.5-1.6,3-3.2,4.4-4.8C358.6,316.4,358.7,316.3,358.9,316.2
			z M323,344.5c0.1,0,0.1-0.1,0.2-0.1c1.9-1,3.8-2,5.6-3.1c0.9-0.6,2.1-0.2,2.7,0.7c0.6,0.9,0.2,2.1-0.7,2.7
			c-1.9,1.1-3.9,2.2-5.8,3.2c-1,0.5-2.2,0.1-2.7-0.8C321.9,346.1,322.2,345,323,344.5z M344.8,330c0.8-0.6,2-0.4,2.6,0.4
			c0.7,0.8,0.6,2.1-0.3,2.8c-1.7,1.4-3.5,2.8-5.2,4.1c-0.9,0.6-2.1,0.5-2.8-0.4c-0.6-0.9-0.5-2.1,0.4-2.8c1.7-1.3,3.4-2.6,5.1-4
			C344.7,330.1,344.8,330,344.8,330z"/>
	</g>
	<g>
		<path class="st5" d="M541.4,49.7c0,0,1.4-3.6,8.9-2.5c7.5,1.1,7.7,3.5,7.6,4.4c-0.1,0.9-2.4,3.7-6.6,1.6c-1.6-0.8-1.9-0.9-1.4,0
			c0.5,0.9,1.5,1.4,2.5,2c1.1,0.5,2.4,3,0,3.7c-3,0.4-4.3-0.9-5-1.9c-0.8-1-1.5-1.1-2.2-1c-0.8,0.1-2.3,0.1-3.1-1.2"/>
		<path class="st1" d="M542,49.9c0,0,1.2-3.2,8.2-2.2c7,1,7.3,3.1,7.2,4c-0.1,0.9-2.5,2.8-6.4,0.9c-1.5-0.7-2.1-0.4-1.6,0.4
			c0.5,0.8,1.4,1.9,2.5,2.3c1,0.5,2.5,2.5,0.2,3.1c-2.8,0.4-3.8-1.1-4.5-2c-0.7-0.9-1.4-1-2.1-1c-0.7,0.1-2.2,0.4-2.9-0.8"/>
		<path class="st5" d="M519.2,41.4c5.5-4.6,3.8-15.7-3.8-24.6c-7.6-8.9-17-13.5-23.6-7.8c-5.4,4.7-4.1,15.8,3.5,24.8
			C502.9,42.7,513.7,46,519.2,41.4"/>
		<path class="st6" d="M521.1,42.7c4.9-4.1,0.5-17-6.4-25.1c-6.9-8.1-15.8-12.2-21.7-7.1c-4.8,4.2-3.5,14.2,3.4,22.3
			C503.3,41,516.2,46.8,521.1,42.7"/>
		<path class="st5" d="M520.5,42.3c0,0-16.3-11.4-33.6,1.7c-15.2,12.9-8.4,28.8,1.7,34.3c10.1,5.5,47,11.2,47.1-13.3
			C532.2,41.2,525.1,44.9,520.5,42.3"/>
		<path class="st6" d="M503.1,73.5c0,0-7.9-6.7-7.1-17.3c0.9-10.6,9.6-16.2,11.4-16.9c0.7-0.8-0.9-0.6-1.5-0.5
			c-0.7,0.1-4.6,1.6-6.7,3.7c-2.1,2.1-10.5,9-7.7,22c1.5,7.6,8.7,13.4,13,15.4C505.8,78,508,77,503.1,73.5"/>
		<path class="st5" d="M529.1,43.6c3.5,5.8,14.3,5.6,24.2-0.3c9.9-6,15.9-14.3,11.6-21.3c-3.6-5.7-14.5-5.9-24.3,0.1
			C530.7,28,525.6,37.8,529.1,43.6"/>
		<path class="st6" d="M530.5,42.7c3.2,5.3,13.2,5.2,22.3-0.3c9.1-5.5,14.7-13.2,10.7-19.6c-3.3-5.3-13.3-5.4-22.5,0.1
			C531.9,28.4,527.3,37.4,530.5,42.7"/>
		<path class="st6" d="M532.6,59.4c0,0,4.6,7.8-0.8,11.6c-5.4,3.8-12,7.1-23.8,0.2c-11.8-6.9-8.9-26.8,5.2-30.9
			c5.9,1.8,6.5,2.9,6.9,3.5C520.5,44.3,532.6,59.4,532.6,59.4"/>
		<path class="st6" d="M521.6,79.2c0,0-9.4,0.4-15.3-3.5c-4.1-2.4-10.2-4.5-5.2,1.7c1.8,2.2,7.7,6.1,18.5,3.6
			C522.3,80.2,523.2,79.3,521.6,79.2"/>
		<path class="st6" d="M497.6,78.6c0,0-7.7-3.4-9.5-12.8c-1.9-9.9-1.6-16.6,5.9-21.7c2.6-1.7,2.8-1.4,3.7-2.4
			c1.6-1.8,1.2-2.1,0.1-1.9c-1.7,0.2-2.5,1-4.4,1.7c-1.9,0.7-6.2,4.2-7.8,7.8c-1.3,2.9-3.5,10.4,0.6,21.5c2.3,4.9,3.6,6.1,5.1,7
			c1.7,1.1,2.3,1.3,4.3,1.9C497.3,80.2,500.6,80.9,497.6,78.6"/>
		<path class="st6" d="M482.2,52.9c0,0-1.8,3.8-0.4,12.1c1,3.8,1.6,6,3,8c0.8,1.1,0.7,2.5-1.6-0.5c-2.3-3.1-4.3-6.7-3.8-13.9
			C480.3,51.2,483.7,48.5,482.2,52.9"/>
		<path class="st5" d="M505.6,58c0.9,7.2,7.8,12.1,15.5,11.2c15.2-1.8,14.1-17.7,13.2-24.9c-0.5-4-2.4-3.1-5.8-5.1
			c-2.6-1.6-2.1,0.8-5.5,1.2C515.4,41.4,504.4,48.3,505.6,58"/>
		<path class="st6" d="M528.5,63.1c-0.8-1.6-3.2-1.9-5.5-0.8c-2.2,1.1-3.4,3.3-2.6,4.9c0.8,1.6,3.2,1.9,5.5,0.8
			C528.2,66.8,529.3,64.7,528.5,63.1"/>
		<path class="st5" d="M528,65.8c0,0-0.4,0.6,0.3,2.3c0.8,1.7,2.2,4.8,4.4,2.4c2.2-2.4,0.2,9.8,0.2,9.8l-4.9,1.1l-1.1,0.5
			c0,0-0.5-1.8-1.4-2.4c-1-0.9-1-3.5-0.6-4.4c0.4-0.9-1-6.1-2.9-7"/>
		<path class="st5" d="M520.3,20c1,0.2,1.6-0.4,1.8-2c0.2-1.3,0.4-6.4,4.3-8.1l0,0c2.1-1,4.2-1.2,5.9-1c-0.2-1.4-0.8-3.1-2.3-3.9
			c-0.2,0.1-0.3,0.2-0.5,0.3c-1.7,0.7-3.4,0.6-4.1-1.1c-0.7-1.7,1.8-0.3,3.5-1c1.7-0.7,3.2-2.4,3.9-0.7c0.4,1.1-1.2,0.9-1.8,1.7
			c0.8,0.5,2.8,2.1,3.5,5.2c2.1,0.6,3.4,1.6,3.7,1.7c0.5,0.3,1.4,0.4,2.5,0.1c0.5-0.2,1-0.4,1.6-0.5C542,9.7,541.6,9,541,8.5
			c-0.2,0.1-0.3,0.1-0.5,0.1c-1.3,0.2-2.6-0.8-2.7-2.1c-0.2-1.3,0.8-2.6,2.1-2.7c1.3-0.2,2.6,0.8,2.7,2.1c0.1,0.7-0.1,1.4-0.6,1.9
			c0.3,0.3,1.1,1.2,1.7,2.6c0.7,0,1.4,0,2,0.2c0.7,0.1,0.7-0.1,1.1-0.3c1.3-0.7,3.5-1,5.3,0.2c-1.2,0.1-2.5,0.2-3.4,1.6
			c1-0.6,3.2,0,4.5,1.2c-3.6-0.3-3.9,1.6-3.6,2.4c0.2,0.4,0.3,0.9,0.4,1.5c1.2,5.5,0.6,9.5,2.3,12.1c0,0,9.3,4,8.9,9.5
			c-0.8,4.2-7.9,7.2-15.1,8.1c-7.3,0.9-30.9-0.8-36.2-19.7C509.3,23.9,511.4,18.6,520.3,20"/>
		<path class="st6" d="M551.7,30.8c0,0,8.8,2.9,8.5,8c-0.7,3.8-7.3,6.6-13.9,7.4c-6.7,0.9-28-0.2-33.7-18.5c-1.5-5.2,2.6-7.8,13.9-2
			c1.2,0.2,1.3-0.9,1.1-2.5c-0.2-1.5-0.2-10.7,5.8-10.9c6.8,0.3,6.9,4.4,7.3,6.1c0.4,1.7,1.2,7.9,1.2,7.9s0.4-7.1,1.5-9.6
			c1.2-2.3,4.8-2.6,5.9,2.4C550.4,24.3,549.9,30.2,551.7,30.8"/>
		<path class="st5" d="M531.5,25.9c0.3,2.7,2.6,5,4.5,4.7c1.9-0.2,3.6-3,3.3-5.7c-0.4-2.7-1.7-7.6-3.6-7.3
			C533.3,17.9,531.1,23.2,531.5,25.9"/>
		<path class="st5" d="M549.8,38.2c0,0-3.8,9.2-14.8,1.9c-0.4,1.7-2.2,5-4.8,3.2c-2.6-1.8-3.6-5.2-3.6-10.9c0-1.7-1-1.7-1.7-1.5
			c-0.8,0.2-2.2-0.3-0.1-1.5c1.8-0.8,4.2-0.1,4.7,0.9c0.3,0.8-0.2,0.6-0.7,0.6c-0.3,0-0.5,0.4,0.1,1.1
			C529.3,32.8,539.8,47.3,549.8,38.2"/>
		<path class="st1" d="M529.2,34.3L533,38c0,0,0.7,0.7,0.6,1.6c-0.1,1-0.7,0.8-1.9,0.1c-1.4-0.9-3.3-2.2-3.3-2.2s-0.7-0.4-0.5-2.5
			C528.1,33.1,528.8,34,529.2,34.3"/>
		<path class="st1" d="M530.1,39.4c0.1,0,2.1,1.3,2.1,1.3s1.1,0.7,0.6,1.6c-0.4,0.8-1.4,1.1-2.4,0.3c-1-0.8-1.7-2-1.7-2.7
			C528.6,39.3,529.2,38.8,530.1,39.4"/>
		<path class="st1" d="M532.1,25.6c0.3,2.4,2.1,4,3.7,3.8c1.7-0.2,3.2-2.3,2.9-4.7c-0.3-2.4-1.5-6.6-3.1-6.3
			C533.5,18.7,531.8,23.3,532.1,25.6"/>
		<path class="st5" d="M536.4,27.2c0.1,0.9,0.5,1.5,1.3,1.4c0.8-0.1,1.6-1.6,1.5-2.5c-0.1-0.9-0.8-1.7-1.5-1.6
			C536.3,24.6,536.3,26.3,536.4,27.2"/>
		<path class="st5" d="M542.9,27.7c0.3,2.7,2.2,5,3.7,4.8c1.6-0.2,2.8-2.9,2.5-5.6c-0.3-2.7-1.5-7.6-3.1-7.4
			C544.2,19.8,542.6,25,542.9,27.7"/>
		<path class="st1" d="M543.5,27.4c0.3,2.4,1.8,4.1,3.1,3.9c1.3-0.2,2.5-2.2,2.2-4.6c-0.3-2.4-1.3-6.6-2.7-6.4
			C544.4,20.6,543.2,25.1,543.5,27.4"/>
		<path class="st5" d="M546.7,28.1c0.1,0.9,0.6,2.4,1.2,2.4c0.6-0.1,1.1-2.5,1-3.3c-0.1-0.9-0.4-1.8-1.3-1.7
			C546.6,25.5,546.6,27.2,546.7,28.1"/>
		<path class="st5" d="M538.3,32.9c0.3,2.4,3,4.1,6.1,3.7c3.1-0.4,5.3-2.7,5-5.1c-0.3-2.4-3-4.1-6.1-3.7
			C540.3,28.1,538,30.4,538.3,32.9"/>
		<path class="st1" d="M516.6,45.2c-1.4-0.2-2.8,1.1-3.1,3c-0.3,1.9,0.7,3.6,2.1,3.8c1.4,0.2,2.8-1.1,3.1-3
			C519,47.1,518,45.4,516.6,45.2"/>
		<path class="st6" d="M531.3,72.8c-1.2-1-3.3-0.4-4.6,1.3c-1.4,1.7-1.5,3.8-0.3,4.8c1.2,1,3.3,0.4,4.6-1.3
			C532.4,75.9,532.5,73.8,531.3,72.8"/>
		<path class="st6" d="M507.8,57.8c-1.3,0.9-1.2,3.2,0.1,5.1c1.4,2,3.5,2.8,4.8,1.9c1.3-0.9,1.2-3.2-0.1-5.1
			C511.2,57.7,509.1,56.9,507.8,57.8"/>
		<path class="st5" d="M509.5,45.5c0.5,1.7,4.3,0.9,4.6,0.8c0.2-0.1,0.4-0.2,0.6-0.2c1-0.1,2,0.8,2.1,2c0.1,1.2-0.6,2.2-1.7,2.3
			c-0.6,0.1-1.2-0.2-1.6-0.7c-0.9-0.6-3.1-0.2-3,0.4c0.1,0.7-3.3,0.9-3.3,0.9S509,43.7,509.5,45.5"/>
		<path class="st5" d="M528,64.1c-0.6-1.2-2.6-1.5-4.3-0.6c-1.8,0.9-2.7,2.6-2.1,3.9c0.6,1.2,2.6,1.5,4.3,0.6
			C527.7,67.1,528.6,65.3,528,64.1"/>
		<path class="st5" d="M507.7,58.8c-1,0.7-1,2.5,0,4.1c1.1,1.5,2.8,2.2,3.8,1.4c1-0.7,1-2.5,0-4.1C510.4,58.8,508.7,58.1,507.7,58.8
			"/>
		<path class="st5" d="M507.2,59.6c0,0-2.4,3-4.6,2.5c-1.2-0.4-1.4,0.6-0.7,1.6c0.7,1,1.6,2.9,2.2,3.1c0.6,0.2,0.8,1.4,1.5-0.1
			c0.6-1,2.8-2.5,3.8-2.5c1.3,0,2-1.6,1.6-2.1C510.5,61.6,510.2,59.3,507.2,59.6"/>
		<path class="st5" d="M504.5,68.6c1.4-1.2,1.4-3.6-0.1-5.3c-1.5-1.7-3.8-2.1-5.2-0.9c-1.4,1.2-1.4,3.6,0.1,5.3
			C500.8,69.4,503.1,69.8,504.5,68.6"/>
		<path class="st6" d="M504,68.1c1.2-1,1.1-2.9,0-4.3c-1.2-1.4-3.1-1.7-4.3-0.7c-1.2,1-1.1,2.9,0,4.3C501,68.7,502.9,69.1,504,68.1"
			/>
		<path class="st5" d="M501.2,75.9c0,0,5.8-10.9-5.8-22.6c-2.7-2.3-6.6-2-4.9,2.1c0.5,0.9-0.3,0.1-0.7-0.4c-0.4-0.4-1.8-0.6-2,1
			c-0.3,1.6,0.1,5.4,5.4,11.2c2.5,2.2,3.2,2,2.8,3.1C495.4,71.8,497.9,81.2,501.2,75.9"/>
		<path class="st6" d="M500.7,75.4c0,0,5.3-10.1-5.6-21.3c-2.6-2.2-5.6-2.5-3.5,2.1c0,0.5-1,0.3-1.4-0.1c-0.4-0.4-1.7-1.3-1.9,0.3
			c-0.3,1.5,0.3,5.1,5.3,10.7c2.4,2.1,3.2,1.9,2.9,3C496.1,71,498.2,80.5,500.7,75.4"/>
		<path class="st5" d="M508.3,43.5c-1.6,0.2-2.6,2.2-2.3,4.4c0.3,2.2,1.8,3.9,3.3,3.7c1.6-0.2,2.6-2.2,2.3-4.4
			C511.4,45,509.9,43.3,508.3,43.5"/>
		<path class="st1" d="M508.2,44c-1.4,0.2-2.2,1.9-2,3.9c0.2,2,1.5,3.5,2.9,3.3c1.4-0.2,2.2-1.9,2-3.9
			C510.9,45.3,509.6,43.9,508.2,44"/>
		<path class="st5" d="M508.1,44.6c0,0-6-4-7.9-6.7c-2-2.7-4.1-2.9-4.8-0.7c-0.4,2.2,1.5,4.2,1.3,3.9c-0.2-0.2-3-1.7-3.5,1
			c0.1,2.3,3.9,5.6,3.9,5.6s-0.5-1-2.2-0.7c-1.7,0.3-2.2,1.7-1.2,2.5c1,0.7,3.2,2.7,3.5,3.1c0.3,0.3,2.7,1.6,4.6,1.3
			c1.8-0.3,4.8-0.8,5.4-1c1.2-0.3,2.2-2.5,2.3-2.9C509.6,49.6,510.7,44.9,508.1,44.6"/>
		<path class="st1" d="M507.4,45c0,0-5.6-4-7.4-6.5c-1.8-2.4-3.4-3.1-4-1.1c-0.4,2,2.5,5.1,3.1,5.8c0.6,0.7,1.2,1.7,0.5,1.5
			c-0.7-0.2-2.7-3-2.9-3.2c-0.3-0.5-3-1.5-2.9,0.7c0.1,2.1,3.7,5.1,3.7,5.1l1,1c0,0,0.4,0.9-0.5,0.3c-0.9-0.7-1.5-1.6-3-1.3
			c-1.5,0.3-1.7,1.2-0.8,1.9c0.9,0.7,2.7,2.2,3.1,2.7c0.2,0.3,2.4,1.8,4.1,1.5c1.7-0.3,4.8-1.2,5.2-1.3c1.4-0.5,2-2.3,2.1-2.6
			C508.9,49.2,509.8,45.3,507.4,45"/>
		<path class="st5" d="M502.5,46.3c0,0-1-2.8,1.3-2.9c0.9,0.1,1.3,0.3,1.1-1.1c-0.2-1.5,2.7-4.1,4-2.2c1.2,1.9,0.9,4.5,1.1,5.6
			c0.2,1.1-0.6,3-2.4,3.3"/>
		<path class="st1" d="M502.1,46.4c0,0-0.5-2.8,1.7-2.8c0.9,0.1,1.7,0.2,1.5-1.2c-0.2-1.4,2.2-3.6,3.3-1.9c1.1,1.8,0.8,4.3,1,5.3
			c0.2,1-0.5,2.9-2.3,3.2"/>
		<path class="st5" d="M532.8,49.8c-1-0.1-1.9,0.8-2.1,2c-0.2,1.3,0.4,2.4,1.4,2.6c1,0.1,1.9-0.8,2.1-2
			C534.4,51.1,533.7,50,532.8,49.8"/>
		<path class="st5" d="M538.4,64.1c0,0-6.7,6.4-10.6,13.2c-1.8,3.8-1.1,5.9,1,6.6c2.1,0.6,5.2,0.5,5.9-2.2c0.1-1.5,0.4-2.2,2.2-2.1
			c1.8,0,6.1-0.1,8.6-3.3c2.5-3.2,2.3-6,1.3-7.4c-0.4-0.5-1-0.7-1.2-1.3c-0.3-0.7,0-1.6-0.2-2.6C545.3,63.3,544.4,59.4,538.4,64.1"
			/>
		<path class="st6" d="M538.5,64.8c0,0-6.1,6.2-9.8,12.7c-1.7,3.6-1.4,5.2,0.6,5.8c2,0.6,4.4,0.4,5-2.1c0.1-1.4,0.6-2.4,2.3-2.3
			c1.7,0,6,0.2,8.3-2.9c2.4-3.1,2.2-5.5,1.3-6.8c-0.5-0.8-1.4-0.3-1.5-0.9c-0.2-0.6,0.5-1.6,0.3-2.9
			C544.8,63.9,544.2,60.3,538.5,64.8"/>
		<path class="st5" d="M541.5,49.6c-2-0.3-3.8,1.1-4.1,3.2c-0.3,2.1,1,4,3,4.3c2,0.3,3.8-1.1,4.1-3.2
			C544.8,51.8,543.5,49.9,541.5,49.6"/>
		<path class="st1" d="M541.2,50c-1.7-0.3-3.3,1-3.6,2.9c-0.3,1.8,0.9,3.5,2.6,3.8c1.7,0.3,3.3-1,3.6-2.9
			C544.1,52,542.9,50.3,541.2,50"/>
		<path class="st5" d="M539.7,50.8c-1-0.2-2,0.7-2.2,1.8c-0.2,1.2,0.5,2.3,1.5,2.4c1,0.2,2-0.7,2.2-1.8
			C541.4,52.1,540.7,51,539.7,50.8"/>
		<path class="st5" d="M539.2,50.8c0,0-3.5,0.4-5.8-0.7c-1.7,0.1-1.6,2.9-1.2,3.2c0.4,0.3,0.8,0.9,1.3,0.5c0.5-0.4,3.2-0.5,4-0.1
			c0.8,0.3,1.6,0.4,1.7-0.2C539.2,52.8,540.8,50.7,539.2,50.8"/>
		<path class="st7" d="M549.1,22.5c5.2-0.2,6.5-2.6,6.7-3c0.9-1.4,0.7-3.1-0.6-4.9c-0.8-1-1.7-1.8-2-2.1l-0.5-1.4l-0.2-1.6
			c0.3-0.4,1.1-1.3,1.9-2.4c1.4-2,1.9-3.6,1.6-4.9c-0.1-0.5-0.7-1.2-3.8-1.5c-2-0.2-4.8-0.2-8.1-0.1c-2.5,0.1-5.1,0.3-7.8,0.6
			c-4.5,0.5-8.8,1.2-12,2.1c-3.4,0.9-5.5,1.7-6.1,2.5C518,6.2,518,6.5,518,6.7c0.1,0.2,0.2,0.4,0.4,0.6c0,0,0,0.1,0,0.1
			c0.1,0.4,0.4,0.9,3.3,2c0.9,0.3,1.9,0.6,2.4,0.8l0,0.1l0,0l-0.2,2.2l0.4,0.1l-0.1,0.1l0.6,0.5c0.2,0.1,0.3,0.3,0.5,0.4l1,0.8
			l0-0.1c0.9,0.5,2.1,0.9,3.1,1.3c0.5,0.2,1.1,0.4,1.4,0.5c0.1,0.1,0.2,0.1,0.3,0.2c0,0.1,0.3,1.1,1.9,2.2c2,1.5,5.4,2.6,9.9,3.5
			C545.3,22.4,547.3,22.6,549.1,22.5"/>
		<path class="st5" d="M544.1,0.1c-2.5,0.1-5.2,0.3-7.9,0.7c-4.5,0.5-8.8,1.3-12.1,2.1c-1.6,0.4-3,0.8-4,1.2c-1.2,0.5-2,1-2.4,1.5
			c-0.3,0.4-0.4,0.8-0.3,1.3c0.1,0.3,0.2,0.5,0.4,0.7v0c0.1,0.7,0.8,1.1,1.6,1.5c0.5,0.3,1.2,0.5,2.1,0.9c0.7,0.3,1.5,0.5,2,0.7
			l0,0.3l-0.1,0.6l-0.1,0.6l-0.1,0.5l-0.1,0.1l0.1,0.1l0,0.3l0.5,0.1l0.7,0.5c0,0,0.1,0.1,0.2,0.1l0,0l0.3,0.2c0,0,0.1,0.1,0.1,0.1
			l2.1,1.6l-0.1-0.4c0.8,0.3,1.6,0.6,2.3,0.9c0.5,0.2,1,0.4,1.4,0.5c0,0,0.1,0,0.1,0c0.2,0.5,0.6,1.3,2,2.3
			c2.1,1.5,5.5,2.7,10.1,3.5c2.3,0.4,4.5,0.6,6.3,0.5c2.4-0.1,4.3-0.7,5.7-1.7c0.9-0.7,1.3-1.3,1.5-1.6c0.6-0.9,0.8-1.9,0.5-3
			c-0.2-0.8-0.6-1.6-1.2-2.5c-0.7-1-1.6-1.8-2-2.1l-0.4-1.2l-0.2-1.3c0.4-0.5,1.1-1.3,1.8-2.2c1.5-2.1,2-3.9,1.7-5.3
			c-0.2-1-1.3-1.3-1.7-1.4c-0.6-0.2-1.5-0.4-2.6-0.5C550.2,0,547.4-0.1,544.1,0.1l0,1.1L544.1,0.1 M544.2,1.2
			c6.4-0.3,11.1,0.1,11.3,1.2c0.7,2.6-3.5,6.9-3.5,6.9l0.3,1.9l0.5,1.6c0,0,4.6,3.5,2.6,6.4c0,0-1,2.5-6.3,2.7c-1.6,0.1-3.6,0-6-0.5
			c-10.7-2-11.3-5.3-11.3-5.3s0,0,0,0c0.1,0,0.4-0.1-0.7-0.5c-1.1-0.5-3.2-1.1-4.6-1.9h0l0,0c0,0-0.1,0-0.1-0.1
			c0.2-0.2,0.2-0.4,0.2-0.7c-0.5,0.1-0.8,0.2-0.8,0.3c-0.2-0.1-0.3-0.3-0.5-0.4c0.1-0.1,0.1-0.2,0-0.4c0-0.1-0.1-0.1-0.1-0.2
			c-0.1-0.1-0.2-0.1-0.2-0.1c0,0,0,0-0.1,0c0,0,0,0,0,0c-0.1,0-0.2,0-0.2,0l0.1-0.6l0.1-0.6l0.1-0.5v0l0.1-0.6c0,0-5.7-1.6-5.9-2.5
			c0,0,0.1-0.1,0.3-0.2c-0.4-0.2-0.6-0.4-0.7-0.6c-0.4-1.5,7.6-3.6,17.8-4.8C539.1,1.5,541.8,1.3,544.2,1.2"/>
		<path class="st8" d="M553,12.9c0,0,4.6,3.5,2.6,6.4c0,0-1.6,4.2-12.4,2.2c-10.7-2-11.3-5.3-11.3-5.3s0.6,0-0.6-0.5
			c-1.3-0.6-4.1-1.3-5.4-2.4C524.7,12.2,553,12.9,553,12.9"/>
		<path class="st9" d="M524.7,12.2c24.5,4.7,27.7-0.9,27.7-0.9l0.5,1.6c0,0-1.8,5.7-26.3,1c0,0-1.7-1.3-1.8-1.5L524.7,12.2z"/>
		<path class="st10" d="M552.2,9.4l0.3,1.9c0,0-3,5.7-27.7,0.9l0.2-1.7L552.2,9.4z"/>
		<path class="st11" d="M555,1.7c0,0-29,3.2-35.9,4.3c-1.2,0.2,0,1.3,0,1.4c0.2,0.9,5.9,2.5,5.9,2.5l-0.2,1.1
			c19.1,3.5,27.4-1.6,27.4-1.6s4.2-4.3,3.5-6.9L555,1.7z"/>
		<path class="st12" d="M518.7,5.7c0.2,0.9,4.6,0.9,18.4-0.6c14-1.5,18.1-2.5,17.9-3.4c-0.2-0.9-8.6-1.1-18.6,0.1
			C526.3,2.9,518.5,4.9,518.7,5.7"/>
		<path class="st13" d="M524.8,13c0.4,0.6,1.1,1,1.5,0.8c0.5-0.2,0.5-0.8,0.2-1.5c-0.4-0.6-1.1-1-1.5-0.8
			C524.5,11.7,524.4,12.3,524.8,13"/>
		<path class="st14" d="M524.9,12.6c0.1,0.2,0.3,0.3,0.4,0.2s0.1-0.2,0-0.4c-0.1-0.2-0.3-0.3-0.4-0.2
			C524.8,12.3,524.8,12.4,524.9,12.6"/>
		<polygon class="st11" points="530.3,45.9 530.9,47.2 529.8,48.2 528.1,47.9 527.5,46.6 528.6,45.5 		"/>
		<polygon class="st11" points="527.7,57.6 529.1,56.7 529.8,48.5 528,48.2 525.7,56.1 526.7,57.4 		"/>
	</g>
</g>
</svg>
