<?xml version="1.0" encoding="utf-8"?>
<!-- Generator: Adobe Illustrator 20.1.0, SVG Export Plug-In . SVG Version: 6.00 Build 0)  -->
<svg version="1.1" id="Layer_1" xmlns="http://www.w3.org/2000/svg" xmlns:xlink="http://www.w3.org/1999/xlink" x="0px" y="0px"
	 width="609.1px" height="432.2px" viewBox="0 0 609.1 432.2" style="enable-background:new 0 0 609.1 432.2;" xml:space="preserve"
	>
<style type="text/css">
	.st0{opacity:0.9;fill:#FFFFFF;}
	.st1{fill:#FFFFFF;}
	.st2{fill:#C3C3C2;}
	.st3{fill:none;stroke:#AEAEAE;stroke-miterlimit:10;}
	.st4{fill:none;stroke:#AEAEAE;stroke-width:1.5;stroke-miterlimit:10;}
	.st5{fill:#1E1E1C;}
	.st6{fill:#F8CB00;}
	.st7{fill:#2E353D;}
	.st8{fill:#034356;}
	.st9{fill:#BCBBBB;}
	.st10{fill:#0B6284;}
	.st11{fill:#2096D3;}
	.st12{fill:#126180;}
	.st13{fill:#3D3D3C;}
	.st14{fill:#DAD9D8;}
	.st15{opacity:0.85;}
	.st16{opacity:0.8;}
	.st17{fill:none;stroke:#FFFFFF;stroke-linecap:round;stroke-linejoin:round;stroke-miterlimit:10;}
	.st18{opacity:0.8;fill:#FFFFFF;}
	.st19{fill:#2496D3;}
	.st20{opacity:0.65;fill:#2496D3;}
	.st21{fill:#3D3E3D;}
	.st22{fill:none;stroke:#FFFFFF;stroke-width:3.5;stroke-miterlimit:10;}
	.st23{fill:none;stroke:#2496D3;stroke-miterlimit:10;}
	.st24{fill:none;stroke:#2496D3;stroke-width:1.5;stroke-miterlimit:10;}
	.st25{opacity:0.8;fill:#2496D3;}
	.st26{opacity:0.75;}
	.st27{fill:none;stroke:#FFFFFF;stroke-width:2.5;stroke-miterlimit:10;}
	.st28{fill:none;stroke:#2496D3;stroke-width:0.5;stroke-miterlimit:10;}
	.st29{fill:none;stroke:#2496D3;stroke-width:2.375;stroke-linecap:round;stroke-linejoin:round;stroke-miterlimit:10;}
	.st30{fill:#2D3134;}
	.st31{fill:none;stroke:#000000;stroke-width:3.4954;stroke-miterlimit:10;}
	.st32{fill:#2496D3;stroke:#000000;stroke-width:2.0102;stroke-miterlimit:10;}
	.st33{fill:#2496D3;stroke:#000000;stroke-width:2.0098;stroke-miterlimit:10;}
	.st34{fill:none;stroke:#000000;stroke-width:2;stroke-miterlimit:10;}
	.st35{fill:#2496D3;stroke:#000000;stroke-width:0.9727;stroke-miterlimit:10;}
	.st36{fill:#2496D3;stroke:#000000;stroke-width:1.4055;stroke-miterlimit:10;}
	.st37{fill:#2496D3;stroke:#000000;stroke-width:2;stroke-miterlimit:10;}
	.st38{fill:none;stroke:#000000;stroke-width:4;stroke-linejoin:round;stroke-miterlimit:10;}
	.st39{fill:none;stroke:#000000;stroke-width:3.8779;stroke-linejoin:round;stroke-miterlimit:10;}
</style>
<g>
	<g class="st15">
		<path class="st1" d="M282.5,432.2c-0.2-0.1-0.4-0.2-0.6-0.3 M0,285.4c0.3-2,0.4-2.3,1.5-6.1c0.4-1.4,1.8-2.2,3.2-1.8
			c1.4,0.4,2.2,1.8,1.8,3.2c-1,3.5-0.9,2.7-1.2,4.7H0z M9.2,266.4c-0.1,0-0.1-0.1-0.2-0.1c-1.3-0.6-1.8-2.2-1.1-3.5
			c1.3-2.6,2.8-5.2,4.4-7.7c0.8-1.2,2.4-1.5,3.5-0.8c1.2,0.8,1.5,2.4,0.8,3.5c-1.5,2.3-2.9,4.7-4.1,7.2
			C11.9,266.4,10.4,266.9,9.2,266.4z M24.2,245.7c-0.3-0.1-0.6-0.3-0.9-0.6c-1-1-1-2.6,0-3.6c2.1-2.1,4.4-4,6.7-5.8
			c1.1-0.9,2.7-0.7,3.6,0.5c0.9,1.1,0.7,2.7-0.5,3.6c-2.2,1.7-4.3,3.5-6.2,5.4C26.2,245.9,25.1,246,24.2,245.7z M45.3,231.3
			c-0.6-0.2-1.1-0.7-1.4-1.3c-0.6-1.3,0-2.8,1.3-3.4c2.6-1.2,5.4-2.2,8.2-3.2c1.4-0.4,2.8,0.3,3.2,1.7c0.4,1.4-0.3,2.8-1.7,3.2
			c-2.7,0.9-5.3,1.8-7.7,3C46.6,231.5,45.9,231.5,45.3,231.3z M184,283.2c-0.5-0.2-0.9-0.5-1.2-1c-1.5-2.5-3.1-4.9-4.6-7.1
			c-0.8-1.2-0.5-2.8,0.7-3.6c1.2-0.8,2.8-0.5,3.6,0.7c1.5,2.3,3.1,4.7,4.7,7.3c0.8,1.2,0.4,2.8-0.8,3.5
			C185.6,283.4,184.8,283.5,184,283.2z M70,224.6c-0.8-0.3-1.5-1.1-1.6-2.1c-0.2-1.4,0.8-2.7,2.2-2.9c2.8-0.3,5.8-0.6,8.7-0.7
			c1.4-0.1,2.6,1,2.7,2.5c0.1,1.4-1,2.6-2.5,2.7c-2.8,0.1-5.6,0.3-8.3,0.7C70.8,224.8,70.4,224.8,70,224.6z M169.2,262.2
			c-0.4-0.2-0.7-0.4-1-0.8c-1.8-2.2-3.7-4.4-5.5-6.4c-1-1-0.9-2.7,0.2-3.6c1-1,2.7-0.9,3.6,0.2c1.9,2.1,3.8,4.3,5.7,6.6
			c0.9,1.1,0.7,2.7-0.4,3.6C171.1,262.4,170.1,262.5,169.2,262.2z M95.6,224.4c-1-0.4-1.7-1.5-1.6-2.6c0.1-1.4,1.4-2.5,2.8-2.3
			c2.8,0.3,5.7,0.6,8.6,1c1.4,0.2,2.4,1.5,2.2,2.9c-0.2,1.4-1.5,2.4-2.9,2.2c-2.8-0.4-5.6-0.7-8.4-1
			C96.1,224.6,95.8,224.5,95.6,224.4z M151.2,244c-0.2-0.1-0.4-0.2-0.6-0.4c-2.2-1.8-4.5-3.4-6.7-4.9c-1.2-0.8-1.5-2.4-0.8-3.6
			c0.8-1.2,2.4-1.5,3.6-0.8c2.4,1.6,4.8,3.3,7.1,5.2c1.1,0.9,1.3,2.5,0.4,3.6C153.4,244.2,152.2,244.4,151.2,244z M522.6,279.7
			c-1.2-0.5-1.8-1.7-1.5-3c0.7-2.8,1.3-5.5,2-8.3c0.3-1.4,1.7-2.2,3.1-1.9c1.4,0.3,2.2,1.7,1.9,3.1c-0.7,2.8-1.3,5.6-2,8.3
			c-0.3,1.4-1.7,2.2-3.1,1.9C522.9,279.8,522.7,279.7,522.6,279.7z M528.5,254.7c-1.1-0.5-1.8-1.7-1.5-2.9c0.6-2.8,1.2-5.6,1.9-8.3
			c0.3-1.4,1.7-2.3,3.1-2c1.4,0.3,2.3,1.7,2,3.1c-0.6,2.8-1.2,5.6-1.9,8.4c-0.3,1.4-1.7,2.3-3.1,1.9
			C528.8,254.8,528.6,254.7,528.5,254.7z M534,229.6c-1.1-0.5-1.8-1.7-1.5-2.9c0.6-2.8,1.2-5.6,1.8-8.4c0.3-1.4,1.7-2.3,3-2
			c1.4,0.3,2.3,1.7,2,3c-0.6,2.8-1.2,5.6-1.8,8.4c-0.3,1.4-1.7,2.3-3.1,2C534.3,229.7,534.2,229.6,534,229.6z M539.4,204.4
			c-1.1-0.5-1.8-1.7-1.5-2.9l1.8-8.4c0.3-1.4,1.7-2.3,3-2c1.4,0.3,2.3,1.7,2,3l-1.8,8.4c-0.3,1.4-1.7,2.3-3,2
			C539.7,204.5,539.5,204.4,539.4,204.4z"/>
		<path class="st1" d="M304.5,334.2c-0.2-0.1-0.4-0.2-0.6-0.3 M544.6,181.7c-1.2-0.5-1.8-1.7-1.5-3c0.7-2.8,1.3-5.5,2-8.3
			c0.3-1.4,1.7-2.2,3.1-1.9c1.4,0.3,2.2,1.7,1.9,3.1c-0.7,2.8-1.3,5.6-2,8.3c-0.3,1.4-1.7,2.2-3.1,1.9
			C544.9,181.8,544.7,181.7,544.6,181.7z M550.5,156.7c-1.1-0.5-1.8-1.7-1.5-2.9c0.6-2.8,1.2-5.6,1.9-8.3c0.3-1.4,1.7-2.3,3.1-2
			c1.4,0.3,2.3,1.7,2,3.1c-0.6,2.8-1.2,5.6-1.9,8.4c-0.3,1.4-1.7,2.3-3.1,1.9C550.8,156.8,550.6,156.7,550.5,156.7z M556,131.6
			c-1.1-0.5-1.8-1.7-1.5-2.9c0.6-2.8,1.2-5.6,1.8-8.4c0.3-1.4,1.7-2.3,3-2c1.4,0.3,2.3,1.7,2,3c-0.6,2.8-1.2,5.6-1.8,8.4
			c-0.3,1.4-1.7,2.3-3.1,2C556.3,131.7,556.2,131.6,556,131.6z M561.4,106.4c-1.1-0.5-1.8-1.7-1.5-2.9l1.8-8.4c0.3-1.4,1.7-2.3,3-2
			c1.4,0.3,2.3,1.7,2,3l-1.8,8.4c-0.3,1.4-1.7,2.3-3,2C561.7,106.5,561.5,106.4,561.4,106.4z"/>
		<path class="st1" d="M121.1,228.2c-0.9-0.6-1.3-1.8-0.9-2.9c0.5-1.3,1.9-2.1,3.3-1.6c2.7,0.9,5.4,1.9,8.2,3c1.3,0.5,2,2,1.4,3.3
			c-0.5,1.3-2,2-3.3,1.4c-2.7-1.1-5.3-2-7.9-2.9C121.5,228.4,121.3,228.3,121.1,228.2z"/>
	</g>
	<g>
		<path class="st5" d="M548.2,47.8c0,0-1.3-3.5-8.6-2.4c-7.2,1-7.4,3.4-7.3,4.3c0.1,0.9,2.3,3.5,6.4,1.5c1.6-0.7,1.8-0.8,1.3,0
			c-0.5,0.8-1.5,1.4-2.4,1.9c-1.1,0.5-2.3,2.9,0,3.6c2.8,0.4,4.1-0.9,4.8-1.8c0.7-1,1.4-1.1,2.2-1c0.7,0.1,2.2,0.1,3-1.1"/>
		<path class="st1" d="M547.6,48c0,0-1.2-3.1-7.9-2.1c-6.7,1-7,3-6.9,3.9c0.1,0.8,2.4,2.7,6.2,0.8c1.4-0.7,2-0.4,1.6,0.4
			c-0.5,0.8-1.4,1.8-2.4,2.3c-1,0.5-2.4,2.4-0.2,3c2.7,0.4,3.6-1,4.3-1.9c0.7-0.9,1.3-1,2-0.9c0.7,0.1,2.1,0.4,2.8-0.8"/>
		<path class="st5" d="M569.5,39.8c-5.3-4.5-3.6-15.1,3.6-23.7c7.3-8.6,16.4-13,22.7-7.5c5.2,4.5,3.9,15.2-3.4,23.8
			C585.2,41.1,574.8,44.3,569.5,39.8"/>
		<path class="st6" d="M567.7,41.1c-4.7-4-0.5-16.3,6.1-24.1c6.6-7.8,15.2-11.7,20.8-6.8c4.6,4,3.3,13.7-3.3,21.5
			C584.8,39.4,572.4,45,567.7,41.1"/>
		<path class="st5" d="M568.3,40.6c0,0,15.7-10.9,32.3,1.7c14.6,12.4,8.1,27.7-1.6,33c-9.7,5.3-45.1,10.8-45.3-12.8
			C557,39.6,563.9,43.1,568.3,40.6"/>
		<path class="st6" d="M585,70.6c0,0,7.6-6.5,6.8-16.6c-0.9-10.2-9.2-15.6-11-16.2c-0.7-0.7,0.8-0.5,1.5-0.5
			c0.6,0.1,4.4,1.5,6.5,3.5c2,2,10.1,8.7,7.4,21.2c-1.5,7.3-8.4,12.9-12.5,14.8C582.4,75,580.3,74,585,70.6"/>
		<path class="st5" d="M560,41.9c-3.4,5.6-13.8,5.4-23.3-0.3c-9.5-5.7-15.3-13.7-11.1-20.4c3.4-5.5,13.9-5.7,23.4,0.1
			C558.5,26.9,563.3,36.3,560,41.9"/>
		<path class="st6" d="M558.7,41.1c-3.1,5.1-12.7,5-21.5-0.3c-8.8-5.3-14.1-12.7-10.3-18.9c3.2-5.1,12.8-5.2,21.6,0.1
			C557.3,27.3,561.8,36,558.7,41.1"/>
		<path class="st6" d="M556.6,57.1c0,0-4.4,7.5,0.7,11.2c5.1,3.7,11.5,6.8,22.9,0.2c11.4-6.6,8.6-25.8-5-29.8
			c-5.7,1.7-6.3,2.8-6.6,3.3C568.3,42.6,556.6,57.1,556.6,57.1"/>
		<path class="st6" d="M567.2,76.1c0,0,9,0.4,14.7-3.4c4-2.3,9.8-4.3,5,1.6c-1.7,2.1-7.4,5.8-17.7,3.5
			C566.5,77.1,565.6,76.2,567.2,76.1"/>
		<path class="st6" d="M590.3,75.6c0,0,7.4-3.3,9.1-12.3c1.9-9.6,1.5-16-5.7-20.9c-2.5-1.7-2.7-1.4-3.6-2.3c-1.6-1.7-1.1-2-0.1-1.9
			c1.6,0.2,2.4,1,4.2,1.6c1.9,0.7,6,4,7.5,7.5c1.2,2.8,3.4,10-0.6,20.7c-2.2,4.7-3.5,5.9-4.9,6.8c-1.7,1.1-2.2,1.3-4.1,1.8
			C590.6,77.1,587.4,77.8,590.3,75.6"/>
		<path class="st6" d="M605.1,50.9c0,0,1.7,3.7,0.4,11.6c-1,3.7-1.5,5.8-2.9,7.7c-0.7,1-0.6,2.4,1.6-0.5c2.2-3,4.2-6.4,3.7-13.4
			C606.9,49.2,603.7,46.6,605.1,50.9"/>
		<path class="st5" d="M582.5,55.8c-0.9,6.9-7.5,11.7-14.9,10.8C553,64.8,554.1,49.5,555,42.6c0.5-3.8,2.3-2.9,5.5-4.9
			c2.5-1.5,2.1,0.8,5.3,1.2C573.2,39.8,583.7,46.4,582.5,55.8"/>
		<path class="st6" d="M560.6,60.7c0.8-1.5,3.1-1.8,5.2-0.7c2.1,1.1,3.2,3.2,2.5,4.7c-0.8,1.5-3.1,1.8-5.2,0.7
			C560.9,64.3,559.8,62.2,560.6,60.7"/>
		<path class="st5" d="M561,63.3c0,0,0.4,0.6-0.3,2.2c-0.8,1.6-2.1,4.6-4.2,2.3c-2.1-2.3-0.2,9.4-0.2,9.4l4.7,1.1l1,0.5
			c0,0,0.4-1.7,1.3-2.3c0.9-0.9,0.9-3.3,0.5-4.3c-0.4-0.9,1-5.8,2.8-6.8"/>
		<path class="st5" d="M568.5,19.2c-1,0.2-1.5-0.4-1.7-2c-0.2-1.2-0.4-6.1-4.1-7.8l0,0c-2-0.9-4-1.1-5.7-0.9c0.2-1.3,0.8-3,2.2-3.7
			c0.2,0.1,0.3,0.2,0.5,0.3c1.6,0.6,3.3,0.5,3.9-1.1c0.6-1.6-1.7-0.3-3.3-1c-1.6-0.6-3.1-2.3-3.7-0.7c-0.4,1,1.1,0.8,1.7,1.7
			c-0.8,0.5-2.7,2-3.4,5c-2,0.6-3.3,1.5-3.5,1.6c-0.5,0.3-1.3,0.4-2.4,0.1c-0.4-0.2-1-0.4-1.5-0.5c0.2-0.8,0.5-1.5,1.2-2
			c0.2,0.1,0.3,0.1,0.5,0.1c1.3,0.2,2.5-0.7,2.6-2c0.2-1.3-0.7-2.5-2-2.6c-1.3-0.2-2.5,0.7-2.6,2c-0.1,0.7,0.1,1.4,0.6,1.8
			c-0.3,0.3-1.1,1.1-1.6,2.5c-0.7,0-1.3,0-1.9,0.2c-0.6,0.1-0.7-0.1-1-0.3c-1.2-0.7-3.3-1-5.1,0.2c1.1,0.1,2.4,0.2,3.3,1.6
			c-0.9-0.6-3,0-4.3,1.2c3.5-0.2,3.8,1.6,3.4,2.3c-0.2,0.4-0.3,0.9-0.4,1.4c-1.2,5.3-0.6,9.1-2.2,11.6c0,0-8.9,3.8-8.6,9.2
			c0.7,4.1,7.6,6.9,14.5,7.8c7,0.9,29.7-0.8,34.8-19C579.1,23,577,17.9,568.5,19.2"/>
		<path class="st6" d="M538.3,29.7c0,0-8.5,2.8-8.2,7.7c0.7,3.7,7,6.3,13.4,7.1c6.5,0.8,26.9-0.2,32.4-17.8c1.4-5-2.5-7.5-13.4-1.9
			c-1.2,0.2-1.3-0.9-1.1-2.4c0.2-1.5,0.2-10.3-5.6-10.5c-6.5,0.3-6.6,4.3-7,5.9c-0.4,1.6-1.2,7.6-1.2,7.6s-0.4-6.8-1.4-9.2
			c-1.2-2.2-4.6-2.5-5.6,2.3C539.5,23.3,540,29,538.3,29.7"/>
		<path class="st5" d="M557.7,24.9c-0.3,2.6-2.5,4.8-4.3,4.5c-1.9-0.2-3.5-2.9-3.2-5.5c0.3-2.6,1.6-7.3,3.5-7.1
			C556,17.2,558,22.3,557.7,24.9"/>
		<path class="st5" d="M540.1,36.7c0,0,3.6,8.8,14.3,1.8c0.4,1.6,2.1,4.8,4.6,3c2.5-1.8,3.4-5,3.5-10.4c0-1.6,1-1.7,1.7-1.5
			c0.8,0.2,2.1-0.3,0.1-1.4c-1.7-0.8-4.1-0.1-4.5,0.9c-0.3,0.8,0.2,0.6,0.6,0.6c0.3,0,0.5,0.4-0.1,1.1S549.7,45.5,540.1,36.7"/>
		<path class="st1" d="M559.9,33l-3.7,3.5c0,0-0.7,0.6-0.6,1.6c0.1,0.9,0.6,0.8,1.8,0.1c1.3-0.8,3.2-2.1,3.2-2.1s0.7-0.3,0.5-2.4
			C560.9,31.8,560.3,32.7,559.9,33"/>
		<path class="st1" d="M559.1,37.9c-0.1,0-2,1.3-2,1.3s-1.1,0.7-0.6,1.6c0.4,0.7,1.4,1.1,2.3,0.3c0.9-0.8,1.6-1.9,1.6-2.6
			C560.5,37.8,559.9,37.3,559.1,37.9"/>
		<path class="st1" d="M557.1,24.6c-0.3,2.3-2,3.9-3.6,3.7c-1.6-0.2-3-2.2-2.8-4.5c0.3-2.3,1.4-6.3,3-6.1
			C555.7,18,557.4,22.4,557.1,24.6"/>
		<path class="st5" d="M553,26.1c-0.1,0.8-0.5,1.4-1.2,1.4c-0.7-0.1-1.5-1.5-1.4-2.4c0.1-0.8,0.7-1.6,1.5-1.6
			C553.1,23.6,553.1,25.3,553,26.1"/>
		<path class="st5" d="M546.7,26.6c-0.3,2.6-2.1,4.8-3.6,4.6c-1.5-0.2-2.7-2.8-2.4-5.4c0.3-2.6,1.5-7.3,3-7.1
			C545.5,19,547,24,546.7,26.6"/>
		<path class="st1" d="M546.2,26.4c-0.3,2.3-1.7,3.9-3,3.8c-1.3-0.2-2.4-2.1-2.1-4.4c0.3-2.3,1.3-6.3,2.6-6.2
			C545.3,19.8,546.5,24.1,546.2,26.4"/>
		<path class="st5" d="M543,27c-0.1,0.8-0.6,2.3-1.1,2.3c-0.6-0.1-1.1-2.4-1-3.2c0.1-0.8,0.4-1.7,1.2-1.6
			C543.2,24.6,543.2,26.2,543,27"/>
		<path class="st5" d="M551.1,31.6c-0.3,2.3-2.9,3.9-5.9,3.6c-2.9-0.4-5.1-2.6-4.8-4.9c0.3-2.3,2.9-3.9,5.9-3.6
			C549.3,27,551.4,29.2,551.1,31.6"/>
		<path class="st1" d="M572,43.4c1.4-0.2,2.7,1.1,3,2.9c0.3,1.8-0.6,3.4-2,3.6c-1.4,0.2-2.7-1.1-3-2.9
			C569.8,45.2,570.6,43.6,572,43.4"/>
		<path class="st6" d="M557.9,70c1.1-0.9,3.1-0.4,4.4,1.2c1.3,1.6,1.4,3.7,0.3,4.6c-1.1,0.9-3.1,0.4-4.4-1.2
			C556.8,73,556.7,70.9,557.9,70"/>
		<path class="st6" d="M580.5,55.5c1.2,0.9,1.2,3.1-0.1,4.9c-1.3,1.9-3.4,2.7-4.6,1.8c-1.2-0.9-1.2-3.1,0.1-4.9
			C577.2,55.5,579.3,54.7,580.5,55.5"/>
		<path class="st5" d="M578.8,43.7c-0.5,1.7-4.1,0.8-4.5,0.7c-0.2-0.1-0.4-0.2-0.6-0.2c-1-0.1-1.9,0.7-2,1.9
			c-0.1,1.1,0.6,2.1,1.6,2.2c0.6,0.1,1.1-0.2,1.5-0.7c0.8-0.6,3-0.2,2.9,0.4c-0.1,0.7,3.2,0.8,3.2,0.8S579.3,42,578.8,43.7"/>
		<path class="st5" d="M561.1,61.6c0.6-1.2,2.5-1.4,4.2-0.6c1.7,0.9,2.6,2.5,2,3.7c-0.6,1.2-2.5,1.4-4.2,0.6
			C561.3,64.5,560.5,62.8,561.1,61.6"/>
		<path class="st5" d="M580.6,56.6c1,0.7,1,2.4,0,3.9c-1,1.5-2.7,2.1-3.6,1.4c-1-0.7-1-2.4,0-3.9C577.9,56.5,579.6,55.9,580.6,56.6"
			/>
		<path class="st5" d="M581.1,57.3c0,0,2.3,2.9,4.5,2.4c1.2-0.4,1.3,0.6,0.7,1.5c-0.7,0.9-1.6,2.8-2.1,3c-0.6,0.2-0.8,1.4-1.4-0.1
			c-0.6-1-2.7-2.4-3.6-2.4c-1.3,0-2-1.5-1.6-2C577.8,59.2,578.2,57,581.1,57.3"/>
		<path class="st5" d="M583.6,66c-1.4-1.2-1.3-3.4,0.1-5.1c1.4-1.6,3.6-2,5-0.9c1.4,1.2,1.3,3.4-0.1,5.1
			C587.2,66.8,585,67.1,583.6,66"/>
		<path class="st6" d="M584.1,65.4c-1.1-1-1.1-2.8,0-4.2c1.2-1.3,3-1.7,4.1-0.7c1.1,1,1.1,2.8,0,4.2C587,66.1,585.2,66.4,584.1,65.4
			"/>
		<path class="st5" d="M586.8,73c0,0-5.6-10.5,5.6-21.8c2.6-2.2,6.4-1.9,4.7,2c-0.5,0.8,0.3,0.1,0.7-0.4c0.4-0.4,1.7-0.6,2,1
			c0.3,1.6-0.1,5.2-5.2,10.8c-2.4,2.1-3.1,2-2.7,3C592.4,69,590,78,586.8,73"/>
		<path class="st6" d="M587.3,72.4c0,0-5.1-9.7,5.4-20.5c2.5-2.1,5.4-2.4,3.4,2c0,0.4,1,0.2,1.4-0.1c0.4-0.3,1.6-1.2,1.8,0.2
			c0.2,1.5-0.3,4.9-5.1,10.2c-2.3,2-3.1,1.9-2.8,2.9C591.7,68.2,589.7,77.4,587.3,72.4"/>
		<path class="st5" d="M580,41.8c1.5,0.2,2.5,2.1,2.2,4.2c-0.3,2.2-1.7,3.8-3.2,3.6c-1.5-0.2-2.5-2.1-2.2-4.2
			C577,43.2,578.5,41.6,580,41.8"/>
		<path class="st1" d="M580,42.3c1.3,0.2,2.2,1.8,1.9,3.8c-0.2,1.9-1.5,3.3-2.8,3.2c-1.3-0.2-2.2-1.8-1.9-3.8
			C577.5,43.6,578.7,42.2,580,42.3"/>
		<path class="st5" d="M580.2,42.8c0,0,5.7-3.9,7.6-6.5c1.9-2.6,3.9-2.8,4.6-0.6c0.4,2.1-1.5,4-1.3,3.8c0.2-0.2,2.9-1.6,3.4,1
			c-0.1,2.2-3.7,5.3-3.7,5.3s0.5-0.9,2.1-0.7c1.6,0.3,2.1,1.7,1.2,2.4c-0.9,0.7-3,2.6-3.4,2.9c-0.3,0.3-2.6,1.5-4.4,1.3
			c-1.8-0.3-4.6-0.8-5.2-0.9c-1.2-0.3-2.1-2.4-2.2-2.7C578.7,47.7,577.7,43.1,580.2,42.8"/>
		<path class="st1" d="M580.9,43.3c0,0,5.4-3.9,7.1-6.2c1.7-2.4,3.2-2.9,3.9-1c0.4,1.9-2.4,4.9-3,5.6c-0.6,0.7-1.1,1.6-0.5,1.4
			c0.7-0.2,2.6-2.9,2.8-3.1c0.3-0.5,2.9-1.4,2.8,0.7c-0.1,2-3.5,4.9-3.5,4.9l-1,1c0,0-0.4,0.9,0.5,0.3c0.8-0.6,1.4-1.5,2.9-1.3
			c1.5,0.2,1.6,1.2,0.8,1.8c-0.8,0.6-2.6,2.2-3,2.6c-0.2,0.2-2.4,1.7-4,1.5c-1.6-0.2-4.6-1.1-5-1.3c-1.4-0.5-1.9-2.2-2-2.5
			C579.5,47.3,578.6,43.6,580.9,43.3"/>
		<path class="st5" d="M585.6,44.5c0,0,1-2.7-1.3-2.8c-0.9,0.1-1.3,0.3-1.1-1.1c0.2-1.4-2.6-3.9-3.8-2.1c-1.2,1.8-0.9,4.3-1.1,5.4
			c-0.2,1.1,0.6,2.9,2.4,3.2"/>
		<path class="st1" d="M586,44.7c0,0,0.5-2.7-1.6-2.7c-0.8,0.1-1.6,0.2-1.5-1.1c0.2-1.3-2.1-3.5-3.2-1.8c-1.1,1.7-0.8,4.1-0.9,5.1
			c-0.2,1,0.5,2.8,2.2,3.1"/>
		<path class="st5" d="M556.5,47.9c0.9-0.1,1.8,0.7,2,1.9c0.2,1.2-0.4,2.3-1.4,2.5c-0.9,0.1-1.8-0.7-2-1.9
			C554.9,49.2,555.5,48.1,556.5,47.9"/>
		<path class="st5" d="M551.1,61.6c0,0,6.4,6.1,10.2,12.7c1.7,3.6,1.1,5.7-1,6.3c-2,0.6-5,0.4-5.7-2.1c-0.1-1.4-0.4-2.1-2.1-2.1
			c-1.7,0-5.9-0.1-8.3-3.2c-2.4-3.1-2.2-5.8-1.2-7.1c0.4-0.5,0.9-0.7,1.1-1.2c0.2-0.6,0-1.6,0.2-2.5
			C544.4,60.9,545.3,57.1,551.1,61.6"/>
		<path class="st6" d="M551,62.3c0,0,5.9,6,9.5,12.2c1.6,3.4,1.4,5-0.6,5.6c-1.9,0.6-4.2,0.4-4.8-2.1c-0.1-1.3-0.6-2.3-2.2-2.2
			c-1.6,0-5.7,0.2-8-2.8c-2.3-3-2.1-5.3-1.3-6.5c0.5-0.7,1.3-0.3,1.5-0.8c0.2-0.6-0.5-1.6-0.3-2.8C544.9,61.4,545.5,57.9,551,62.3"
			/>
		<path class="st5" d="M548.1,47.7c1.9-0.3,3.6,1.1,3.9,3.1c0.3,2-1,3.8-2.9,4.1c-1.9,0.3-3.6-1.1-3.9-3.1
			C544.9,49.8,546.2,48,548.1,47.7"/>
		<path class="st1" d="M548.3,48.1c1.6-0.2,3.2,1,3.4,2.7c0.3,1.8-0.8,3.4-2.5,3.6c-1.6,0.2-3.2-1-3.4-2.7
			C545.6,50,546.7,48.3,548.3,48.1"/>
		<path class="st5" d="M549.8,48.9c1-0.1,1.9,0.6,2.1,1.8c0.2,1.1-0.5,2.2-1.5,2.3c-1,0.2-1.9-0.6-2.1-1.8
			C548.2,50.1,548.9,49,549.8,48.9"/>
		<path class="st5" d="M550.3,48.9c0,0,3.4,0.4,5.6-0.7c1.7,0.1,1.6,2.8,1.2,3.1c-0.4,0.3-0.7,0.8-1.2,0.5c-0.5-0.3-3.1-0.4-3.9-0.1
			c-0.8,0.3-1.5,0.4-1.6-0.2C550.3,50.8,548.8,48.7,550.3,48.9"/>
		<path class="st7" d="M540.7,21.6c-5-0.2-6.3-2.5-6.5-2.9c-0.9-1.3-0.7-3,0.6-4.7c0.7-1,1.6-1.8,2-2l0.5-1.3l0.2-1.6
			c-0.3-0.4-1.1-1.2-1.8-2.3c-1.3-1.9-1.8-3.5-1.5-4.7c0.1-0.5,0.7-1.1,3.7-1.4c2-0.2,4.6-0.2,7.8-0.1c2.4,0.1,4.9,0.3,7.5,0.6
			c4.3,0.5,8.4,1.2,11.6,2c3.3,0.8,5.3,1.6,5.8,2.4c0.2,0.3,0.2,0.6,0.2,0.8c-0.1,0.2-0.2,0.4-0.4,0.6c0,0,0,0.1,0,0.1
			C570.2,7.5,569.9,8,567,9c-0.9,0.3-1.8,0.6-2.3,0.7l0,0.1l0,0L565,12l-0.4,0.1l0.1,0.1l-0.6,0.5c-0.2,0.1-0.3,0.3-0.5,0.4l-1,0.8
			l0-0.1c-0.9,0.5-2,0.9-3,1.2c-0.5,0.2-1,0.4-1.3,0.5c-0.1,0.1-0.2,0.1-0.3,0.1c0,0.1-0.2,1-1.8,2.1c-2,1.4-5.2,2.5-9.5,3.3
			C544.5,21.5,542.5,21.7,540.7,21.6"/>
		<path class="st5" d="M545.5,0.1l0,1L545.5,0.1c-3.1-0.1-5.8-0.1-7.8,0.1c-1,0.1-1.9,0.3-2.5,0.5c-0.3,0.1-1.4,0.4-1.6,1.4
			c-0.3,1.3,0.2,3,1.6,5.1c0.6,0.9,1.3,1.7,1.7,2.2l-0.2,1.3l-0.4,1.2c-0.4,0.3-1.2,1.1-1.9,2c-0.6,0.8-1,1.6-1.1,2.4
			c-0.2,1,0,2,0.5,2.9c0.1,0.3,0.5,0.9,1.4,1.6c1.3,1,3.2,1.5,5.5,1.6c1.8,0.1,3.8-0.1,6-0.5c4.4-0.8,7.7-2,9.7-3.4
			c1.3-0.9,1.8-1.7,1.9-2.2c0,0,0.1,0,0.1,0c0.3-0.1,0.8-0.3,1.3-0.5c0.7-0.2,1.4-0.5,2.2-0.8l-0.1,0.4l2-1.5c0,0,0.1-0.1,0.1-0.1
			l0.2-0.2l0,0c0.1,0,0.1-0.1,0.2-0.1l0.6-0.5l0.5-0.1l0-0.3l0.1-0.1l-0.1-0.1l-0.1-0.5l-0.1-0.6l-0.1-0.6l0-0.3
			c0.5-0.2,1.2-0.4,1.9-0.6c0.8-0.3,1.5-0.6,2-0.8c0.7-0.3,1.4-0.8,1.5-1.4v0c0.2-0.2,0.3-0.4,0.4-0.7c0.1-0.4,0-0.8-0.2-1.2
			c-0.4-0.5-1.1-1-2.3-1.5c-1-0.4-2.3-0.8-3.9-1.2c-3.2-0.8-7.3-1.5-11.6-2C550.5,0.4,547.9,0.2,545.5,0.1 M545.5,1.1
			c2.3,0.1,4.8,0.3,7.5,0.6c9.8,1.1,17.5,3.2,17.1,4.6c-0.1,0.2-0.3,0.4-0.7,0.6c0.2,0.1,0.3,0.1,0.3,0.2c-0.2,0.9-5.6,2.4-5.6,2.4
			l0.1,0.6v0l0.1,0.5l0.1,0.6l0.1,0.6c-0.1,0-0.2,0-0.2,0c0,0,0,0,0,0c0,0,0,0-0.1,0c-0.1,0-0.2,0-0.2,0.1c0,0-0.1,0.1-0.1,0.1
			c-0.1,0.2-0.1,0.3,0,0.4c-0.2,0.1-0.3,0.3-0.5,0.4c0-0.1-0.3-0.2-0.8-0.3c0,0.3,0,0.6,0.2,0.7c-0.1,0.1-0.1,0.1-0.1,0.1l0,0h0
			c-1.3,0.8-3.5,1.4-4.5,1.8c-1,0.5-0.8,0.5-0.6,0.5c0,0,0,0,0,0s-0.6,3.2-10.9,5.1c-2.4,0.4-4.3,0.6-5.8,0.5
			c-5.1-0.2-6.1-2.6-6.1-2.6c-1.9-2.8,2.5-6.2,2.5-6.2l0.5-1.5l0.3-1.8c0,0-4-4.2-3.4-6.7C534.8,1.2,539.3,0.8,545.5,1.1"/>
		<path class="st8" d="M537.1,12.4c0,0-4.4,3.3-2.5,6.2c0,0,1.6,4.1,11.9,2.2c10.3-1.9,10.9-5.1,10.9-5.1s-0.6,0,0.6-0.5
			c1.2-0.5,4-1.3,5.2-2.3C564.2,11.7,537.1,12.4,537.1,12.4"/>
		<path class="st9" d="M564.2,11.7c-23.6,4.6-26.7-0.9-26.7-0.9l-0.5,1.5c0,0,1.7,5.5,25.3,0.9c0,0,1.7-1.3,1.8-1.4L564.2,11.7z"/>
		<path class="st10" d="M537.8,9l-0.3,1.8c0,0,2.9,5.5,26.7,0.9l-0.2-1.7L537.8,9z"/>
		<path class="st11" d="M535.1,1.7c0,0,27.8,3.1,34.5,4.1c1.2,0.2,0,1.2,0,1.3c-0.2,0.9-5.6,2.4-5.6,2.4l0.2,1.1
			C545.8,13.9,537.8,9,537.8,9s-4-4.2-3.4-6.7L535.1,1.7z"/>
		<path class="st12" d="M570,5.5c-0.2,0.9-4.4,0.8-17.7-0.6c-13.5-1.5-17.4-2.4-17.2-3.3c0.2-0.9,8.3-1,17.9,0.1
			C562.7,2.8,570.2,4.7,570,5.5"/>
		<path class="st13" d="M564.2,12.5c-0.4,0.6-1,1-1.5,0.8c-0.4-0.2-0.5-0.8-0.1-1.4c0.4-0.6,1-1,1.5-0.8
			C564.5,11.2,564.5,11.9,564.2,12.5"/>
		<path class="st14" d="M564,12.1c-0.1,0.2-0.3,0.3-0.4,0.2c-0.1,0-0.1-0.2,0-0.4c0.1-0.2,0.3-0.3,0.4-0.2
			C564.1,11.8,564.1,12,564,12.1"/>
		<polygon class="st11" points="558.9,44.1 558.3,45.4 559.3,46.4 561,46 561.6,44.8 560.5,43.8 		"/>
		<polygon class="st11" points="561.4,55.4 560,54.5 559.4,46.7 561,46.3 563.3,53.9 562.3,55.2 		"/>
	</g>
</g>
</svg>
