<?xml version="1.0" encoding="utf-8"?>
<!-- Generator: Adobe Illustrator 20.1.0, SVG Export Plug-In . SVG Version: 6.00 Build 0)  -->
<svg version="1.1" id="Layer_1" xmlns="http://www.w3.org/2000/svg" xmlns:xlink="http://www.w3.org/1999/xlink" x="0px" y="0px"
	 width="1231.1px" height="380.3px" viewBox="0 0 1231.1 380.3" style="enable-background:new 0 0 1231.1 380.3;"
	 xml:space="preserve">
<style type="text/css">
	.st0{opacity:0.9;fill:#FFFFFF;}
	.st1{fill:#FFFFFF;}
	.st2{fill:#C3C3C2;}
	.st3{fill:none;stroke:#AEAEAE;stroke-miterlimit:10;}
	.st4{fill:none;stroke:#AEAEAE;stroke-width:1.5;stroke-miterlimit:10;}
	.st5{fill:#1E1E1C;}
	.st6{fill:#F8CB00;}
	.st7{fill:#2E353D;}
	.st8{fill:#034356;}
	.st9{fill:#BCBBBB;}
	.st10{fill:#0B6284;}
	.st11{fill:#2096D3;}
	.st12{fill:#126180;}
	.st13{fill:#3D3D3C;}
	.st14{fill:#DAD9D8;}
	.st15{opacity:0.85;}
	.st16{opacity:0.8;}
	.st17{fill:none;stroke:#FFFFFF;stroke-linecap:round;stroke-linejoin:round;stroke-miterlimit:10;}
	.st18{opacity:0.8;fill:#FFFFFF;}
	.st19{fill:#2496D3;}
	.st20{opacity:0.65;fill:#2496D3;}
	.st21{fill:#3D3E3D;}
	.st22{fill:none;stroke:#FFFFFF;stroke-width:3.5;stroke-miterlimit:10;}
	.st23{fill:none;stroke:#2496D3;stroke-miterlimit:10;}
	.st24{fill:none;stroke:#2496D3;stroke-width:1.5;stroke-miterlimit:10;}
	.st25{opacity:0.8;fill:#2496D3;}
	.st26{opacity:0.75;}
	.st27{fill:none;stroke:#FFFFFF;stroke-width:2.5;stroke-miterlimit:10;}
	.st28{fill:none;stroke:#2496D3;stroke-width:0.5;stroke-miterlimit:10;}
	.st29{fill:none;stroke:#2496D3;stroke-width:2.375;stroke-linecap:round;stroke-linejoin:round;stroke-miterlimit:10;}
	.st30{fill:#2D3134;}
	.st31{fill:none;stroke:#000000;stroke-width:3.4954;stroke-miterlimit:10;}
	.st32{fill:#2496D3;stroke:#000000;stroke-width:2.0102;stroke-miterlimit:10;}
	.st33{fill:#2496D3;stroke:#000000;stroke-width:2.0098;stroke-miterlimit:10;}
	.st34{fill:none;stroke:#000000;stroke-width:2;stroke-miterlimit:10;}
	.st35{fill:#2496D3;stroke:#000000;stroke-width:0.9727;stroke-miterlimit:10;}
	.st36{fill:#2496D3;stroke:#000000;stroke-width:1.4055;stroke-miterlimit:10;}
	.st37{fill:#2496D3;stroke:#000000;stroke-width:2;stroke-miterlimit:10;}
	.st38{fill:none;stroke:#000000;stroke-width:4;stroke-linejoin:round;stroke-miterlimit:10;}
	.st39{fill:none;stroke:#000000;stroke-width:3.8779;stroke-linejoin:round;stroke-miterlimit:10;}
</style>
<g>
	<g class="st15">
		<path class="st1" d="M2.1,380.3c-1.3-0.1-2.2-1.3-2.1-2.6c0.3-2.6,0.5-5.2,0.8-7.8c0.1-1.3,1.3-2.2,2.6-2.1
			c1.3,0.1,2.2,1.3,2.1,2.6c-0.3,2.6-0.5,5.1-0.8,7.7c-0.1,1.2-1.1,2.1-2.3,2.1C2.3,380.3,2.2,380.3,2.1,380.3z M4.7,357.1
			c-1.3-0.2-2.2-1.4-2-2.6c0.4-2.6,0.7-5.2,1.1-7.8c0.2-1.3,1.4-2.2,2.7-2c1.3,0.2,2.2,1.4,2,2.7c-0.4,2.5-0.8,5.1-1.1,7.7
			c-0.2,1.2-1.2,2-2.3,2C5,357.1,4.8,357.1,4.7,357.1z M8.4,333.9c-1.3-0.2-2.1-1.5-1.9-2.7c0.5-2.6,1-5.2,1.5-7.7
			c0.3-1.3,1.5-2.1,2.8-1.8c1.3,0.3,2.1,1.5,1.8,2.8c-0.5,2.5-1,5.1-1.5,7.6c-0.2,1.1-1.2,1.9-2.3,1.9C8.7,334,8.5,334,8.4,333.9z
			 M13.1,311c-1.3-0.3-2-1.6-1.7-2.8c0.6-2.6,1.3-5.1,1.9-7.6c0.3-1.3,1.6-2,2.9-1.7c1.3,0.3,2,1.6,1.7,2.9c-0.7,2.5-1.3,5-1.9,7.5
			c-0.3,1.1-1.2,1.8-2.3,1.8C13.5,311.1,13.3,311.1,13.1,311z M19.2,288.4c-1.2-0.4-1.9-1.7-1.5-2.9c0.8-2.5,1.6-5,2.4-7.5
			c0.4-1.2,1.7-1.9,3-1.5c1.2,0.4,1.9,1.7,1.5,3c-0.8,2.4-1.6,4.9-2.4,7.4c-0.3,1-1.2,1.7-2.2,1.7C19.7,288.5,19.4,288.5,19.2,288.4
			z M797.1,282.3c-1.3,0-2.3-1.1-2.3-2.4c0-1.3,1.1-2.7,2.3-2.7c0,0,0,0,0,0c2.6,0,5.2,0,7.7,0c0,0,0,0,0,0c1.3,0,2.3,1.5,2.3,2.7
			c0,1.3-1,3-2.3,3c-1.4,0-2.7-0.1-4.1-0.1C799.6,282.8,798.4,282.3,797.1,282.3z M781.4,282c-2.6-0.2-5.2-0.4-7.8-0.6
			c-1.3-0.1-2.2-1.3-2.1-2.6c0.1-1.3,1.3-2.2,2.6-2.1c2.6,0.2,5.2,0.5,7.7,0.6c1.3,0.1,2.3,1.2,2.2,2.5c-0.1,1.2-1.1,2.2-2.3,2.2
			C781.5,282,781.4,282,781.4,282z M818.2,279.8c-0.1-1.3,0.9-2.4,2.1-2.5c2.6-0.2,5.2-0.5,7.7-0.8c1.3-0.1,2.4,0.8,2.6,2.1
			s-0.8,2.4-2.1,2.6c-2.6,0.3-5.2,0.6-7.8,0.8c-0.1,0-0.1,0-0.2,0C819.3,281.9,818.3,281,818.2,279.8z M757.9,279.5
			c-2.6-0.4-5.1-0.8-7.8-1.2c-1.3-0.2-2.1-1.4-1.9-2.7c0.2-1.3,1.4-2.1,2.7-1.9c2.6,0.4,5.1,0.8,7.7,1.2c1.3,0.2,2.2,1.4,2,2.6
			c-0.2,1.2-1.2,2-2.3,2C758.1,279.5,758,279.5,757.9,279.5z M841.4,276.9c-0.2-1.3,0.6-2.5,1.9-2.7c2.5-0.5,5.1-1,7.5-1.6
			c1.3-0.3,2.5,0.5,2.8,1.7c0.3,1.3-0.5,2.5-1.7,2.8c-2.5,0.6-5.1,1.2-7.7,1.7c-0.1,0-0.3,0-0.4,0
			C842.6,278.8,841.6,278,841.4,276.9z M734.7,275.5c-2.5-0.5-5.1-1.1-7.7-1.6c-1.3-0.3-2.1-1.5-1.8-2.8c0.3-1.3,1.5-2.1,2.8-1.8
			c2.6,0.6,5.1,1.1,7.6,1.6c1.3,0.3,2.1,1.5,1.8,2.8c-0.2,1.1-1.2,1.9-2.3,1.9C735,275.5,734.9,275.5,734.7,275.5z M864.1,271.3
			c-0.4-1.2,0.3-2.6,1.5-3c2.2-0.7,4.3-1.5,6.4-2.3c-0.1-0.3-0.1-0.7-0.1-1.1c0.2-1.3,1.4-2.1,2.7-1.9c2.5,0.4,5.1,0.8,7.6,1.1
			c1.3,0.2,2.2,1.3,2,2.6c-0.2,1.3-1.3,2.2-2.6,2c-1.9-0.2-3.8-0.5-5.7-0.8c0,0.9-0.6,1.8-1.5,2.1c-2.4,0.9-4.9,1.8-7.4,2.7
			c-0.2,0.1-0.5,0.1-0.7,0.1C865.3,272.9,864.4,272.3,864.1,271.3z M918.6,267.6c0-1.3,1-1.9,2.3-1.9c2.6-0.1,5.2-0.1,7.7-0.2
			c1.3-0.1,2.4,0.9,2.5,2.2c0.1,1.3-0.9,1.8-2.2,1.9c-2.6,0.1-5.3-0.4-7.9-0.4c0,0,0,0-0.1,0C919.6,269.1,918.6,268.9,918.6,267.6z
			 M905.2,269.1c-2.7,0-5.3,0.5-7.9,0.4c-1.3-0.1-2.3-0.7-2.2-2c0.1-1.3,1.2-2.2,2.5-2.1c2.5,0.2,5.1,0.3,7.7,0.3
			c1.3,0,2.3,0.5,2.3,1.8C907.6,268.8,906.5,269.1,905.2,269.1C905.3,269.1,905.2,269.1,905.2,269.1z M711.8,270.1
			c-2.5-0.7-5-1.3-7.6-2c-1.2-0.3-2-1.6-1.6-2.9c0.3-1.2,1.6-2,2.9-1.6c2.5,0.7,5,1.4,7.5,2c1.3,0.3,2,1.6,1.7,2.9
			c-0.3,1.1-1.2,1.8-2.3,1.8C712.2,270.2,712,270.2,711.8,270.1z M941.9,267.1c-0.1-1.3,0.8-2.4,2.1-2.6c2.6-0.2,5.1-0.5,7.7-0.8
			c1.3-0.2,2.4,0.8,2.6,2.1c0.2,1.3-0.8,2.4-2.1,2.6c-2.6,0.3-5.2,0.6-7.8,0.8c-0.1,0-0.2,0-0.2,0
			C943.1,269.2,942.1,268.3,941.9,267.1z M26.7,266.3c-1.2-0.5-1.8-1.8-1.3-3c1-2.5,1.9-4.9,2.9-7.3c0.5-1.2,1.9-1.8,3.1-1.3
			c1.2,0.5,1.8,1.9,1.3,3.1c-1,2.4-1.9,4.8-2.9,7.2c-0.4,0.9-1.2,1.5-2.2,1.5C27.2,266.4,27,266.4,26.7,266.3z M965.2,264.3
			c-0.2-1.3,0.7-2.5,1.9-2.7c2.6-0.4,5.1-0.8,7.7-1.3c1.3-0.2,2.5,0.6,2.7,1.9c0.2,1.3-0.6,2.5-1.9,2.7c-2.6,0.5-5.2,0.9-7.7,1.3
			c-0.1,0-0.2,0-0.4,0C966.4,266.3,965.4,265.4,965.2,264.3z M858.4,264.4c-2.6-0.6-5.1-1.3-7.6-2.1c-1.2-0.4-2-1.7-1.6-2.9
			c0.4-1.2,1.7-2,2.9-1.6c2.4,0.7,4.9,1.4,7.4,2c1.3,0.3,2,1.6,1.7,2.8c-0.3,1.1-1.2,1.8-2.3,1.8
			C858.7,264.5,858.5,264.5,858.4,264.4z M885.8,262.6c-0.6-1.2-0.1-2.6,1-3.1c2.3-1.1,4.6-2.4,6.8-3.6c1.1-0.6,2.6-0.3,3.2,0.9
			c0.6,1.1,0.3,2.6-0.9,3.2c-2.3,1.3-4.6,2.6-7,3.8c-0.3,0.2-0.7,0.3-1.1,0.3C887,263.9,886.2,263.5,885.8,262.6z M689.2,263.6
			c-2.5-0.8-5-1.6-7.5-2.4c-1.2-0.4-1.9-1.7-1.5-3c0.4-1.2,1.7-1.9,3-1.5c2.5,0.8,5,1.6,7.4,2.4c1.2,0.4,1.9,1.7,1.5,2.9
			c-0.3,1-1.2,1.6-2.2,1.6C689.6,263.7,689.4,263.7,689.2,263.6z M988.3,260.1c-0.3-1.3,0.5-2.5,1.8-2.8c2.5-0.5,5.1-1.1,7.6-1.7
			c1.3-0.3,2.5,0.5,2.8,1.8c0.3,1.3-0.5,2.5-1.8,2.8c-2.6,0.6-5.1,1.1-7.7,1.7c-0.2,0-0.3,0.1-0.5,0.1
			C989.5,262,988.5,261.2,988.3,260.1z M835.8,257.2c-2.5-1-4.9-2-7.3-3.1c-1.2-0.5-1.7-1.9-1.2-3.1c0.5-1.2,1.9-1.7,3.1-1.2
			c2.3,1,4.7,2.1,7.1,3c1.2,0.5,1.8,1.8,1.3,3c-0.4,0.9-1.2,1.5-2.2,1.5C836.3,257.4,836,257.4,835.8,257.2z M1011.1,254.9
			c-0.3-1.3,0.4-2.5,1.7-2.9c2.5-0.6,5-1.3,7.5-2c1.2-0.3,2.5,0.4,2.9,1.6c0.3,1.2-0.4,2.5-1.6,2.9c-2.5,0.7-5.1,1.4-7.6,2
			c-0.2,0.1-0.4,0.1-0.6,0.1C1012.3,256.6,1011.4,255.9,1011.1,254.9z M666.9,256.2c-2.4-0.9-4.9-1.8-7.4-2.7
			c-1.2-0.4-1.8-1.8-1.4-3c0.4-1.2,1.8-1.8,3-1.4c2.5,0.9,4.9,1.8,7.3,2.7c1.2,0.4,1.9,1.8,1.4,3c-0.3,1-1.2,1.6-2.2,1.6
			C667.4,256.3,667.1,256.3,666.9,256.2z M906,250.8c-0.8-1-0.5-2.5,0.5-3.3c2.1-1.5,4.1-3.1,6.1-4.7c1-0.8,2.5-0.7,3.3,0.3
			c0.8,1,0.7,2.5-0.3,3.3c-2,1.7-4.2,3.3-6.3,4.8c-0.4,0.3-0.9,0.4-1.4,0.4C907.1,251.8,906.4,251.5,906,250.8z M1033.7,248.6
			c-0.4-1.2,0.3-2.5,1.6-2.9c2.5-0.7,5-1.5,7.4-2.3c1.2-0.4,2.5,0.3,2.9,1.5c0.4,1.2-0.3,2.5-1.5,2.9c-2.5,0.8-5,1.5-7.5,2.3
			c-0.2,0.1-0.5,0.1-0.7,0.1C1035,250.3,1034,249.7,1033.7,248.6z M644.9,247.9c-2.4-1-4.8-1.9-7.3-2.9c-1.2-0.5-1.8-1.9-1.3-3.1
			c0.5-1.2,1.9-1.8,3.1-1.3c2.4,1,4.8,2,7.2,2.9c1.2,0.5,1.8,1.8,1.3,3c-0.4,0.9-1.2,1.5-2.2,1.5
			C645.4,248.1,645.2,248.1,644.9,247.9z M814.4,246.9c-2.3-1.3-4.5-2.7-6.7-4.2c-1.1-0.7-1.4-2.2-0.7-3.2c0.7-1.1,2.2-1.4,3.2-0.7
			c2.1,1.4,4.3,2.8,6.5,4.1c1.1,0.7,1.5,2.1,0.8,3.2c-0.4,0.7-1.2,1.2-2,1.2C815.2,247.2,814.8,247.1,814.4,246.9z M35.8,244.7
			c-1.2-0.6-1.7-2-1.1-3.1c1.1-2.4,2.3-4.8,3.5-7c0.6-1.2,2-1.6,3.2-1c1.2,0.6,1.6,2,1,3.2c-1.2,2.3-2.3,4.6-3.4,6.9
			c-0.4,0.8-1.2,1.3-2.1,1.3C36.4,244.9,36.1,244.9,35.8,244.7z M1056.1,241.6c-0.4-1.2,0.2-2.6,1.5-3c2.5-0.8,4.9-1.7,7.3-2.5
			c1.2-0.4,2.6,0.2,3,1.4c0.4,1.2-0.2,2.6-1.4,3c-2.5,0.9-4.9,1.7-7.4,2.5c-0.2,0.1-0.5,0.1-0.8,0.1
			C1057.3,243.2,1056.4,242.6,1056.1,241.6z M623.2,239c-2.4-1-4.8-2.1-7.2-3.1c-1.2-0.5-1.7-1.9-1.2-3.1c0.5-1.2,1.9-1.7,3.1-1.2
			c2.4,1.1,4.8,2.1,7.1,3.1c1.2,0.5,1.7,1.9,1.2,3.1c-0.4,0.9-1.2,1.4-2.2,1.4C623.8,239.1,623.5,239.1,623.2,239z M924,235.9
			c-0.9-0.9-0.9-2.4,0-3.3c1.8-1.8,3.6-3.7,5.2-5.6c0.9-1,2.3-1.1,3.3-0.2c1,0.9,1.1,2.3,0.2,3.3c-1.7,2-3.6,3.9-5.4,5.8
			c-0.5,0.5-1.1,0.7-1.7,0.7C925,236.6,924.4,236.3,924,235.9z M1078.2,233.8c-0.5-1.2,0.2-2.6,1.4-3c2.4-0.9,4.9-1.8,7.3-2.8
			c1.2-0.5,2.6,0.1,3,1.3c0.5,1.2-0.1,2.6-1.3,3c-2.4,0.9-4.9,1.9-7.3,2.8c-0.3,0.1-0.5,0.1-0.8,0.1
			C1079.4,235.3,1078.5,234.8,1078.2,233.8z M794.9,233.3c-2-1.7-4-3.4-6-5.2c-1-0.9-1-2.4-0.1-3.3c0.9-1,2.4-1,3.3-0.1
			c1.9,1.7,3.8,3.4,5.8,5.1c1,0.8,1.1,2.3,0.3,3.3c-0.5,0.6-1.1,0.8-1.8,0.8C795.9,233.8,795.3,233.6,794.9,233.3z M601.8,229.3
			c-2.3-1.1-4.7-2.2-7.1-3.3c-1.2-0.6-1.7-2-1.1-3.1c0.6-1.2,2-1.7,3.1-1.1c2.4,1.1,4.7,2.2,7,3.3c1.2,0.5,1.7,1.9,1.1,3.1
			c-0.4,0.9-1.2,1.4-2.1,1.4C602.4,229.5,602.1,229.5,601.8,229.3z M1100,225.4c-0.5-1.2,0.1-2.6,1.3-3c2.4-1,4.8-2,7.2-3
			c1.2-0.5,2.6,0.1,3.1,1.3c0.5,1.2-0.1,2.6-1.3,3.1c-2.4,1-4.8,2-7.2,3c-0.3,0.1-0.6,0.2-0.9,0.2
			C1101.3,226.8,1100.4,226.3,1100,225.4z M46.6,224c-1.1-0.7-1.5-2.1-0.8-3.2c1.3-2.3,2.7-4.5,4.1-6.7c0.7-1.1,2.1-1.4,3.2-0.7
			c1.1,0.7,1.4,2.1,0.7,3.2c-1.4,2.2-2.7,4.4-4,6.6c-0.4,0.7-1.2,1.1-2,1.1C47.4,224.3,47,224.2,46.6,224z M580.6,219.1
			c-2.3-1.2-4.7-2.3-7-3.5c-1.2-0.6-1.6-2-1-3.1c0.6-1.2,2-1.6,3.1-1c2.3,1.2,4.7,2.3,7,3.5c1.2,0.6,1.6,2,1.1,3.1
			c-0.4,0.8-1.2,1.3-2.1,1.3C581.3,219.4,580.9,219.3,580.6,219.1z M939.3,218.2c-1.1-0.7-1.3-2.2-0.6-3.3c1.5-2.1,2.9-4.2,4.3-6.4
			c0.7-1.1,2.1-1.4,3.2-0.7c1.1,0.7,1.4,2.1,0.7,3.2c-1.4,2.2-2.9,4.4-4.4,6.6c-0.5,0.6-1.2,1-1.9,1
			C940.2,218.7,939.7,218.5,939.3,218.2z M1121.7,216.3c-0.5-1.2,0-2.6,1.2-3.1c2.4-1,4.8-2.1,7.1-3.1c1.2-0.5,2.6,0,3.1,1.2
			c0.5,1.2,0,2.6-1.2,3.1c-2.4,1.1-4.8,2.1-7.2,3.2c-0.3,0.1-0.6,0.2-0.9,0.2C1122.9,217.7,1122.1,217.2,1121.7,216.3z M777.9,216.7
			c-1.7-2-3.4-4-5.1-6.1c-0.8-1-0.6-2.5,0.4-3.3c1-0.8,2.5-0.6,3.3,0.4c1.6,2,3.3,4,4.9,5.9c0.9,1,0.8,2.5-0.2,3.3
			c-0.4,0.4-1,0.6-1.5,0.6C779,217.5,778.3,217.2,777.9,216.7z M559.7,208.4c-2.3-1.2-4.6-2.4-6.9-3.7c-1.1-0.6-1.6-2-1-3.2
			c0.6-1.1,2-1.6,3.2-1c2.3,1.2,4.6,2.5,6.9,3.7c1.1,0.6,1.6,2,1,3.2c-0.4,0.8-1.2,1.3-2.1,1.3C560.4,208.7,560.1,208.6,559.7,208.4
			z M1143.1,206.8c-0.5-1.2,0-2.6,1.1-3.1c2.4-1.1,4.7-2.2,7.1-3.3c1.2-0.5,2.6-0.1,3.1,1.1c0.6,1.2,0.1,2.6-1.1,3.1
			c-2.3,1.1-4.7,2.2-7.1,3.3c-0.3,0.1-0.7,0.2-1,0.2C1144.3,208.1,1143.5,207.6,1143.1,206.8z M59.3,204.3c-1-0.8-1.3-2.2-0.5-3.3
			c1.6-2.1,3.2-4.2,4.8-6.3c0.8-1,2.3-1.2,3.3-0.4c1,0.8,1.2,2.3,0.4,3.3c-1.6,2-3.1,4.1-4.7,6.1c-0.5,0.6-1.2,1-1.9,1
			C60.2,204.8,59.7,204.6,59.3,204.3z M763.3,198c-1.5-2.2-3.1-4.3-4.5-6.5c-0.7-1.1-0.4-2.5,0.6-3.3c1.1-0.7,2.5-0.4,3.3,0.6
			c1.4,2.1,2.9,4.2,4.4,6.4c0.8,1.1,0.5,2.5-0.5,3.3c-0.4,0.3-0.9,0.4-1.4,0.4C764.5,199,763.8,198.7,763.3,198z M951.6,198.3
			c-1.2-0.6-1.6-2-1-3.1c1.1-2.3,2.2-4.6,3.3-7c0.5-1.2,1.9-1.7,3.1-1.2c1.2,0.5,1.7,1.9,1.2,3.1c-1.1,2.4-2.2,4.8-3.4,7.2
			c-0.4,0.8-1.2,1.3-2.1,1.3C952.3,198.6,952,198.5,951.6,198.3z M1164.3,196.7c-0.6-1.2-0.1-2.6,1.1-3.1c2.4-1.2,4.7-2.3,7-3.5
			c1.2-0.6,2.6-0.1,3.1,1c0.6,1.2,0.1,2.6-1,3.1c-2.3,1.2-4.6,2.3-7,3.5c-0.3,0.2-0.7,0.2-1,0.2
			C1165.5,198,1164.7,197.5,1164.3,196.7z M539.1,197.3c-2.3-1.3-4.5-2.5-6.8-3.8c-1.1-0.6-1.5-2.1-0.9-3.2c0.6-1.1,2.1-1.5,3.2-0.9
			c2.3,1.3,4.5,2.5,6.8,3.8c1.1,0.6,1.5,2.1,0.9,3.2c-0.4,0.8-1.2,1.2-2.1,1.2C539.8,197.6,539.4,197.5,539.1,197.3z M1185.2,186.2
			c-0.6-1.1-0.1-2.6,1-3.2c2.4-1.2,4.7-2.4,6.9-3.6c1.1-0.6,2.6-0.2,3.2,1c0.6,1.1,0.2,2.6-1,3.2c-2.3,1.2-4.6,2.4-6.9,3.6
			c-0.3,0.2-0.7,0.3-1.1,0.3C1186.5,187.5,1185.6,187,1185.2,186.2z M73.9,186.1c-1-0.9-1-2.4-0.2-3.3c1.8-1.9,3.6-3.9,5.4-5.7
			c0.9-0.9,2.4-0.9,3.3,0c0.9,0.9,0.9,2.4,0,3.3c-1.8,1.8-3.6,3.7-5.3,5.6c-0.5,0.5-1.1,0.8-1.7,0.8
			C74.9,186.7,74.3,186.5,73.9,186.1z M518.6,185.7c-2.2-1.3-4.5-2.6-6.8-3.9c-1.1-0.7-1.5-2.1-0.8-3.2c0.7-1.1,2.1-1.5,3.2-0.8
			c2.3,1.3,4.5,2.6,6.7,3.9c1.1,0.6,1.5,2.1,0.9,3.2c-0.4,0.8-1.2,1.2-2,1.2C519.4,186,519,185.9,518.6,185.7z M750.4,178.3
			c-1.3-2.3-2.7-4.6-3.9-6.9c-0.6-1.1-0.2-2.6,0.9-3.2c1.1-0.6,2.6-0.2,3.2,0.9c1.2,2.2,2.5,4.5,3.8,6.7c0.7,1.1,0.3,2.6-0.8,3.2
			c-0.4,0.2-0.8,0.3-1.2,0.3C751.7,179.4,750.9,179,750.4,178.3z M960.9,176.8c-1.2-0.4-1.9-1.7-1.5-3c0.8-2.4,1.6-4.9,2.3-7.4
			c0.4-1.2,1.6-2,2.9-1.6c1.2,0.4,2,1.6,1.6,2.9c-0.7,2.5-1.5,5.1-2.3,7.6c-0.3,1-1.2,1.6-2.2,1.6
			C961.4,177,961.1,176.9,960.9,176.8z M1206,175.2c-0.6-1.1-0.2-2.6,0.9-3.2c2.4-1.3,4.6-2.5,6.8-3.8c1.1-0.6,2.6-0.2,3.2,0.9
			c0.6,1.1,0.2,2.6-0.9,3.2c-2.2,1.2-4.5,2.5-6.9,3.8c-0.4,0.2-0.7,0.3-1.1,0.3C1207.2,176.5,1206.4,176,1206,175.2z M498.4,173.8
			l-1.6-1c-0.4-0.2-2.2-1.1-5.2-2.4c-1.2-0.5-1.7-1.9-1.2-3.1c0.5-1.2,1.9-1.7,3.1-1.2c3.5,1.6,5.4,2.5,5.4,2.5l1.8,1.1
			c1.1,0.7,1.5,2.1,0.8,3.2c-0.4,0.7-1.2,1.1-2,1.1C499.2,174.1,498.8,174,498.4,173.8z M90.4,169.5c-0.9-1-0.8-2.5,0.2-3.3
			c2-1.7,4-3.4,6-5.1c1-0.8,2.5-0.7,3.3,0.3c0.8,1,0.7,2.5-0.3,3.3c-2,1.6-4,3.3-5.9,5c-0.4,0.4-1,0.6-1.5,0.6
			C91.5,170.3,90.8,170,90.4,169.5z M477.4,164.1c-2.2-0.9-4.6-1.9-7.2-3c-1.2-0.5-1.8-1.9-1.3-3.1c0.5-1.2,1.9-1.8,3.1-1.3
			c2.6,1.1,5,2.1,7.3,3c1.2,0.5,1.7,1.9,1.2,3.1c-0.4,0.9-1.2,1.4-2.2,1.4C478,164.3,477.7,164.2,477.4,164.1z M739.5,157.3
			c-1.1-2.4-2.1-4.9-3.1-7.3c-0.5-1.2,0.1-2.6,1.3-3c1.2-0.5,2.6,0.1,3,1.3c0.9,2.3,1.9,4.7,3,7.1c0.5,1.2,0,2.6-1.2,3.1
			c-0.3,0.1-0.6,0.2-1,0.2C740.8,158.6,739.9,158.1,739.5,157.3z M108.7,154.9c-0.7-1.1-0.5-2.5,0.6-3.3c2.2-1.5,4.4-3,6.6-4.4
			c1.1-0.7,2.5-0.4,3.2,0.7c0.7,1.1,0.4,2.5-0.7,3.2c-2.2,1.4-4.3,2.8-6.4,4.3c-0.4,0.3-0.9,0.4-1.3,0.4
			C109.9,155.9,109.1,155.6,108.7,154.9z M455.7,155.4c-2.3-0.9-4.8-1.8-7.3-2.7c-1.2-0.4-1.8-1.8-1.4-3c0.4-1.2,1.8-1.8,3-1.4
			c2.5,0.9,5,1.9,7.3,2.8c1.2,0.5,1.8,1.8,1.4,3c-0.4,0.9-1.2,1.5-2.2,1.5C456.3,155.6,456,155.5,455.7,155.4z M967,154.3
			c-1.3-0.2-2.1-1.5-1.9-2.7c0.5-2.5,0.9-5.1,1.2-7.6c0.2-1.3,1.4-2.2,2.6-2c1.3,0.2,2.2,1.4,2,2.6c-0.4,2.6-0.8,5.2-1.3,7.8
			c-0.2,1.1-1.2,1.9-2.3,1.9C967.3,154.3,967.2,154.3,967,154.3z M433.7,147.5c-2.4-0.8-4.9-1.7-7.4-2.5c-1.2-0.4-1.9-1.7-1.5-3
			c0.4-1.2,1.7-1.9,3-1.5c2.5,0.8,5,1.7,7.4,2.5c1.2,0.4,1.9,1.8,1.5,3c-0.3,1-1.2,1.6-2.2,1.6C434.3,147.6,434,147.5,433.7,147.5z
			 M128.5,142.5c-0.6-1.1-0.2-2.6,1-3.2c2.3-1.2,4.7-2.4,7-3.6c1.2-0.6,2.6-0.1,3.1,1.1c0.6,1.2,0.1,2.6-1.1,3.1
			c-2.3,1.1-4.6,2.3-6.9,3.5c-0.4,0.2-0.7,0.3-1.1,0.3C129.7,143.7,128.9,143.3,128.5,142.5z M411.5,140.2c-2.4-0.8-4.9-1.5-7.5-2.2
			c-1.2-0.4-2-1.7-1.6-2.9c0.4-1.2,1.7-2,2.9-1.6c2.5,0.7,5,1.5,7.5,2.3c1.2,0.4,1.9,1.7,1.6,2.9c-0.3,1-1.2,1.7-2.2,1.7
			C412,140.3,411.8,140.3,411.5,140.2z M731.4,135c-0.7-2.6-1.4-5.2-2-7.7c-0.3-1.3,0.5-2.5,1.8-2.8c1.3-0.3,2.5,0.5,2.8,1.8
			c0.5,2.4,1.2,4.9,1.9,7.4c0.4,1.2-0.4,2.5-1.6,2.9c-0.2,0.1-0.4,0.1-0.6,0.1C732.6,136.7,731.7,136,731.4,135z M149.6,132.4
			c-0.5-1.2,0.1-2.6,1.3-3c2.4-1,4.9-1.9,7.3-2.8c1.2-0.4,2.6,0.2,3,1.4c0.4,1.2-0.2,2.6-1.4,3c-2.4,0.9-4.8,1.8-7.2,2.8
			c-0.3,0.1-0.6,0.2-0.9,0.2C150.8,133.9,149.9,133.3,149.6,132.4z M389.1,133.8c-2.5-0.7-5-1.3-7.5-2c-1.3-0.3-2-1.6-1.7-2.9
			c0.3-1.3,1.6-2,2.9-1.7c2.6,0.7,5.1,1.3,7.6,2c1.3,0.3,2,1.6,1.7,2.9c-0.3,1-1.2,1.7-2.3,1.7C389.5,133.8,389.3,133.8,389.1,133.8
			z M970.1,130.5c-1.3-0.1-2.3-1.7-2.2-3c0.1-2.6,0.2-5.3,0.2-7.9c0-1.3,1.1-3.5,2.3-3.5c0,0,0,0,0,0c1.3,0,2.3,2.3,2.3,3.6
			c0,2.6-0.1,6.9-0.2,9.6c-0.1,1.3-1.1,2-2.3,2C970.2,131.3,970.2,130.5,970.1,130.5z M366.4,128.1c-2.5-0.6-5-1.1-7.6-1.7
			c-1.3-0.3-2.1-1.5-1.8-2.8c0.3-1.3,1.5-2.1,2.8-1.8c2.6,0.6,5.1,1.1,7.7,1.7c1.3,0.3,2,1.5,1.8,2.8c-0.2,1.1-1.2,1.8-2.3,1.8
			C366.8,128.2,366.6,128.1,366.4,128.1z M171.6,124.5c-0.4-1.2,0.3-2.5,1.6-2.9c2.5-0.7,5-1.4,7.6-2.1c1.2-0.3,2.5,0.4,2.9,1.7
			c0.3,1.3-0.4,2.5-1.7,2.9c-2.5,0.6-5,1.3-7.5,2.1c-0.2,0.1-0.4,0.1-0.7,0.1C172.8,126.2,171.9,125.5,171.6,124.5z M343.6,123.3
			c-2.5-0.5-5.1-0.9-7.7-1.4c-1.3-0.2-2.1-1.4-1.9-2.7c0.2-1.3,1.4-2.1,2.7-1.9c2.6,0.4,5.2,0.9,7.7,1.4c1.3,0.2,2.1,1.5,1.9,2.7
			c-0.2,1.1-1.2,1.9-2.3,1.9C343.9,123.4,343.7,123.4,343.6,123.3z M194.3,118.8c-0.3-1.3,0.6-2.5,1.8-2.8c2.5-0.5,5.2-1,7.7-1.4
			c1.3-0.2,2.5,0.6,2.7,1.9c0.2,1.3-0.6,2.5-1.9,2.7c-2.6,0.4-5.1,0.9-7.6,1.4c-0.2,0-0.3,0-0.5,0
			C195.5,120.7,194.5,119.9,194.3,118.8z M320.6,119.5c-2.6-0.4-5.1-0.7-7.7-1c-1.3-0.2-2.2-1.3-2-2.6c0.2-1.3,1.3-2.2,2.6-2
			c2.6,0.3,5.2,0.7,7.8,1.1c1.3,0.2,2.2,1.4,2,2.7c-0.2,1.2-1.2,2-2.3,2C320.8,119.5,320.7,119.5,320.6,119.5z M217.4,115
			c-0.1-1.3,0.8-2.4,2.1-2.6c2.6-0.3,5.2-0.6,7.8-0.8c1.3-0.1,2.4,0.8,2.5,2.1c0.1,1.3-0.8,2.4-2.1,2.5c-2.6,0.2-5.1,0.5-7.7,0.8
			c-0.1,0-0.2,0-0.3,0C218.5,117.1,217.5,116.2,217.4,115z M297.4,116.8c-2.6-0.2-5.1-0.5-7.7-0.7c-1.3-0.1-2.3-1.2-2.2-2.5
			c0.1-1.3,1.2-2.3,2.5-2.2c2.6,0.2,5.2,0.4,7.8,0.7c1.3,0.1,2.2,1.3,2.1,2.6c-0.1,1.2-1.1,2.1-2.3,2.1
			C297.5,116.8,297.5,116.8,297.4,116.8z M240.7,111.4c-0.1-1.3,0.9-1.2,2.2-1.2c2.6-0.1,5.2-1.1,7.9-1.1c0,0,0,0,0.1,0
			c1.3,0,2.3,0.9,2.3,2.1c0,1.3-1,2.9-2.3,2.9c-2.6,0.1-5.2-1.1-7.8-1.1c0,0-0.1,0-0.1,0C241.8,113.1,240.8,112.6,240.7,111.4z
			 M274.2,113.1c-2.6,0-5.2,0.8-7.8,0.7c-1.3,0-2.3,0.1-2.3-1.2c0-1.3,1.1-2.6,2.4-2.6c2.6,0.1,5.2-0.3,7.8-0.2
			c1.3,0.1,2.3,0.8,2.2,2.1C276.6,113.2,275.5,113.1,274.2,113.1C274.3,113.1,274.2,113.1,274.2,113.1z M726.9,111.2
			c-0.2-2.7-0.4-6-0.4-8.6c0-1.3,1-3.4,2.3-3.4c0,0,0,0,0,0c1.3,0,2.3,2.1,2.3,3.3c0,2.5,0.2,6,0.4,8.5c0.1,1.3-0.8,2.5-2.1,2.6
			c-0.1,0-0.1,0-0.2,0C728.1,113.7,727.1,112.4,726.9,111.2z M967.5,105.5c-0.2-2.6-0.5-5.1-0.9-7.6c-0.2-1.3,0.7-2.5,2-2.7
			c1.3-0.2,2.5,0.7,2.7,2c0.4,2.6,0.7,5.2,0.9,7.9c0.1,1.3-0.8,2.4-2.1,2.5c-0.1,0-0.1,0-0.2,0C968.6,107.6,967.6,106.7,967.5,105.5
			z M729.4,90.3c-1.3-0.2-2.2-1.4-2-2.6c0.4-2.7,0.9-5.3,1.4-7.9c0.3-1.3,1.5-2.1,2.8-1.8c1.3,0.3,2.1,1.5,1.8,2.8
			c-0.6,2.4-1,4.9-1.4,7.5c-0.2,1.2-1.2,2-2.3,2C729.6,90.3,729.5,90.3,729.4,90.3z M963.5,82.9c-0.7-2.5-1.4-5-2.3-7.3
			c-0.4-1.2,0.2-2.6,1.4-3c1.2-0.4,2.6,0.2,3,1.4c0.9,2.4,1.7,5,2.4,7.6c0.3,1.2-0.4,2.5-1.6,2.9c-0.2,0.1-0.4,0.1-0.6,0.1
			C964.7,84.6,963.7,83.9,963.5,82.9z M735,67.7c-1.2-0.5-1.7-1.9-1.2-3.1c1-2.4,2.2-4.9,3.4-7.2c0.6-1.1,2-1.6,3.2-1
			c1.1,0.6,1.6,2,1,3.2c-1.2,2.2-2.3,4.5-3.3,6.9c-0.4,0.9-1.2,1.4-2.2,1.4C735.6,67.8,735.3,67.8,735,67.7z M955,61.8
			c-0.9-1.6-1.9-3.1-2.8-4.5c-0.4-0.6-0.9-1.2-1.3-1.8c-0.8-1-0.5-2.5,0.5-3.3c1-0.8,2.5-0.5,3.3,0.5c0.5,0.6,0.9,1.3,1.4,1.9
			c1.1,1.5,2.1,3.1,3.1,4.8c0.6,1.1,0.3,2.6-0.9,3.2c-0.4,0.2-0.8,0.3-1.2,0.3C956.2,62.9,955.4,62.5,955,61.8z M746.3,47.2
			c-1-0.8-1.2-2.3-0.4-3.3c1.6-2.1,3.4-4.1,5.2-6.1c0.9-0.9,2.4-1,3.3-0.1c1,0.9,1,2.4,0.1,3.3c-1.7,1.9-3.4,3.8-4.9,5.8
			c-0.5,0.6-1.2,0.9-1.8,0.9C747.3,47.7,746.8,47.6,746.3,47.2z M941.1,43.7c-1.7-1.8-3.6-3.7-5.4-5.4c-0.9-0.9-1-2.4-0.1-3.3
			c0.9-0.9,2.4-1,3.3-0.1c1.9,1.8,3.8,3.7,5.6,5.6c0.9,0.9,0.8,2.4-0.1,3.3c-0.5,0.4-1,0.6-1.6,0.6
			C942.1,44.4,941.5,44.2,941.1,43.7z M762.4,30.3c-0.8-1-0.6-2.5,0.4-3.3c2.1-1.6,4.2-3.2,6.4-4.7c1.1-0.7,2.5-0.5,3.3,0.6
			c0.7,1.1,0.5,2.5-0.6,3.3c-2.1,1.4-4.2,3-6.2,4.5c-0.4,0.3-0.9,0.5-1.5,0.5C763.6,31.2,762.9,30.9,762.4,30.3z M923.8,28.6
			c-2-1.5-4.2-2.9-6.4-4.3c-1.1-0.7-1.4-2.1-0.8-3.2c0.7-1.1,2.1-1.4,3.2-0.8c2.3,1.4,4.5,2.9,6.6,4.4c1.1,0.8,1.3,2.2,0.5,3.3
			c-0.5,0.6-1.2,1-1.9,1C924.7,29,924.2,28.9,923.8,28.6z M781.9,17.4c-0.6-1.2-0.1-2.6,1-3.1c2.3-1.2,4.8-2.3,7.2-3.3
			c1.2-0.5,2.6,0.1,3.1,1.2c0.5,1.2-0.1,2.6-1.2,3.1c-2.4,1-4.7,2.1-7,3.2c-0.3,0.2-0.7,0.2-1,0.2C783.2,18.7,782.3,18.2,781.9,17.4
			z M903.9,17.1c-2.3-1.1-4.7-2.1-7-3c-1.2-0.5-1.8-1.8-1.3-3c0.5-1.2,1.8-1.8,3-1.3c2.5,1,4.9,2,7.3,3.1c1.2,0.5,1.7,1.9,1.1,3.1
			c-0.4,0.9-1.2,1.4-2.1,1.4C904.6,17.3,904.2,17.2,903.9,17.1z M803.6,8.5c-0.4-1.2,0.4-2.5,1.6-2.9c2.5-0.7,5.1-1.4,7.7-2
			c1.3-0.3,2.5,0.5,2.8,1.8c0.3,1.3-0.5,2.5-1.8,2.8c-2.5,0.6-5,1.2-7.4,1.9c-0.2,0.1-0.4,0.1-0.7,0.1
			C804.8,10.2,803.9,9.5,803.6,8.5z M882.3,9.3c-2.4-0.6-4.9-1.2-7.5-1.8c-1.3-0.3-2.1-1.5-1.8-2.8c0.3-1.3,1.5-2.1,2.8-1.8
			c2.6,0.5,5.2,1.2,7.7,1.8c1.2,0.3,2,1.6,1.7,2.9c-0.3,1-1.2,1.7-2.3,1.7C882.7,9.3,882.5,9.3,882.3,9.3z M826.4,3.5
			c-0.2-1.3,0.8-2.5,2-2.6c2.6-0.3,5.3-0.6,7.9-0.7c1.3-0.1,2.4,0.9,2.5,2.2c0.1,1.3-0.9,2.4-2.2,2.5c-2.6,0.2-5.1,0.4-7.6,0.7
			c-0.1,0-0.2,0-0.3,0C827.5,5.6,826.5,4.7,826.4,3.5z M859.7,5.2c-2.5-0.2-5.1-0.4-7.7-0.5c-1.3-0.1-2.3-1.1-2.2-2.4
			c0.1-1.3,1.2-2.3,2.4-2.2c2.6,0.1,5.3,0.3,7.9,0.5c1.3,0.1,2.2,1.3,2.1,2.6c-0.1,1.2-1.1,2.1-2.3,2.1
			C859.8,5.2,859.7,5.2,859.7,5.2z"/>
	</g>
	<g>
		<path class="st5" d="M1209.9,180.7c0,0,1.2-3.1,7.6-2.1c6.4,0.9,6.6,3,6.5,3.8c-0.1,0.8-2.1,3.1-5.6,1.4c-1.4-0.6-1.6-0.7-1.2,0
			c0.4,0.7,1.3,1.2,2.1,1.7c0.9,0.5,2.1,2.5,0,3.2c-2.5,0.4-3.6-0.8-4.3-1.6c-0.6-0.9-1.3-1-1.9-0.9c-0.7,0.1-2,0.1-2.6-1"/>
		<path class="st1" d="M1210.3,180.9c0,0,1.1-2.7,7-1.9c6,0.9,6.2,2.7,6.1,3.4c-0.1,0.7-2.1,2.4-5.5,0.7c-1.3-0.6-1.8-0.4-1.4,0.3
			c0.4,0.7,1.2,1.6,2.1,2c0.9,0.4,2.1,2.1,0.2,2.7c-2.4,0.3-3.2-0.9-3.8-1.7c-0.6-0.8-1.2-0.9-1.8-0.8c-0.6,0.1-1.9,0.3-2.5-0.7"/>
		<path class="st5" d="M1191,173.7c4.7-4,3.2-13.4-3.2-21c-6.5-7.6-14.5-11.5-20.2-6.6c-4.6,4-3.5,13.5,3,21.1
			C1177,174.8,1186.3,177.6,1191,173.7"/>
		<path class="st6" d="M1192.5,174.8c4.1-3.5,0.4-14.5-5.4-21.4c-5.9-6.9-13.5-10.4-18.5-6.1c-4.1,3.6-3,12.1,2.9,19.1
			C1177.4,173.3,1188.4,178.3,1192.5,174.8"/>
		<path class="st5" d="M1192.1,174.4c0,0-13.9-9.7-28.7,1.5c-13,11-7.2,24.6,1.4,29.3c8.6,4.7,40,9.6,40.2-11.4
			C1202,173.5,1196,176.6,1192.1,174.4"/>
		<path class="st6" d="M1177.2,201c0,0-6.8-5.7-6-14.8c0.8-9,8.2-13.8,9.8-14.4c0.6-0.7-0.7-0.5-1.3-0.4c-0.6,0.1-3.9,1.4-5.7,3.1
			c-1.8,1.8-9,7.7-6.6,18.8c1.3,6.4,7.4,11.4,11.1,13.2C1179.5,204.8,1181.4,204,1177.2,201"/>
		<path class="st5" d="M1199.4,175.5c3,4.9,12.2,4.8,20.6-0.3c8.4-5.1,13.6-12.2,9.9-18.1c-3-4.9-12.3-5-20.8,0.1
			C1200.7,162.2,1196.4,170.6,1199.4,175.5"/>
		<path class="st6" d="M1200.6,174.8c2.7,4.5,11.3,4.4,19.1-0.3c7.8-4.7,12.5-11.2,9.1-16.7c-2.8-4.5-11.4-4.6-19.2,0.1
			C1201.8,162.6,1197.8,170.3,1200.6,174.8"/>
		<path class="st6" d="M1202.4,189c0,0,3.9,6.7-0.6,9.9c-4.6,3.3-10.2,6-20.3,0.2c-10.1-5.9-7.6-22.9,4.4-26.4
			c5.1,1.5,5.6,2.5,5.9,3C1192.1,176.1,1202.4,189,1202.4,189"/>
		<path class="st6" d="M1193,205.9c0,0-8,0.3-13-3c-3.5-2.1-8.7-3.8-4.4,1.5c1.5,1.9,6.5,5.2,15.7,3.1
			C1193.6,206.8,1194.4,206,1193,205.9"/>
		<path class="st6" d="M1172.5,205.4c0,0-6.5-2.9-8.1-10.9c-1.7-8.5-1.3-14.2,5-18.5c2.2-1.5,2.4-1.2,3.2-2.1c1.4-1.5,1-1.8,0.1-1.6
			c-1.4,0.2-2.1,0.8-3.7,1.4c-1.6,0.6-5.3,3.6-6.6,6.6c-1.1,2.5-3,8.8,0.5,18.4c2,4.2,3.1,5.2,4.3,6c1.5,1,1.9,1.1,3.7,1.6
			C1172.3,206.7,1175.1,207.3,1172.5,205.4"/>
		<path class="st6" d="M1159.4,183.5c0,0-1.5,3.3-0.4,10.3c0.9,3.2,1.4,5.1,2.6,6.8c0.6,0.9,0.6,2.2-1.4-0.5
			c-2-2.6-3.7-5.7-3.3-11.9C1157.8,182,1160.6,179.7,1159.4,183.5"/>
		<path class="st5" d="M1179.4,187.8c0.8,6.1,6.7,10.3,13.2,9.6c13-1.6,12-15.1,11.2-21.2c-0.4-3.4-2.1-2.6-4.9-4.3
			c-2.3-1.3-1.8,0.7-4.7,1C1187.7,173.7,1178.3,179.5,1179.4,187.8"/>
		<path class="st6" d="M1198.9,192.2c-0.7-1.3-2.8-1.6-4.7-0.7c-1.9,1-2.9,2.8-2.2,4.2c0.7,1.3,2.8,1.6,4.7,0.7
			C1198.6,195.4,1199.6,193.5,1198.9,192.2"/>
		<path class="st5" d="M1198.5,194.5c0,0-0.4,0.5,0.3,1.9c0.7,1.4,1.9,4.1,3.7,2.1c1.9-2,0.2,8.3,0.2,8.3l-4.1,1l-0.9,0.5
			c0,0-0.4-1.5-1.2-2.1c-0.8-0.8-0.8-3-0.5-3.8c0.3-0.8-0.9-5.2-2.5-6"/>
		<path class="st5" d="M1191.9,155.4c0.9,0.2,1.3-0.3,1.5-1.7c0.2-1.1,0.3-5.4,3.7-6.9l0,0c1.8-0.8,3.5-1,5-0.8
			c-0.2-1.2-0.7-2.7-1.9-3.3c-0.1,0.1-0.3,0.2-0.4,0.2c-1.4,0.6-2.9,0.5-3.5-1c-0.6-1.4,1.5-0.3,3-0.8c1.4-0.6,2.7-2.1,3.3-0.6
			c0.4,0.9-1,0.7-1.5,1.5c0.7,0.4,2.4,1.8,3,4.4c1.8,0.5,2.9,1.3,3.1,1.5c0.4,0.2,1.2,0.4,2.1,0.1c0.4-0.2,0.9-0.3,1.3-0.4
			c-0.2-0.7-0.5-1.3-1-1.8c-0.1,0-0.3,0.1-0.4,0.1c-1.1,0.1-2.2-0.7-2.3-1.8c-0.1-1.1,0.7-2.2,1.8-2.3c1.1-0.1,2.2,0.7,2.3,1.8
			c0.1,0.6-0.1,1.2-0.5,1.6c0.3,0.3,1,1,1.5,2.2c0.6,0,1.2,0,1.7,0.1c0.6,0.1,0.6-0.1,0.9-0.2c1.1-0.6,3-0.9,4.6,0.1
			c-1,0.1-2.2,0.2-2.9,1.4c0.8-0.5,2.7,0,3.8,1c-3.1-0.2-3.3,1.4-3,2c0.2,0.4,0.3,0.8,0.4,1.3c1,4.7,0.5,8.1,2,10.3
			c0,0,7.9,3.4,7.6,8.1c-0.6,3.6-6.7,6.1-12.8,6.9c-6.2,0.8-26.3-0.7-30.9-16.8C1182.5,158.8,1184.3,154.2,1191.9,155.4"/>
		<path class="st6" d="M1218.7,164.7c0,0,7.5,2.5,7.3,6.8c-0.6,3.3-6.2,5.6-11.9,6.3c-5.7,0.7-23.9-0.2-28.7-15.8
			c-1.2-4.4,2.3-6.6,11.9-1.7c1,0.2,1.1-0.8,0.9-2.1c-0.2-1.3-0.1-9.1,4.9-9.3c5.8,0.3,5.9,3.8,6.2,5.2c0.4,1.4,1.1,6.8,1.1,6.8
			s0.4-6.1,1.3-8.2c1-2,4.1-2.2,5,2C1217.6,159.1,1217.1,164.1,1218.7,164.7"/>
		<path class="st5" d="M1201.4,160.4c0.3,2.3,2.2,4.2,3.8,4c1.7-0.2,3.1-2.5,2.8-4.9c-0.3-2.3-1.4-6.5-3.1-6.3
			C1202.9,153.6,1201.1,158.1,1201.4,160.4"/>
		<path class="st5" d="M1217.1,170.9c0,0-3.2,7.8-12.7,1.6c-0.3,1.4-1.9,4.3-4.1,2.7c-2.2-1.6-3-4.5-3.1-9.3c0-1.4-0.9-1.5-1.5-1.3
			c-0.7,0.2-1.9-0.3-0.1-1.2c1.5-0.7,3.6-0.1,4,0.8c0.3,0.7-0.2,0.5-0.6,0.5c-0.2,0-0.4,0.4,0.1,1
			C1199.6,166.3,1208.5,178.7,1217.1,170.9"/>
		<path class="st1" d="M1199.5,167.6l3.3,3.1c0,0,0.6,0.6,0.5,1.4c-0.1,0.8-0.6,0.7-1.6,0.1c-1.2-0.7-2.8-1.9-2.8-1.9
			s-0.6-0.3-0.5-2.1C1198.5,166.6,1199.1,167.4,1199.5,167.6"/>
		<path class="st1" d="M1200.2,171.9c0.1,0,1.8,1.1,1.8,1.1s0.9,0.6,0.5,1.4c-0.4,0.6-1.2,0.9-2,0.3c-0.8-0.7-1.4-1.7-1.4-2.3
			C1198.9,171.9,1199.4,171.5,1200.2,171.9"/>
		<path class="st1" d="M1202,160.2c0.3,2,1.8,3.5,3.2,3.3c1.4-0.2,2.7-2,2.4-4c-0.3-2-1.2-5.6-2.7-5.4
			C1203.2,154.3,1201.7,158.2,1202,160.2"/>
		<path class="st5" d="M1205.6,161.5c0.1,0.8,0.5,1.3,1.1,1.2c0.6-0.1,1.4-1.4,1.3-2.1c-0.1-0.8-0.6-1.5-1.3-1.4
			C1205.5,159.3,1205.5,160.8,1205.6,161.5"/>
		<path class="st5" d="M1211.2,162c0.3,2.3,1.9,4.3,3.2,4.1c1.3-0.2,2.4-2.4,2.1-4.8c-0.3-2.3-1.3-6.5-2.6-6.3
			C1212.2,155.2,1210.9,159.6,1211.2,162"/>
		<path class="st1" d="M1211.6,161.7c0.3,2,1.5,3.5,2.6,3.3c1.1-0.1,2.1-1.9,1.9-3.9c-0.3-2-1.1-5.6-2.3-5.5
			C1212.4,155.9,1211.4,159.7,1211.6,161.7"/>
		<path class="st5" d="M1214.4,162.3c0.1,0.8,0.5,2.1,1,2c0.5-0.1,1-2.1,0.9-2.9c-0.1-0.8-0.3-1.5-1.1-1.4
			C1214.3,160.1,1214.3,161.6,1214.4,162.3"/>
		<path class="st5" d="M1207.3,166.4c0.3,2.1,2.6,3.5,5.2,3.2c2.6-0.3,4.5-2.3,4.2-4.4c-0.3-2.1-2.6-3.5-5.2-3.2
			C1208.9,162.3,1207,164.3,1207.3,166.4"/>
		<path class="st1" d="M1188.7,176.9c-1.2-0.2-2.4,1-2.7,2.6c-0.2,1.6,0.6,3,1.8,3.2c1.2,0.2,2.4-1,2.7-2.5
			C1190.7,178.5,1189.9,177,1188.7,176.9"/>
		<path class="st6" d="M1201.3,200.5c-1-0.8-2.8-0.3-3.9,1.1c-1.2,1.4-1.3,3.3-0.3,4.1c1,0.8,2.8,0.3,3.9-1.1
			C1202.2,203.1,1202.3,201.3,1201.3,200.5"/>
		<path class="st6" d="M1181.2,187.6c-1.1,0.8-1,2.7,0.1,4.4c1.2,1.7,3,2.4,4.1,1.6c1.1-0.8,1-2.7-0.1-4.4
			C1184.1,187.6,1182.3,186.9,1181.2,187.6"/>
		<path class="st5" d="M1182.7,177.1c0.4,1.5,3.7,0.7,4,0.7c0.2-0.1,0.3-0.1,0.5-0.2c0.9-0.1,1.7,0.7,1.8,1.7c0.1,1-0.5,1.9-1.4,2
			c-0.5,0.1-1-0.2-1.3-0.6c-0.7-0.5-2.6-0.2-2.6,0.3c0.1,0.6-2.8,0.8-2.8,0.8S1182.3,175.6,1182.7,177.1"/>
		<path class="st5" d="M1198.4,193c-0.5-1-2.2-1.3-3.7-0.5c-1.5,0.8-2.3,2.2-1.7,3.3c0.5,1,2.2,1.3,3.7,0.5
			C1198.2,195.6,1199,194.1,1198.4,193"/>
		<path class="st5" d="M1181.1,188.5c-0.9,0.6-0.9,2.2,0,3.5c0.9,1.3,2.4,1.9,3.2,1.2c0.9-0.6,0.9-2.2,0-3.5
			C1183.5,188.5,1182,187.9,1181.1,188.5"/>
		<path class="st5" d="M1180.7,189.2c0,0-2.1,2.6-4,2.2c-1.1-0.3-1.2,0.5-0.6,1.3c0.6,0.8,1.4,2.5,1.9,2.7c0.5,0.2,0.7,1.2,1.2-0.1
			c0.5-0.9,2.4-2.1,3.2-2.1c1.1,0,1.7-1.4,1.4-1.8C1183.6,190.9,1183.3,188.9,1180.7,189.2"/>
		<path class="st5" d="M1178.4,196.9c1.2-1,1.2-3.1-0.1-4.5c-1.2-1.5-3.2-1.8-4.4-0.8c-1.2,1-1.2,3.1,0.1,4.5
			C1175.2,197.6,1177.2,197.9,1178.4,196.9"/>
		<path class="st6" d="M1178,196.4c1-0.9,1-2.5,0-3.7c-1-1.2-2.7-1.5-3.7-0.6c-1,0.9-1,2.5,0,3.7C1175.4,197,1177,197.3,1178,196.4"
			/>
		<path class="st5" d="M1175.6,203.1c0,0,4.9-9.3-5-19.3c-2.3-2-5.6-1.7-4.2,1.8c0.4,0.7-0.3,0-0.6-0.3c-0.3-0.4-1.5-0.5-1.7,0.8
			c-0.2,1.4,0.1,4.6,4.6,9.6c2.1,1.9,2.7,1.7,2.4,2.7C1170.6,199.6,1172.8,207.6,1175.6,203.1"/>
		<path class="st6" d="M1175.2,202.6c0,0,4.5-8.6-4.8-18.2c-2.2-1.9-4.8-2.1-3,1.8c0,0.4-0.8,0.2-1.2-0.1c-0.3-0.3-1.4-1.1-1.6,0.2
			c-0.2,1.3,0.3,4.3,4.5,9.1c2,1.8,2.7,1.6,2.5,2.6C1171.2,198.9,1173,207,1175.2,202.6"/>
		<path class="st5" d="M1181.7,175.5c-1.3,0.2-2.2,1.8-2,3.8c0.2,1.9,1.5,3.3,2.8,3.2c1.3-0.2,2.2-1.9,2-3.8
			C1184.3,176.7,1183,175.3,1181.7,175.5"/>
		<path class="st1" d="M1181.6,175.9c-1.2,0.1-1.9,1.6-1.7,3.3c0.2,1.7,1.3,3,2.5,2.8c1.2-0.1,1.9-1.6,1.7-3.3
			C1183.9,177,1182.8,175.8,1181.6,175.9"/>
		<path class="st5" d="M1181.5,176.4c0,0-5.1-3.4-6.8-5.7c-1.7-2.3-3.5-2.5-4.1-0.6c-0.4,1.9,1.3,3.5,1.1,3.3
			c-0.2-0.2-2.6-1.5-3,0.9c0.1,2,3.3,4.7,3.3,4.7s-0.4-0.8-1.9-0.6c-1.5,0.2-1.9,1.5-1.1,2.1c0.8,0.6,2.7,2.3,3,2.6
			c0.2,0.2,2.3,1.4,3.9,1.1c1.6-0.2,4.1-0.7,4.6-0.8c1.1-0.3,1.9-2.1,2-2.4C1182.8,180.7,1183.7,176.6,1181.5,176.4"/>
		<path class="st1" d="M1180.9,176.8c0,0-4.8-3.4-6.3-5.5c-1.5-2.1-2.9-2.6-3.4-0.9c-0.3,1.7,2.1,4.3,2.6,4.9c0.5,0.6,1,1.4,0.4,1.3
			c-0.6-0.2-2.3-2.5-2.5-2.7c-0.3-0.4-2.5-1.2-2.5,0.6c0.1,1.8,3.1,4.4,3.1,4.4l0.8,0.9c0,0,0.4,0.8-0.4,0.2
			c-0.8-0.6-1.2-1.4-2.6-1.1c-1.3,0.2-1.4,1.1-0.7,1.6c0.8,0.6,2.3,1.9,2.6,2.3c0.2,0.2,2.1,1.5,3.5,1.3c1.4-0.2,4.1-1,4.5-1.1
			c1.2-0.4,1.7-1.9,1.8-2.2C1182.1,180.3,1182.9,177,1180.9,176.8"/>
		<path class="st5" d="M1176.7,177.8c0,0-0.9-2.4,1.2-2.5c0.8,0.1,1.1,0.3,1-1c-0.2-1.2,2.3-3.5,3.4-1.9c1,1.6,0.8,3.8,1,4.8
			c0.2,0.9-0.5,2.6-2.1,2.9"/>
		<path class="st1" d="M1176.4,178c0,0-0.5-2.4,1.4-2.4c0.7,0.1,1.5,0.2,1.3-1c-0.1-1.2,1.9-3.1,2.8-1.6c1,1.5,0.7,3.6,0.8,4.5
			c0.2,0.9-0.5,2.5-1.9,2.7"/>
		<path class="st5" d="M1202.5,180.9c-0.8-0.1-1.6,0.6-1.8,1.7c-0.2,1.1,0.4,2.1,1.2,2.2c0.8,0.1,1.6-0.6,1.8-1.7
			C1203.9,182,1203.4,181,1202.5,180.9"/>
		<path class="st5" d="M1207.3,193c0,0-5.7,5.4-9,11.3c-1.5,3.2-0.9,5.1,0.9,5.6c1.8,0.5,4.5,0.4,5-1.9c0.1-1.3,0.3-1.9,1.9-1.8
			c1.5,0,5.2,0,7.4-2.8c2.1-2.8,1.9-5.1,1.1-6.3c-0.3-0.4-0.8-0.6-1-1.1c-0.2-0.6,0-1.4-0.1-2.2C1213.2,192.4,1212.4,189,1207.3,193
			"/>
		<path class="st6" d="M1207.4,193.6c0,0-5.2,5.3-8.4,10.9c-1.4,3-1.2,4.4,0.5,5c1.7,0.5,3.7,0.3,4.3-1.8c0.1-1.2,0.5-2,2-2
			c1.5,0,5.1,0.2,7.1-2.4c2-2.6,1.9-4.7,1.1-5.8c-0.5-0.7-1.2-0.2-1.3-0.7c-0.1-0.5,0.4-1.4,0.3-2.5
			C1212.8,192.8,1212.3,189.8,1207.4,193.6"/>
		<path class="st5" d="M1210,180.7c-1.7-0.3-3.2,1-3.5,2.7c-0.3,1.8,0.9,3.4,2.5,3.6c1.7,0.3,3.2-1,3.5-2.7
			C1212.8,182.5,1211.6,180.9,1210,180.7"/>
		<path class="st1" d="M1209.7,181c-1.4-0.2-2.8,0.9-3,2.4c-0.2,1.6,0.7,3,2.2,3.2c1.4,0.2,2.8-0.9,3-2.4
			C1212.2,182.7,1211.2,181.2,1209.7,181"/>
		<path class="st5" d="M1208.4,181.7c-0.9-0.1-1.7,0.6-1.9,1.6c-0.2,1,0.4,1.9,1.3,2.1c0.9,0.1,1.7-0.6,1.9-1.6
			C1209.9,182.8,1209.3,181.8,1208.4,181.7"/>
		<path class="st5" d="M1208,181.7c0,0-3,0.4-5-0.6c-1.5,0.1-1.4,2.5-1.1,2.7c0.3,0.2,0.6,0.8,1.1,0.4c0.4-0.3,2.8-0.4,3.4-0.1
			c0.7,0.3,1.3,0.4,1.4-0.2C1208,183.4,1209.4,181.6,1208,181.7"/>
		<path class="st7" d="M1216.5,157.5c4.4-0.2,5.6-2.2,5.8-2.6c0.8-1.2,0.6-2.6-0.5-4.2c-0.7-0.9-1.4-1.6-1.7-1.8l-0.4-1.2l-0.2-1.4
			c0.3-0.3,1-1.1,1.6-2c1.2-1.7,1.6-3.1,1.4-4.2c-0.1-0.5-0.6-1-3.3-1.3c-1.7-0.2-4.1-0.2-6.9-0.1c-2.1,0.1-4.4,0.3-6.7,0.6
			c-3.8,0.4-7.5,1.1-10.3,1.8c-2.9,0.7-4.7,1.5-5.2,2.2c-0.2,0.3-0.2,0.6-0.2,0.7c0,0.2,0.2,0.3,0.3,0.5c0,0,0,0.1,0,0.1
			c0.1,0.4,0.4,0.8,2.9,1.7c0.8,0.3,1.6,0.5,2.1,0.7l0,0.1l0,0l-0.2,1.9l0.3,0.1l-0.1,0.1l0.5,0.4c0.1,0.1,0.3,0.2,0.4,0.3l0.9,0.7
			l0-0.1c0.8,0.4,1.8,0.8,2.6,1.1c0.5,0.2,0.9,0.3,1.2,0.5c0.1,0.1,0.2,0.1,0.3,0.1c0,0.1,0.2,0.9,1.6,1.9c1.7,1.2,4.6,2.2,8.4,2.9
			C1213.2,157.4,1214.9,157.6,1216.5,157.5"/>
		<path class="st5" d="M1212.2,138.4c-2.1,0.1-4.4,0.3-6.7,0.6c-3.8,0.4-7.5,1.1-10.3,1.8c-1.4,0.3-2.5,0.7-3.4,1
			c-1.1,0.4-1.7,0.8-2,1.3c-0.2,0.3-0.3,0.7-0.2,1.1c0.1,0.2,0.2,0.4,0.3,0.6v0c0.1,0.6,0.7,1,1.3,1.3c0.5,0.2,1.1,0.5,1.8,0.7
			c0.6,0.2,1.3,0.4,1.7,0.6l0,0.2l-0.1,0.5l-0.1,0.5l0,0.4l-0.1,0.1l0.1,0.1l0,0.2l0.4,0.1l0.6,0.5c0,0,0.1,0.1,0.1,0.1l0,0l0.2,0.2
			c0,0,0.1,0,0.1,0.1l1.8,1.4l0-0.3c0.6,0.3,1.3,0.5,1.9,0.7c0.5,0.2,0.9,0.3,1.2,0.4c0,0,0.1,0,0.1,0c0.1,0.4,0.6,1.1,1.7,1.9
			c1.8,1.3,4.7,2.3,8.6,3c2,0.4,3.8,0.5,5.4,0.4c2.1-0.1,3.7-0.6,4.9-1.4c0.8-0.6,1.1-1.1,1.2-1.4c0.5-0.8,0.7-1.6,0.5-2.5
			c-0.1-0.7-0.5-1.4-1-2.1c-0.6-0.8-1.4-1.5-1.7-1.8l-0.3-1l-0.2-1.1c0.3-0.4,0.9-1.1,1.5-1.9c1.3-1.8,1.7-3.3,1.4-4.5
			c-0.2-0.8-1.1-1.1-1.4-1.2c-0.5-0.2-1.3-0.3-2.2-0.4C1217.4,138.3,1215,138.3,1212.2,138.4l0,0.9L1212.2,138.4 M1212.3,139.3
			c5.5-0.3,9.4,0.1,9.7,1c0.6,2.2-3,5.9-3,5.9l0.2,1.6l0.5,1.4c0,0,3.9,3,2.2,5.5c0,0-0.8,2.1-5.4,2.3c-1.4,0.1-3.1,0-5.2-0.4
			c-9.1-1.7-9.7-4.5-9.7-4.5s0,0,0,0c0.1,0,0.3-0.1-0.6-0.5c-0.9-0.4-2.8-0.9-4-1.6h0l0,0c0,0,0,0-0.1-0.1c0.1-0.1,0.2-0.4,0.2-0.6
			c-0.5,0.1-0.7,0.1-0.7,0.2c-0.1-0.1-0.3-0.2-0.4-0.3c0.1-0.1,0.1-0.2,0-0.3c0-0.1-0.1-0.1-0.1-0.1c-0.1-0.1-0.1-0.1-0.2-0.1
			c0,0,0,0,0,0c0,0,0,0,0,0c-0.1,0-0.1,0-0.2,0l0.1-0.5l0.1-0.5l0.1-0.5v0l0.1-0.5c0,0-4.9-1.3-5-2.1c0,0,0.1-0.1,0.3-0.1
			c-0.3-0.1-0.5-0.3-0.6-0.5c-0.3-1.3,6.5-3.1,15.2-4.1C1208,139.6,1210.2,139.4,1212.3,139.3"/>
		<path class="st8" d="M1219.7,149.3c0,0,3.9,3,2.2,5.5c0,0-1.4,3.6-10.5,1.9c-9.1-1.7-9.7-4.5-9.7-4.5s0.5,0-0.5-0.5
			c-1.1-0.5-3.5-1.1-4.6-2.1C1195.6,148.7,1219.7,149.3,1219.7,149.3"/>
		<path class="st9" d="M1195.6,148.7c20.9,4,23.6-0.8,23.6-0.8l0.5,1.4c0,0-1.5,4.9-22.4,0.8c0,0-1.5-1.1-1.6-1.3L1195.6,148.7z"/>
		<path class="st10" d="M1219.1,146.3l0.2,1.6c0,0-2.5,4.9-23.6,0.8l0.2-1.5L1219.1,146.3z"/>
		<path class="st11" d="M1221.5,139.8c0,0-24.7,2.7-30.6,3.7c-1,0.2,0,1.1,0,1.2c0.2,0.8,5,2.1,5,2.1l-0.2,1
			c16.3,3,23.4-1.4,23.4-1.4s3.6-3.7,3-5.9L1221.5,139.8z"/>
		<path class="st12" d="M1190.5,143.2c0.2,0.8,3.9,0.8,15.7-0.5c11.9-1.3,15.5-2.1,15.3-2.9c-0.2-0.8-7.3-0.9-15.9,0.1
			C1197,140.8,1190.3,142.5,1190.5,143.2"/>
		<path class="st13" d="M1195.7,149.4c0.3,0.5,0.9,0.9,1.3,0.7c0.4-0.1,0.5-0.7,0.1-1.3c-0.3-0.5-0.9-0.9-1.3-0.7
			C1195.4,148.3,1195.4,148.9,1195.7,149.4"/>
		<path class="st14" d="M1195.8,149.1c0.1,0.2,0.3,0.2,0.4,0.2s0.1-0.2,0-0.3c-0.1-0.2-0.3-0.2-0.4-0.2
			C1195.8,148.8,1195.7,149,1195.8,149.1"/>
		<polygon class="st11" points="1200.4,177.5 1200.9,178.6 1200,179.5 1198.5,179.2 1198,178.1 1198.9,177.2 		"/>
		<polygon class="st11" points="1198.2,187.5 1199.4,186.7 1200,179.7 1198.5,179.5 1196.5,186.2 1197.3,187.3 		"/>
	</g>
</g>
</svg>
