<?xml version="1.0" encoding="utf-8"?>
<!-- Generator: Adobe Illustrator 20.1.0, SVG Export Plug-In . SVG Version: 6.00 Build 0)  -->
<svg version="1.1" id="Layer_1" xmlns="http://www.w3.org/2000/svg" xmlns:xlink="http://www.w3.org/1999/xlink" x="0px" y="0px"
	 width="194.9px" height="103.9px" viewBox="0 0 194.9 103.9" style="enable-background:new 0 0 194.9 103.9;" xml:space="preserve"
	>
<style type="text/css">
	.st0{opacity:0.9;fill:#FFFFFF;}
	.st1{fill:#FFFFFF;}
	.st2{fill:#C3C3C2;}
	.st3{fill:none;stroke:#AEAEAE;stroke-miterlimit:10;}
	.st4{fill:none;stroke:#AEAEAE;stroke-width:1.5;stroke-miterlimit:10;}
	.st5{fill:#1E1E1C;}
	.st6{fill:#F8CB00;}
	.st7{fill:#2E353D;}
	.st8{fill:#034356;}
	.st9{fill:#BCBBBB;}
	.st10{fill:#0B6284;}
	.st11{fill:#2096D3;}
	.st12{fill:#126180;}
	.st13{fill:#3D3D3C;}
	.st14{fill:#DAD9D8;}
	.st15{opacity:0.85;}
	.st16{opacity:0.8;}
	.st17{fill:none;stroke:#FFFFFF;stroke-linecap:round;stroke-linejoin:round;stroke-miterlimit:10;}
	.st18{opacity:0.8;fill:#FFFFFF;}
	.st19{fill:#2496D3;}
	.st20{opacity:0.65;fill:#2496D3;}
	.st21{fill:#3D3E3D;}
	.st22{fill:none;stroke:#FFFFFF;stroke-width:3.5;stroke-miterlimit:10;}
	.st23{fill:none;stroke:#2496D3;stroke-miterlimit:10;}
	.st24{fill:none;stroke:#2496D3;stroke-width:1.5;stroke-miterlimit:10;}
	.st25{opacity:0.8;fill:#2496D3;}
	.st26{opacity:0.75;}
	.st27{fill:none;stroke:#FFFFFF;stroke-width:2.5;stroke-miterlimit:10;}
	.st28{fill:none;stroke:#2496D3;stroke-width:0.5;stroke-miterlimit:10;}
	.st29{fill:none;stroke:#2496D3;stroke-width:2.375;stroke-linecap:round;stroke-linejoin:round;stroke-miterlimit:10;}
	.st30{fill:#2D3134;}
	.st31{fill:none;stroke:#000000;stroke-width:3.4954;stroke-miterlimit:10;}
	.st32{fill:#2496D3;stroke:#000000;stroke-width:2.0102;stroke-miterlimit:10;}
	.st33{fill:#2496D3;stroke:#000000;stroke-width:2.0098;stroke-miterlimit:10;}
	.st34{fill:none;stroke:#000000;stroke-width:2;stroke-miterlimit:10;}
	.st35{fill:#2496D3;stroke:#000000;stroke-width:0.9727;stroke-miterlimit:10;}
	.st36{fill:#2496D3;stroke:#000000;stroke-width:1.4055;stroke-miterlimit:10;}
	.st37{fill:#2496D3;stroke:#000000;stroke-width:2;stroke-miterlimit:10;}
	.st38{fill:none;stroke:#000000;stroke-width:4;stroke-linejoin:round;stroke-miterlimit:10;}
	.st39{fill:none;stroke:#000000;stroke-width:3.8779;stroke-linejoin:round;stroke-miterlimit:10;}
</style>
<g>
	<path class="st1" d="M33.1,90.4c0-1.4-0.8-2.1-2.4-2.1h-1.1v4.4h1.2C32.2,92.7,33.1,92.1,33.1,90.4 M36.4,90.4
		c0,3.1-2.2,4.6-5.4,4.6h-1.5v4.5h-3.2V86h4.4C34.2,86,36.4,87.5,36.4,90.4"/>
	<path class="st1" d="M42.9,96.7v-1.8h-0.8c-1.4,0-2.1,0.5-2.1,1.5c0,0.8,0.5,1.3,1.2,1.3C41.9,97.7,42.5,97.3,42.9,96.7 M46.6,97.8
		l-0.6,2c-1.2-0.1-2-0.5-2.5-1.5c-0.7,1.2-1.9,1.6-3.1,1.6c-2.1,0-3.4-1.3-3.4-3.2c0-2.3,1.7-3.5,4.9-3.5h1.1v-0.4
		c0-1.2-0.5-1.6-1.8-1.6c-0.7,0-1.7,0.2-2.7,0.5l-0.7-2c1.3-0.5,2.7-0.8,3.9-0.8c3,0,4.3,1.3,4.3,3.7v4
		C45.9,97.3,46.1,97.6,46.6,97.8"/>
	<path class="st1" d="M55.9,90.1l-1.1,1.8c-0.8-0.5-1.7-0.8-2.5-0.8c-0.9,0-1.3,0.3-1.3,0.8c0,0.5,0.3,0.8,2.1,1.3
		c2.1,0.6,3.2,1.4,3.2,3.3c0,2.1-2,3.4-4.6,3.4c-1.8,0-3.3-0.6-4.3-1.5l1.5-1.7c0.8,0.6,1.7,1,2.7,1c1,0,1.5-0.4,1.5-1
		c0-0.7-0.3-0.9-2.2-1.5c-2.1-0.6-3.1-1.6-3.1-3.2c0-1.8,1.6-3.2,4.2-3.2C53.6,88.8,55,89.3,55.9,90.1"/>
	<path class="st1" d="M65.4,90.1l-1.1,1.8c-0.8-0.5-1.7-0.8-2.5-0.8c-0.9,0-1.3,0.3-1.3,0.8c0,0.5,0.3,0.8,2.1,1.3
		c2.1,0.6,3.2,1.4,3.2,3.3c0,2.1-2,3.4-4.6,3.4c-1.8,0-3.3-0.6-4.3-1.5l1.5-1.7c0.8,0.6,1.7,1,2.7,1c1,0,1.5-0.4,1.5-1
		c0-0.7-0.3-0.9-2.2-1.5c-2.1-0.6-3.1-1.6-3.1-3.2c0-1.8,1.6-3.2,4.2-3.2C63.1,88.8,64.4,89.3,65.4,90.1"/>
	<path class="st1" d="M73.2,93.3c0-1.4-0.5-2.4-1.7-2.4c-1,0-1.6,0.7-1.8,2.5h3.5V93.3z M76.2,95.3h-6.4c0.2,1.9,1.1,2.4,2.4,2.4
		c0.8,0,1.6-0.3,2.5-0.9l1.3,1.7c-1,0.8-2.4,1.4-4,1.4c-3.5,0-5.2-2.2-5.2-5.5c0-3.1,1.7-5.6,4.8-5.6c3,0,4.8,2,4.8,5.3
		C76.3,94.5,76.3,95,76.2,95.3"/>
	<path class="st1" d="M86.8,92v7.6h-3.1v-7.1c0-1.1-0.4-1.4-1-1.4c-0.7,0-1.3,0.5-1.8,1.3v7.1h-3.1V89.2h2.7l0.2,1.2
		c0.9-1,1.9-1.6,3.2-1.6C85.7,88.8,86.8,90,86.8,92"/>
	<path class="st1" d="M91.4,92.6c0,1.1,0.6,1.8,1.6,1.8c1,0,1.6-0.6,1.6-1.8c0-1.2-0.5-1.7-1.6-1.7C92,90.9,91.4,91.5,91.4,92.6
		 M95.5,90.2c1.3,0.6,2,1.3,2,2.7c0,2-1.7,3.5-4.4,3.5c-0.4,0-0.8,0-1.2-0.1c-0.2,0.1-0.3,0.4-0.3,0.6c0,0.3,0.1,0.6,1.1,0.6h1.6
		c2.4,0,4,1.3,4,3c0,2.1-1.9,3.4-5.4,3.4c-3.9,0-5-1.3-5-3.3h2.8c0,0.9,0.4,1.3,2.3,1.3c1.8,0,2.2-0.5,2.2-1.2c0-0.6-0.5-1-1.5-1
		h-1.5c-2.3,0-3.2-0.9-3.2-2.1c0-0.8,0.5-1.5,1.2-2c-1.3-0.7-1.9-1.6-1.9-3c0-2.3,1.8-3.8,4.6-3.8c2.3,0.1,3.6-0.6,4.9-1.3l0.7,2.3
		C97.7,90.1,96.8,90.2,95.5,90.2"/>
	<path class="st1" d="M105.3,93.3c0-1.4-0.4-2.4-1.7-2.4c-1,0-1.6,0.7-1.8,2.5h3.5V93.3z M108.2,95.3h-6.4c0.2,1.9,1.1,2.4,2.4,2.4
		c0.8,0,1.6-0.3,2.5-0.9l1.3,1.7c-1,0.8-2.4,1.4-4,1.4c-3.5,0-5.2-2.2-5.2-5.5c0-3.1,1.7-5.6,4.8-5.6c3,0,4.8,2,4.8,5.3
		C108.3,94.5,108.3,95,108.2,95.3"/>
	<path class="st1" d="M116.6,89l-0.5,3c-0.3-0.1-0.6-0.1-0.9-0.1c-1.3,0-1.8,1-2.1,2.5v5.1h-3.1V89.2h2.7l0.3,2
		c0.5-1.4,1.5-2.3,2.7-2.3C115.9,88.9,116.2,88.9,116.6,89"/>
	<path class="st1" d="M131.3,87.4l-1.5,1.7c-0.9-0.8-1.9-1.1-3-1.1c-1.1,0-1.8,0.5-1.8,1.3c0,0.9,0.5,1.2,2.6,1.9
		c2.6,0.8,4,1.9,4,4.4c0,2.5-2,4.3-5.4,4.3c-2.3,0-4-0.9-5.1-1.9l1.6-1.8c1,0.9,2.1,1.3,3.4,1.3c1.3,0,2.1-0.6,2.1-1.7
		c0-1-0.5-1.4-2.5-2.1c-3-0.9-4.1-2.2-4.1-4.2c0-2.4,2.1-3.9,4.9-3.9C128.6,85.7,130.1,86.3,131.3,87.4"/>
	<path class="st1" d="M139.3,93.3c0-1.4-0.4-2.4-1.7-2.4c-1,0-1.6,0.7-1.8,2.5h3.5V93.3z M142.2,95.3h-6.4c0.2,1.9,1.1,2.4,2.4,2.4
		c0.8,0,1.6-0.3,2.5-0.9l1.3,1.7c-1,0.8-2.4,1.4-4,1.4c-3.5,0-5.2-2.2-5.2-5.5c0-3.1,1.7-5.6,4.8-5.6c3,0,4.8,2,4.8,5.3
		C142.3,94.5,142.3,95,142.2,95.3"/>
	<path class="st1" d="M150.5,89l-0.5,3c-0.3-0.1-0.6-0.1-0.9-0.1c-1.3,0-1.8,1-2.1,2.5v5.1h-3.1V89.2h2.7l0.3,2
		c0.5-1.4,1.5-2.3,2.7-2.3C149.9,88.9,150.2,88.9,150.5,89"/>
	<polygon class="st1" points="154.3,99.6 150.9,89.2 154.3,89.2 156.1,97.2 158.1,89.2 161.2,89.2 157.9,99.6 	"/>
	<path class="st1" d="M162.2,89.2h3.1v10.4h-3.1V89.2z M165.6,85.5c0,1-0.8,1.8-1.8,1.8s-1.8-0.8-1.8-1.8c0-1,0.7-1.8,1.8-1.8
		S165.6,84.5,165.6,85.5"/>
	<path class="st1" d="M175.5,90.1l-1.3,1.9c-0.6-0.5-1.2-0.8-2-0.8c-1.3,0-2.1,0.9-2.1,3.2c0,2.3,0.8,3,2.1,3c0.7,0,1.3-0.2,1.9-0.8
		l1.4,2c-1,0.8-2.1,1.2-3.5,1.2c-3.2,0-5.1-2.1-5.1-5.4c0-3.3,2-5.6,5.1-5.6C173.3,88.8,174.5,89.3,175.5,90.1"/>
	<path class="st1" d="M182.3,93.3c0-1.4-0.4-2.4-1.7-2.4c-1,0-1.6,0.7-1.8,2.5h3.5V93.3z M185.3,95.3h-6.4c0.2,1.9,1.1,2.4,2.4,2.4
		c0.8,0,1.6-0.3,2.5-0.9l1.3,1.7c-1,0.8-2.4,1.4-4,1.4c-3.5,0-5.2-2.2-5.2-5.5c0-3.1,1.7-5.6,4.8-5.6c3,0,4.8,2,4.8,5.3
		C185.4,94.5,185.4,95,185.3,95.3"/>
	<path class="st1" d="M194.5,90.1l-1.1,1.8c-0.8-0.5-1.7-0.8-2.5-0.8c-0.9,0-1.3,0.3-1.3,0.8c0,0.5,0.3,0.8,2.1,1.3
		c2.1,0.6,3.2,1.4,3.2,3.3c0,2.1-2,3.4-4.6,3.4c-1.8,0-3.3-0.6-4.3-1.5l1.5-1.7c0.8,0.6,1.7,1,2.7,1c1,0,1.5-0.4,1.5-1
		c0-0.7-0.3-0.9-2.2-1.5c-2.1-0.6-3.1-1.6-3.1-3.2c0-1.8,1.6-3.2,4.2-3.2C192.2,88.8,193.6,89.3,194.5,90.1"/>
	<g>
		<path class="st1" d="M70.7,72.9c-1.7-5.6-3-10.2-1.8-14.8c0.1-0.4,0.2-0.9,0.2-1.5c0-0.7,0-1.1-0.3-1.4c-0.3-0.3-0.6-0.4-1.2-0.3
			c-1,0.1-0.6-0.5-1.1-1.1c-0.1-0.2-0.2-0.3-0.3-0.5c-0.7-1-1.4-2-2.4-2.7c-1.4-1-2.7-1.5-3.9-1.6c-1.5-0.1-2.9,0.4-4,1.6
			c-0.5,0.6-1.1,1.1-1.5,1.8c-2.5,4.2-5.3,9.8-4.9,16.4c0.1,2.3,0.5,4.8,1.8,6.9c1.3,2,3.3,2.6,5.4,1.5c1.5-0.7,2.8-1.8,3.7-3.3
			c0.7-1,1.3-2.1,2-3.2l1.5-2.4l0.5,1.7c0.7,2.6,1.9,4.8,3.5,6.6c0.6,0.6,1.6,0.8,2.5,0.4c0.7-0.3,0.8-0.9,0.8-1.9
			c0-0.7-0.2-1.5-0.5-2.2L70.7,72.9z M62.9,58.2c0,0.2-0.1,0.4-0.1,0.7v0c0,3.7-1.6,7.3-3.7,10.7c-0.5,0.9-1.3,1.8-2.1,2.6
			c-0.5,0.5-1.1,0.7-1.7,0.7c-0.1,0-0.3,0-0.4-0.1c-0.6-0.2-1.1-0.8-1.2-1.6c-0.3-1.7-0.4-3.4-0.2-4.8c0.4-3.2,1.5-6.4,3.4-9.9
			c0.2-0.5,0.6-1,1-1.5c0.5-0.7,1.4-1.8,3-1.4c1.1,0.3,2.2,1.9,2.2,3.3C63,57.2,62.9,57.7,62.9,58.2z"/>
		<path class="st1" d="M93.9,47.8c-2.9-0.6-5.5,0-7.6,1.7l-0.1,0c-2,1.1-4.1,3.2-6.3,6.2l-0.7,1l0-1.3c0-0.9-0.1-1.9-0.1-2.8l0-0.2
			c0-1-0.1-2-0.2-2.9c-0.1-0.8-0.5-1.2-1.2-1.3c-0.1,0-0.2,0-0.2,0c-0.9,0-1.3,0.6-1.6,1.1c-0.3,0.6-0.4,1.4-0.5,2.1
			c-0.1,1-0.1,2-0.2,3c-0.2,3.3-0.4,6.7-0.4,10c0,2.2,0.3,4.4,0.6,6.6c0.1,0.9,0.2,1.7,0.3,2.6c0.1,0.5,0.2,1,1.2,1
			c1.2,0,1.9-0.3,2.5-2.2c0.6-1.8,0.9-3.7,1.2-5.5c0.4-2.7,0.9-5.5,2.4-8.1c2.2-3.8,5.1-6,8.7-6.8c0.3-0.1,0.5-0.1,0.8-0.2
			c0.5-0.1,1-0.2,1.5-0.3c1.1-0.3,1.6-1.1,1.6-2.1C95.6,48.7,95.1,48.1,93.9,47.8z"/>
		<path class="st1" d="M146,59.7c-1.5-2.2-3.6-3.9-5.6-5.6c-0.3-0.2-0.6-0.5-0.9-0.7l-0.4-0.3c-1.3-1.1-2.6-2.2-3.8-3.5
			c-0.7-0.8-1-1.8-0.8-2.6c0.2-0.9,1-1.7,2.1-2.1c1.4-0.6,3-0.7,4.8-0.5c1,0.1,2,0.2,2.9,0.2c0.8,0,1.2-0.3,1.4-0.9
			c0.2-0.7,0-1.3-0.6-1.8c-0.5-0.4-1-0.6-1.3-0.7c-0.7-0.2-1.4-0.2-2.1-0.3c-0.3,0-0.6-0.1-0.9-0.1c-2.6,0-4.9,0.4-6.8,1.2
			c-2.1,0.8-3.6,2.4-4.1,4.4c-0.5,1.8-0.1,3.6,1.1,5.2c0.9,1.2,2,2.4,3.5,3.7c1,0.9,2.1,1.8,3.1,2.7c1.3,1.1,2.7,2.3,4,3.5
			c0.7,0.6,1,1.6,1.4,2.5c0.1,0.1,0.1,0.3,0.2,0.4c0.2,0.4,0.1,0.9-0.1,1.2c-0.2,0.4-0.6,0.7-1.1,0.8c-0.8,0.2-1.7,0.2-2.6,0.2
			c-2-0.1-3.9-0.9-5.8-2.3c-1.5-1.1-1.7-2.7-1.9-4.2c-0.1-0.4-0.2-0.7-0.5-0.8c-0.1,0-0.2,0-0.2,0c-0.2,0-0.5,0.1-0.7,0.3
			c-0.3,0.2-0.6,0.6-0.9,1c-1.4,2.2-0.8,4.8,1.3,6.5c4.1,3.2,8.7,4.2,13.7,2.8c1.9-0.5,3.2-1.8,3.5-3.7
			C148.1,63.9,147.5,61.9,146,59.7z"/>
		<path class="st1" d="M127.2,31.8c-0.8,0-1.5,0.7-1.6,1.5c-0.1,1.2-0.3,2.5-0.9,3.2c-0.2,0.3-0.3,0.6-0.3,0.8
			c0,0.9,0.7,1.6,1.6,1.6c2.6,0.1,2.7-4.2,2.7-5.6C128.7,32.6,128,31.9,127.2,31.8z"/>
		<path class="st1" d="M45.4,29.5c-1.2-0.3-2.5,0.3-3.1,1.4c-0.1,0.2-12.8,27-18.3,39.4c-1.4-3.2-2.5-7.6-3.7-12.6
			c-1-4-2.1-8.5-3.5-13c-0.5-1.5-1.1-2.9-1.8-4.2c-0.3-0.6-0.6-1.2-0.8-1.8c-0.4-1-1.4-1.6-2.4-1.6c-1.1,0-2,0.6-2.4,1.6
			C4.9,48.5,0.8,80.9,0,87.2l0,0.2c-0.1,0.8,0.1,1.5,0.5,2.1c0.4,0.5,0.9,0.8,1.5,0.8c0.1,0,0.2,0,0.3,0c0,0,0,0,0.1,0
			c1.3,0,2.5-1,2.6-2.3c0-0.2,3.4-24.1,7.2-38.3c1.9,6.3,7.2,23.9,9.6,27.4c0.5,0.7,1.3,1.2,2.1,1.2c0.9,0,1.7-0.4,2.2-1.1
			c2.4-3.2,5.9-11,9.5-19.2c1.8-3.9,3.6-7.9,5.3-11.6c-0.1,1.4-0.1,2.8-0.2,4.4c-0.3,7.4-0.6,16.6-2.2,28.1c-0.2,1.5,0.6,2.7,2,2.9
			c0.7,0.1,1.3,0,1.8-0.4c0.5-0.4,0.8-1,0.9-1.7c2.3-16.3,3-29.1,3.5-37.6c0.1-1.5,0.2-2.9,0.2-4.1l0-0.6c0.1-1.9,0.2-3.6,0.3-5
			C47.5,31,46.7,29.8,45.4,29.5z"/>
		<path class="st1" d="M118.3,45.5c-0.4,0-0.8,0.1-1.1,0.3l-13.2,7c1.7-16.3,4.3-23.3,4.3-23.4l0,0l0,0c0.5-1.6,0.5-3-0.1-3.7
			c-0.3-0.4-0.7-0.6-1.2-0.6c-1,0-2,0.9-2.5,2.3c-6.2,17.8-7.1,35.1-7,43.9c0,0.3,0,0.5,0,0.6c0,0.6,0.2,1.2,0.6,1.6
			c0.4,0.4,1,0.8,1.5,0.8l0,0.1h0c1.2,0,2.2-1,2.2-2.2c0,0,0-0.2,0-0.4c0.1-1,0.4-3.4,0.8-7.4c4.6,3.9,9.5,6.5,11.7,7.7
			c0.3,0.2,0.5,0.1,0.7,0.2c0.3,0.2,0.7,0.1,1,0.1h0c0.8,0,1.6-0.3,1.9-1c0.3-0.5,0.4-1,0.2-1.6c-0.2-0.6-0.5-1-1.1-1.3
			c-4.1-2.3-9.7-6.1-12.9-9.5l14.9-9.4c0.5-0.3,0.9-0.8,1-1.4s0-1.2-0.3-1.7C119.8,45.9,119.1,45.5,118.3,45.5z"/>
	</g>
	<g>
		<path class="st5" d="M154.5,23.5c0,0-0.7-1.7-4.2-1.2c-3.5,0.5-3.7,1.7-3.6,2.1c0.1,0.4,1.1,1.7,3.1,0.7c0.8-0.4,0.9-0.4,0.7,0
			c-0.2,0.4-0.7,0.7-1.2,0.9c-0.5,0.3-1.1,1.4,0,1.7c1.4,0.2,2-0.4,2.4-0.9c0.4-0.5,0.7-0.5,1.1-0.5c0.4,0,1.1,0,1.5-0.6"/>
		<path class="st1" d="M154.3,23.6c0,0-0.6-1.5-3.9-1c-3.3,0.5-3.4,1.5-3.4,1.9c0.1,0.4,1.2,1.3,3,0.4c0.7-0.3,1-0.2,0.8,0.2
			c-0.2,0.4-0.7,0.9-1.2,1.1c-0.5,0.2-1.2,1.2-0.1,1.5c1.3,0.2,1.8-0.5,2.1-1c0.3-0.4,0.7-0.5,1-0.4c0.3,0,1,0.2,1.4-0.4"/>
		<path class="st5" d="M165,19.5c-2.6-2.2-1.8-7.4,1.8-11.6s8-6.4,11.2-3.7c2.6,2.2,1.9,7.5-1.7,11.7
			C172.7,20.2,167.6,21.7,165,19.5"/>
		<path class="st6" d="M164.1,20.2c-2.3-1.9-0.2-8,3-11.9c3.2-3.8,7.5-5.8,10.2-3.4c2.3,2,1.6,6.7-1.6,10.5
			C172.5,19.3,166.4,22.1,164.1,20.2"/>
		<path class="st5" d="M164.4,20c0,0,7.7-5.4,15.9,0.8c7.2,6.1,4,13.6-0.8,16.2c-4.8,2.6-22.2,5.3-22.3-6.3
			C158.9,19.5,162.2,21.2,164.4,20"/>
		<path class="st6" d="M172.6,34.7c0,0,3.8-3.2,3.3-8.2c-0.4-5-4.5-7.6-5.4-8c-0.3-0.4,0.4-0.3,0.7-0.2c0.3,0,2.2,0.8,3.2,1.7
			c1,1,5,4.2,3.7,10.4c-0.7,3.6-4.1,6.3-6.1,7.3C171.3,36.8,170.3,36.3,172.6,34.7"/>
		<path class="st5" d="M160.3,20.6c-1.6,2.7-6.8,2.7-11.4-0.2c-4.7-2.8-7.5-6.7-5.5-10c1.7-2.7,6.8-2.8,11.5,0
			C159.6,13.2,162,17.8,160.3,20.6"/>
		<path class="st6" d="M159.7,20.2c-1.5,2.5-6.2,2.5-10.5-0.1c-4.3-2.6-6.9-6.2-5-9.3c1.6-2.5,6.3-2.6,10.6,0
			C159,13.4,161.2,17.7,159.7,20.2"/>
		<path class="st6" d="M158.7,28c0,0-2.2,3.7,0.4,5.5c2.5,1.8,5.7,3.3,11.2,0.1c5.6-3.2,4.2-12.7-2.4-14.6c-2.8,0.8-3.1,1.4-3.3,1.6
			C164.4,20.9,158.7,28,158.7,28"/>
		<path class="st6" d="M163.9,37.4c0,0,4.4,0.2,7.2-1.7c2-1.1,4.8-2.1,2.4,0.8c-0.9,1-3.6,2.9-8.7,1.7
			C163.5,37.9,163.1,37.4,163.9,37.4"/>
		<path class="st6" d="M175.2,37.1c0,0,3.6-1.6,4.5-6.1c0.9-4.7,0.7-7.8-2.8-10.2c-1.2-0.8-1.3-0.7-1.7-1.1c-0.8-0.8-0.5-1,0-0.9
			c0.8,0.1,1.2,0.5,2.1,0.8c0.9,0.3,2.9,2,3.7,3.7c0.6,1.4,1.7,4.9-0.3,10.2c-1.1,2.3-1.7,2.9-2.4,3.3c-0.8,0.5-1.1,0.6-2,0.9
			C175.3,37.8,173.8,38.2,175.2,37.1"/>
		<path class="st6" d="M182.5,25c0,0,0.8,1.8,0.2,5.7c-0.5,1.8-0.8,2.8-1.4,3.8c-0.4,0.5-0.3,1.2,0.8-0.3c1.1-1.5,2.1-3.2,1.8-6.6
			C183.4,24.2,181.8,22.9,182.5,25"/>
		<path class="st5" d="M171.4,27.4c-0.4,3.4-3.7,5.7-7.3,5.3c-7.2-0.9-6.6-8.4-6.2-11.8c0.2-1.9,1.1-1.4,2.7-2.4
			c1.2-0.7,1,0.4,2.6,0.6C166.8,19.6,172,22.8,171.4,27.4"/>
		<path class="st6" d="M160.6,29.8c0.4-0.7,1.5-0.9,2.6-0.4c1,0.5,1.6,1.6,1.2,2.3c-0.4,0.7-1.5,0.9-2.6,0.4
			C160.8,31.6,160.2,30.5,160.6,29.8"/>
		<path class="st5" d="M160.8,31.1c0,0,0.2,0.3-0.2,1.1c-0.4,0.8-1,2.3-2.1,1.1c-1-1.1-0.1,4.6-0.1,4.6l2.3,0.5l0.5,0.2
			c0,0,0.2-0.8,0.6-1.1c0.5-0.4,0.4-1.6,0.3-2.1c-0.2-0.4,0.5-2.9,1.4-3.3"/>
		<path class="st5" d="M164.5,9.4c-0.5,0.1-0.7-0.2-0.9-1c-0.1-0.6-0.2-3-2-3.8l0,0c-1-0.5-2-0.5-2.8-0.5c0.1-0.7,0.4-1.5,1.1-1.8
			c0.1,0,0.2,0.1,0.2,0.1c0.8,0.3,1.6,0.3,1.9-0.5c0.3-0.8-0.8-0.2-1.6-0.5c-0.8-0.3-1.5-1.2-1.8-0.4c-0.2,0.5,0.5,0.4,0.8,0.8
			c-0.4,0.2-1.3,1-1.7,2.4c-1,0.3-1.6,0.7-1.7,0.8c-0.2,0.1-0.7,0.2-1.2,0c-0.2-0.1-0.5-0.2-0.7-0.2c0.1-0.4,0.3-0.7,0.6-1
			c0.1,0,0.2,0,0.2,0.1c0.6,0.1,1.2-0.4,1.3-1c0.1-0.6-0.4-1.2-1-1.3c-0.6-0.1-1.2,0.4-1.3,1c0,0.3,0.1,0.7,0.3,0.9
			c-0.2,0.1-0.5,0.6-0.8,1.2c-0.3,0-0.7,0-0.9,0.1c-0.3,0.1-0.3-0.1-0.5-0.1c-0.6-0.3-1.6-0.5-2.5,0.1c0.6,0,1.2,0.1,1.6,0.8
			c-0.5-0.3-1.5,0-2.1,0.6c1.7-0.1,1.8,0.8,1.7,1.1c-0.1,0.2-0.2,0.4-0.2,0.7c-0.6,2.6-0.3,4.5-1.1,5.7c0,0-4.4,1.9-4.2,4.5
			c0.4,2,3.7,3.4,7.1,3.8c3.4,0.4,14.6-0.4,17.1-9.3C169.7,11.3,168.7,8.8,164.5,9.4"/>
		<path class="st6" d="M149.7,14.6c0,0-4.2,1.4-4,3.8c0.3,1.8,3.4,3.1,6.6,3.5c3.2,0.4,13.2-0.1,15.9-8.7c0.7-2.4-1.2-3.7-6.6-0.9
			c-0.6,0.1-0.6-0.4-0.5-1.2c0.1-0.7,0.1-5-2.7-5.2c-3.2,0.2-3.2,2.1-3.4,2.9c-0.2,0.8-0.6,3.7-0.6,3.7s-0.2-3.4-0.7-4.5
			c-0.6-1.1-2.2-1.2-2.8,1.1C150.3,11.5,150.5,14.2,149.7,14.6"/>
		<path class="st5" d="M159.2,12.2c-0.2,1.3-1.2,2.3-2.1,2.2c-0.9-0.1-1.7-1.4-1.5-2.7c0.2-1.3,0.8-3.6,1.7-3.5
			C158.4,8.5,159.4,10.9,159.2,12.2"/>
		<path class="st5" d="M150.5,18c0,0,1.8,4.3,7,0.9c0.2,0.8,1,2.4,2.3,1.5c1.2-0.9,1.7-2.5,1.7-5.1c0-0.8,0.5-0.8,0.8-0.7
			c0.4,0.1,1-0.1,0.1-0.7c-0.8-0.4-2,0-2.2,0.4c-0.2,0.4,0.1,0.3,0.3,0.3c0.1,0,0.2,0.2,0,0.5S155.3,22.3,150.5,18"/>
		<path class="st1" d="M160.3,16.2l-1.8,1.7c0,0-0.3,0.3-0.3,0.8c0,0.5,0.3,0.4,0.9,0c0.7-0.4,1.5-1,1.5-1s0.3-0.2,0.3-1.2
			C160.8,15.6,160.5,16,160.3,16.2"/>
		<path class="st1" d="M159.9,18.6c0,0-1,0.6-1,0.6s-0.5,0.3-0.3,0.8c0.2,0.4,0.7,0.5,1.1,0.2c0.5-0.4,0.8-0.9,0.8-1.3
			C160.6,18.6,160.3,18.3,159.9,18.6"/>
		<path class="st1" d="M158.9,12.1c-0.1,1.1-1,1.9-1.8,1.8c-0.8-0.1-1.5-1.1-1.4-2.2c0.1-1.1,0.7-3.1,1.5-3
			C158.2,8.9,159,11,158.9,12.1"/>
		<path class="st5" d="M156.9,12.8c-0.1,0.4-0.3,0.7-0.6,0.7c-0.4,0-0.8-0.8-0.7-1.2c0.1-0.4,0.4-0.8,0.7-0.8
			C156.9,11.6,156.9,12.4,156.9,12.8"/>
		<path class="st5" d="M153.8,13.1c-0.2,1.3-1,2.4-1.8,2.3c-0.7-0.1-1.3-1.4-1.2-2.6c0.2-1.3,0.7-3.6,1.5-3.5
			C153.2,9.3,154,11.8,153.8,13.1"/>
		<path class="st1" d="M153.6,12.9c-0.1,1.1-0.8,1.9-1.5,1.8c-0.6-0.1-1.2-1.1-1-2.2c0.1-1.1,0.6-3.1,1.3-3
			C153.1,9.7,153.7,11.8,153.6,12.9"/>
		<path class="st5" d="M152,13.3c-0.1,0.4-0.3,1.1-0.6,1.1c-0.3,0-0.5-1.2-0.5-1.6c0.1-0.4,0.2-0.8,0.6-0.8
			C152.1,12.1,152.1,12.9,152,13.3"/>
		<path class="st5" d="M156,15.5c-0.1,1.2-1.4,1.9-2.9,1.8c-1.4-0.2-2.5-1.3-2.3-2.4c0.1-1.2,1.4-1.9,2.9-1.8
			C155.1,13.3,156.1,14.4,156,15.5"/>
		<path class="st1" d="M166.2,21.3c0.7-0.1,1.3,0.5,1.5,1.4c0.1,0.9-0.3,1.7-1,1.8c-0.7,0.1-1.3-0.5-1.5-1.4
			C165.1,22.2,165.6,21.4,166.2,21.3"/>
		<path class="st6" d="M159.3,34.4c0.6-0.5,1.5-0.2,2.2,0.6c0.6,0.8,0.7,1.8,0.1,2.3c-0.6,0.5-1.5,0.2-2.2-0.6
			C158.8,35.8,158.7,34.8,159.3,34.4"/>
		<path class="st6" d="M170.4,27.3c0.6,0.4,0.6,1.5-0.1,2.4c-0.6,0.9-1.6,1.3-2.2,0.9c-0.6-0.4-0.6-1.5,0.1-2.4
			C168.8,27.3,169.8,26.8,170.4,27.3"/>
		<path class="st5" d="M169.6,21.5c-0.2,0.8-2,0.4-2.2,0.4c-0.1,0-0.2-0.1-0.3-0.1c-0.5,0-0.9,0.4-1,0.9c-0.1,0.6,0.3,1.1,0.8,1.1
			c0.3,0,0.6-0.1,0.7-0.3c0.4-0.3,1.5-0.1,1.4,0.2c0,0.3,1.6,0.4,1.6,0.4S169.8,20.6,169.6,21.5"/>
		<path class="st5" d="M160.9,30.3c0.3-0.6,1.2-0.7,2-0.3c0.8,0.4,1.3,1.2,1,1.8c-0.3,0.6-1.2,0.7-2,0.3
			C161,31.7,160.6,30.8,160.9,30.3"/>
		<path class="st5" d="M170.4,27.8c0.5,0.3,0.5,1.2,0,1.9c-0.5,0.7-1.3,1-1.8,0.7c-0.5-0.3-0.5-1.2,0-1.9
			C169.1,27.7,169.9,27.4,170.4,27.8"/>
		<path class="st5" d="M170.7,28.1c0,0,1.2,1.4,2.2,1.2c0.6-0.2,0.6,0.3,0.3,0.7c-0.3,0.5-0.8,1.4-1,1.5c-0.3,0.1-0.4,0.7-0.7-0.1
			c-0.3-0.5-1.3-1.2-1.8-1.2c-0.6,0-1-0.8-0.8-1C169.1,29.1,169.2,28,170.7,28.1"/>
		<path class="st5" d="M171.9,32.4c-0.7-0.6-0.7-1.7,0-2.5c0.7-0.8,1.8-1,2.5-0.4c0.7,0.6,0.7,1.7,0,2.5
			C173.7,32.8,172.6,33,171.9,32.4"/>
		<path class="st6" d="M172.2,32.1c-0.6-0.5-0.5-1.4,0-2.1c0.6-0.7,1.5-0.8,2-0.3c0.6,0.5,0.5,1.4,0,2.1
			C173.6,32.4,172.7,32.6,172.2,32.1"/>
		<path class="st5" d="M173.5,35.8c0,0-2.7-5.1,2.8-10.7c1.3-1.1,3.1-1,2.3,1c-0.2,0.4,0.2,0,0.3-0.2c0.2-0.2,0.8-0.3,1,0.5
			c0.1,0.8,0,2.5-2.5,5.3c-1.2,1-1.5,1-1.3,1.5C176.3,33.9,175,38.3,173.5,35.8"/>
		<path class="st6" d="M173.7,35.6c0,0-2.5-4.8,2.7-10c1.2-1,2.7-1.2,1.7,1c0,0.2,0.5,0.1,0.7-0.1c0.2-0.2,0.8-0.6,0.9,0.1
			c0.1,0.7-0.2,2.4-2.5,5c-1.1,1-1.5,0.9-1.4,1.4C175.9,33.5,174.9,38,173.7,35.6"/>
		<path class="st5" d="M170.1,20.5c0.7,0.1,1.2,1,1.1,2.1c-0.1,1.1-0.8,1.8-1.6,1.8c-0.7-0.1-1.2-1-1.1-2.1
			C168.7,21.2,169.4,20.4,170.1,20.5"/>
		<path class="st1" d="M170.2,20.8c0.6,0.1,1.1,0.9,0.9,1.8c-0.1,0.9-0.7,1.6-1.4,1.6c-0.6-0.1-1.1-0.9-0.9-1.8
			C168.9,21.4,169.5,20.7,170.2,20.8"/>
		<path class="st5" d="M170.2,21c0,0,2.8-1.9,3.7-3.2c0.9-1.3,1.9-1.4,2.3-0.3c0.2,1-0.7,2-0.6,1.8c0.1-0.1,1.4-0.8,1.7,0.5
			c-0.1,1.1-1.8,2.6-1.8,2.6s0.2-0.5,1-0.3c0.8,0.1,1,0.8,0.6,1.2c-0.5,0.3-1.5,1.3-1.7,1.4c-0.1,0.1-1.3,0.8-2.2,0.6
			c-0.9-0.1-2.3-0.4-2.6-0.5c-0.6-0.1-1-1.2-1.1-1.3C169.5,23.4,169,21.2,170.2,21"/>
		<path class="st1" d="M170.6,21.3c0,0,2.6-1.9,3.5-3.1c0.8-1.2,1.6-1.4,1.9-0.5c0.2,0.9-1.2,2.4-1.5,2.7c-0.3,0.3-0.5,0.8-0.2,0.7
			c0.3-0.1,1.3-1.4,1.4-1.5c0.2-0.2,1.4-0.7,1.4,0.3c-0.1,1-1.7,2.4-1.7,2.4l-0.5,0.5c0,0-0.2,0.4,0.2,0.1c0.4-0.3,0.7-0.8,1.4-0.6
			c0.7,0.1,0.8,0.6,0.4,0.9c-0.4,0.3-1.3,1.1-1.5,1.3c-0.1,0.1-1.2,0.8-1.9,0.7c-0.8-0.1-2.2-0.5-2.5-0.6c-0.7-0.2-0.9-1.1-1-1.2
			C169.9,23.2,169.5,21.4,170.6,21.3"/>
		<path class="st5" d="M172.9,21.8c0,0,0.5-1.3-0.6-1.4c-0.4,0.1-0.6,0.2-0.5-0.5c0.1-0.7-1.3-1.9-1.9-1c-0.6,0.9-0.4,2.1-0.5,2.6
			c-0.1,0.5,0.3,1.4,1.2,1.6"/>
		<path class="st1" d="M173.1,21.9c0,0,0.3-1.3-0.8-1.3c-0.4,0.1-0.8,0.1-0.7-0.5c0.1-0.7-1-1.7-1.6-0.9c-0.5,0.8-0.4,2-0.5,2.5
			c-0.1,0.5,0.3,1.4,1.1,1.5"/>
		<path class="st5" d="M158.6,23.5c0.5-0.1,0.9,0.4,1,1c0.1,0.6-0.2,1.1-0.7,1.2c-0.5,0.1-0.9-0.4-1-1
			C157.8,24.1,158.1,23.6,158.6,23.5"/>
		<path class="st5" d="M156,30.3c0,0,3.1,3,5,6.2c0.8,1.8,0.5,2.8-0.5,3.1c-1,0.3-2.5,0.2-2.8-1c-0.1-0.7-0.2-1-1-1
			c-0.9,0-2.9,0-4.1-1.6c-1.2-1.5-1.1-2.8-0.6-3.5c0.2-0.2,0.5-0.4,0.6-0.6c0.1-0.3,0-0.8,0.1-1.2C152.7,29.9,153.1,28,156,30.3"/>
		<path class="st6" d="M155.9,30.6c0,0,2.9,2.9,4.6,6c0.8,1.7,0.7,2.5-0.3,2.7c-0.9,0.3-2.1,0.2-2.4-1c-0.1-0.7-0.3-1.1-1.1-1.1
			c-0.8,0-2.8,0.1-3.9-1.4c-1.1-1.4-1.1-2.6-0.6-3.2c0.3-0.4,0.6-0.1,0.7-0.4c0.1-0.3-0.2-0.8-0.2-1.4
			C152.9,30.1,153.2,28.4,155.9,30.6"/>
		<path class="st5" d="M154.5,23.4c0.9-0.1,1.8,0.5,1.9,1.5c0.1,1-0.5,1.9-1.4,2c-0.9,0.1-1.8-0.5-1.9-1.5
			C152.9,24.5,153.6,23.6,154.5,23.4"/>
		<path class="st1" d="M154.6,23.6c0.8-0.1,1.6,0.5,1.7,1.3c0.1,0.9-0.4,1.7-1.2,1.8c-0.8,0.1-1.6-0.5-1.7-1.3
			C153.3,24.5,153.8,23.7,154.6,23.6"/>
		<path class="st5" d="M155.3,24c0.5-0.1,0.9,0.3,1,0.9c0.1,0.6-0.2,1.1-0.7,1.1c-0.5,0.1-0.9-0.3-1-0.9
			C154.5,24.6,154.9,24.1,155.3,24"/>
		<path class="st5" d="M155.5,24c0,0,1.7,0.2,2.7-0.3c0.8,0.1,0.8,1.4,0.6,1.5c-0.2,0.1-0.4,0.4-0.6,0.2c-0.2-0.2-1.5-0.2-1.9-0.1
			c-0.4,0.1-0.7,0.2-0.8-0.1C155.5,24.9,154.8,23.9,155.5,24"/>
		<path class="st7" d="M150.9,10.6c-2.5-0.1-3.1-1.2-3.2-1.4c-0.4-0.7-0.3-1.5,0.3-2.3c0.4-0.5,0.8-0.9,1-1l0.2-0.7l0.1-0.8
			c-0.2-0.2-0.5-0.6-0.9-1.1c-0.6-0.9-0.9-1.7-0.8-2.3c0.1-0.3,0.3-0.6,1.8-0.7c1-0.1,2.3-0.1,3.8,0c1.2,0.1,2.4,0.2,3.7,0.3
			c2.1,0.2,4.1,0.6,5.7,1c1.6,0.4,2.6,0.8,2.9,1.2c0.1,0.2,0.1,0.3,0.1,0.4c0,0.1-0.1,0.2-0.2,0.3c0,0,0,0,0,0.1
			c0,0.2-0.2,0.4-1.6,0.9c-0.4,0.2-0.9,0.3-1.1,0.4l0,0l0,0l0.1,1.1l-0.2,0l0.1,0l-0.3,0.2c-0.1,0.1-0.2,0.1-0.2,0.2l-0.5,0.4l0,0
			c-0.4,0.2-1,0.4-1.5,0.6c-0.3,0.1-0.5,0.2-0.7,0.3c-0.1,0-0.1,0.1-0.2,0.1c0,0.1-0.1,0.5-0.9,1c-1,0.7-2.5,1.2-4.7,1.6
			C152.7,10.6,151.7,10.6,150.9,10.6"/>
		<path class="st5" d="M153.2,0l0,0.5L153.2,0c-1.5-0.1-2.9-0.1-3.8,0c-0.5,0.1-0.9,0.1-1.2,0.2c-0.2,0.1-0.7,0.2-0.8,0.7
			c-0.2,0.7,0.1,1.5,0.8,2.5c0.3,0.5,0.6,0.8,0.8,1.1l-0.1,0.6l-0.2,0.6c-0.2,0.2-0.6,0.5-0.9,1c-0.3,0.4-0.5,0.8-0.6,1.2
			c-0.1,0.5,0,1,0.3,1.4c0.1,0.1,0.3,0.5,0.7,0.8c0.6,0.5,1.6,0.7,2.7,0.8c0.9,0,1.9,0,3-0.2c2.2-0.4,3.8-1,4.8-1.7
			c0.6-0.5,0.9-0.9,0.9-1.1c0,0,0,0,0,0c0.2-0.1,0.4-0.2,0.6-0.2c0.3-0.1,0.7-0.3,1.1-0.4l0,0.2l1-0.8c0,0,0,0,0,0l0.1-0.1l0,0
			c0,0,0.1,0,0.1-0.1l0.3-0.3l0.2,0l0-0.1l0.1,0l-0.1,0l0-0.2l0-0.3l0-0.3l0-0.1c0.3-0.1,0.6-0.2,1-0.3c0.4-0.1,0.8-0.3,1-0.4
			c0.3-0.2,0.7-0.4,0.7-0.7v0c0.1-0.1,0.1-0.2,0.2-0.3c0.1-0.2,0-0.4-0.1-0.6c-0.2-0.3-0.5-0.5-1.1-0.7c-0.5-0.2-1.1-0.4-1.9-0.6
			c-1.6-0.4-3.6-0.7-5.7-1C155.7,0.2,154.4,0.1,153.2,0 M153.2,0.5c1.1,0.1,2.4,0.2,3.7,0.3c4.8,0.6,8.6,1.6,8.4,2.3
			c0,0.1-0.1,0.2-0.3,0.3c0.1,0,0.1,0.1,0.1,0.1c-0.1,0.4-2.8,1.2-2.8,1.2l0.1,0.3v0l0,0.3l0,0.3l0,0.3c0,0-0.1,0-0.1,0c0,0,0,0,0,0
			c0,0,0,0,0,0c0,0-0.1,0-0.1,0c0,0,0,0-0.1,0.1c0,0.1,0,0.2,0,0.2c-0.1,0.1-0.2,0.1-0.2,0.2c0-0.1-0.1-0.1-0.4-0.1
			c0,0.1,0,0.3,0.1,0.4c0,0-0.1,0-0.1,0l0,0h0c-0.7,0.4-1.7,0.7-2.2,0.9c-0.5,0.2-0.4,0.2-0.3,0.3c0,0,0,0,0,0s-0.3,1.6-5.3,2.5
			c-1.2,0.2-2.1,0.3-2.9,0.2c-2.5-0.1-3-1.3-3-1.3c-0.9-1.4,1.2-3,1.2-3l0.3-0.8l0.1-0.9c0,0-2-2-1.7-3.3
			C148,0.6,150.2,0.4,153.2,0.5"/>
		<path class="st8" d="M149.1,6.1c0,0-2.2,1.6-1.2,3c0,0,0.8,2,5.8,1.1c5.1-0.9,5.3-2.5,5.3-2.5s-0.3,0,0.3-0.3
			c0.6-0.3,2-0.6,2.5-1.1C162.4,5.7,149.1,6.1,149.1,6.1"/>
		<path class="st9" d="M162.4,5.7c-11.6,2.2-13.1-0.4-13.1-0.4l-0.3,0.8c0,0,0.8,2.7,12.4,0.5C161.5,6.5,162.3,5.9,162.4,5.7
			L162.4,5.7z"/>
		<path class="st10" d="M149.4,4.4l-0.1,0.9c0,0,1.4,2.7,13.1,0.4l-0.1-0.8L149.4,4.4z"/>
		<path class="st11" d="M148.1,0.8c0,0,13.7,1.5,17,2c0.6,0.1,0,0.6,0,0.7c-0.1,0.4-2.8,1.2-2.8,1.2l0.1,0.5
			c-9,1.6-12.9-0.8-12.9-0.8s-2-2-1.7-3.3L148.1,0.8z"/>
		<path class="st12" d="M165.2,2.7c-0.1,0.4-2.2,0.4-8.7-0.3c-6.6-0.7-8.6-1.2-8.5-1.6c0.1-0.4,4.1-0.5,8.8,0
			C161.6,1.4,165.4,2.3,165.2,2.7"/>
		<path class="st13" d="M162.4,6.1c-0.2,0.3-0.5,0.5-0.7,0.4c-0.2-0.1-0.3-0.4-0.1-0.7c0.2-0.3,0.5-0.5,0.7-0.4
			C162.5,5.5,162.6,5.8,162.4,6.1"/>
		<path class="st14" d="M162.3,6c0,0.1-0.1,0.1-0.2,0.1s-0.1-0.1,0-0.2c0-0.1,0.1-0.1,0.2-0.1C162.3,5.8,162.3,5.9,162.3,6"/>
		<polygon class="st11" points="159.8,21.7 159.5,22.3 160,22.8 160.8,22.6 161.1,22 160.6,21.5 		"/>
		<polygon class="st11" points="161,27.2 160.3,26.8 160,22.9 160.8,22.8 161.9,26.5 161.5,27.1 		"/>
	</g>
</g>
</svg>
