<?xml version="1.0" encoding="utf-8"?>
<!-- Generator: Adobe Illustrator 20.1.0, SVG Export Plug-In . SVG Version: 6.00 Build 0)  -->
<svg version="1.1" id="Layer_1" xmlns="http://www.w3.org/2000/svg" xmlns:xlink="http://www.w3.org/1999/xlink" x="0px" y="0px"
	 width="90.5px" height="97.3px" viewBox="0 0 90.5 97.3" style="enable-background:new 0 0 90.5 97.3;" xml:space="preserve">
<style type="text/css">
	.st0{opacity:0.9;fill:#FFFFFF;}
	.st1{fill:#FFFFFF;}
	.st2{fill:#C3C3C2;}
	.st3{fill:none;stroke:#AEAEAE;stroke-miterlimit:10;}
	.st4{fill:none;stroke:#AEAEAE;stroke-width:1.5;stroke-miterlimit:10;}
	.st5{fill:#1E1E1C;}
	.st6{fill:#F8CB00;}
	.st7{fill:#2E353D;}
	.st8{fill:#034356;}
	.st9{fill:#BCBBBB;}
	.st10{fill:#0B6284;}
	.st11{fill:#2096D3;}
	.st12{fill:#126180;}
	.st13{fill:#3D3D3C;}
	.st14{fill:#DAD9D8;}
	.st15{opacity:0.85;}
	.st16{opacity:0.8;}
	.st17{fill:none;stroke:#FFFFFF;stroke-linecap:round;stroke-linejoin:round;stroke-miterlimit:10;}
	.st18{opacity:0.8;fill:#FFFFFF;}
	.st19{fill:#2496D3;}
	.st20{opacity:0.65;fill:#2496D3;}
	.st21{fill:#3D3E3D;}
	.st22{fill:none;stroke:#FFFFFF;stroke-width:3.5;stroke-miterlimit:10;}
	.st23{fill:none;stroke:#2496D3;stroke-miterlimit:10;}
	.st24{fill:none;stroke:#2496D3;stroke-width:1.5;stroke-miterlimit:10;}
	.st25{opacity:0.8;fill:#2496D3;}
	.st26{opacity:0.75;}
	.st27{fill:none;stroke:#FFFFFF;stroke-width:2.5;stroke-miterlimit:10;}
	.st28{fill:none;stroke:#2496D3;stroke-width:0.5;stroke-miterlimit:10;}
	.st29{fill:none;stroke:#2496D3;stroke-width:2.375;stroke-linecap:round;stroke-linejoin:round;stroke-miterlimit:10;}
	.st30{fill:#2D3134;}
	.st31{fill:none;stroke:#000000;stroke-width:3.4954;stroke-miterlimit:10;}
	.st32{fill:#2496D3;stroke:#000000;stroke-width:2.0102;stroke-miterlimit:10;}
	.st33{fill:#2496D3;stroke:#000000;stroke-width:2.0098;stroke-miterlimit:10;}
	.st34{fill:none;stroke:#000000;stroke-width:2;stroke-miterlimit:10;}
	.st35{fill:#2496D3;stroke:#000000;stroke-width:0.9727;stroke-miterlimit:10;}
	.st36{fill:#2496D3;stroke:#000000;stroke-width:1.4055;stroke-miterlimit:10;}
	.st37{fill:#2496D3;stroke:#000000;stroke-width:2;stroke-miterlimit:10;}
	.st38{fill:none;stroke:#000000;stroke-width:4;stroke-linejoin:round;stroke-miterlimit:10;}
	.st39{fill:none;stroke:#000000;stroke-width:3.8779;stroke-linejoin:round;stroke-miterlimit:10;}
</style>
<g>
	<path d="M4.1,93.8c3,0,5.9,0,8.7,0c0.3,0,0.6-0.3,0.9-0.6c0.4-0.5,0.7-1.1,1.1-1.6c0.6-0.8,1.6-1.1,2.4-0.6
		c0.8,0.5,1.1,1.3,0.7,2.2c-0.1,0.1-0.1,0.3-0.2,0.5c23,0,45.8,0,68.8,0c-0.4-1.7-0.8-3.2-1.3-4.8c-2.8-10.7-5.6-21.5-8.4-32.2
		c-0.2-0.8-0.4-1.3-1.4-1c-0.2,1.3,0.4,3.5-1.9,3.4c-2.2,0-1.6-2.1-1.8-3.6c-0.5,0-0.9,0-1.4,0c-4.5,0-9,0-13.5,0c-0.3,0-0.7,0-1,0
		c-0.9-0.2-1.5-0.8-1.5-1.8c0-0.9,0.6-1.5,1.5-1.7c0.3-0.1,0.7,0,1,0c6.8,0,13.6,0,20.4,0c1.6,0,2,0.3,2.4,1.9
		c3.5,13.6,7.1,27.1,10.6,40.7c0.4,1.7-0.3,2.6-2,2.6c-28.7,0-57.4,0-86,0c-2,0-2.6-0.9-2.1-2.8c3.5-13.6,7.1-27.1,10.6-40.7
		c0.4-1.3,0.8-1.7,2.2-1.7c1,0,2,0,3.1,0c1.1,0,1.9,0.8,1.9,1.8c0,1-0.8,1.7-1.9,1.7c-2.2,0.1-2.2,0.1-2.8,2.3
		c-3,11.6-6.1,23.2-9.1,34.8C4.2,93,4.2,93.3,4.1,93.8z"/>
	<path d="M36.3,0c12.7,0.1,23.8,10.1,25.1,22.8c0.7,7.5-1.2,14.5-4.7,21c-4.6,8.7-11.2,15.6-19,21.5c-0.9,0.7-1.7,0.9-2.7,0.2
		c-7-5.1-13.1-11.2-17.7-18.6c-4.2-6.7-6.5-14-6.4-22C11.1,11.2,22.6-0.1,36.3,0z M14.4,25.6c0,5.8,1.4,11.3,4.2,16.6
		c4.1,7.8,10.1,14,17,19.3c0.6,0.5,1,0.2,1.5-0.2c5.3-4.2,9.9-8.9,13.7-14.5C55.2,40.2,58,33.1,58,25C57.9,12.6,47.8,3.1,35.5,3.5
		C23.3,4,14.3,13.4,14.4,25.6z"/>
	<path d="M20.4,88.6c-0.5-0.4-1.2-0.7-1.4-1.2c-0.2-0.5-0.2-1.5,0.2-1.8c1.9-1.7,3.9-3.4,6-4.9c0.8-0.6,1.7-0.3,2.3,0.5
		c0.5,0.7,0.3,1.8-0.4,2.4c-1.8,1.4-3.5,2.9-5.3,4.3C21.4,88.2,21,88.3,20.4,88.6z"/>
	<path d="M39.6,82.2c-0.3-0.1-0.8-0.2-1.3-0.3c-1.8-0.1-3.5-0.3-5.3-0.4c-1.1,0-1.9-0.6-2-1.6c-0.1-0.9,0.6-1.7,1.7-1.9
		c2.6-0.4,5.2,0,7.7,0.7c1,0.3,1.4,1.1,1.2,2C41.4,81.8,40.7,82.2,39.6,82.2z"/>
	<path d="M68.6,77c-0.4,0.6-0.5,1.2-0.9,1.5c-1.9,1.4-3.9,2.8-5.9,4.1c-1,0.6-2.1,0.3-2.6-0.6c-0.5-0.9-0.1-1.9,0.9-2.5
		c1.8-1.1,3.4-2.4,5.2-3.5c0.5-0.3,1.4-0.5,1.9-0.3C67.8,75.8,68.2,76.5,68.6,77z"/>
	<path d="M75.1,64.9c-0.9,2.5-1.8,4.9-2.8,7.3c-0.4,0.9-1.3,1.1-2.2,0.7c-0.8-0.3-1.2-1.3-0.9-2.2c0.7-2.2,1.5-4.4,2.2-6.6
		c0.3-1,1.2-1.4,2.1-1.2c0.8,0.2,1.3,0.9,1.3,1.9C74.9,64.8,75,64.9,75.1,64.9z"/>
	<path d="M50.8,84.8c-1.2-0.2-2.8-0.3-4.3-0.6c-1.1-0.2-1.6-1-1.4-2.1c0.2-0.9,0.9-1.4,2-1.4c2.2,0.1,4.5,0.2,6.7,0.3
		c1,0,1.8,0.8,1.8,1.7c0.1,0.9-0.6,1.7-1.6,1.8C53.1,84.7,52.1,84.7,50.8,84.8z"/>
	<path class="st19" d="M14.4,25.6C14.3,13.4,23.3,4,35.5,3.5C47.8,3.1,57.9,12.6,58,25c0.1,8.1-2.8,15.2-7.2,21.8
		c-3.8,5.6-8.4,10.4-13.7,14.5c-0.5,0.4-0.8,0.7-1.5,0.2c-6.9-5.3-12.9-11.5-17-19.3C15.8,36.9,14.4,31.4,14.4,25.6z M36.3,14.1
		c-6.2,0-11.8,5.4-11.8,11.6c0,6.2,5.5,11.8,11.7,11.8c6.2,0,11.8-5.5,11.8-11.7C48,19.8,42.5,14.2,36.3,14.1z"/>
	<path d="M36.3,14.1c6.2,0,11.7,5.6,11.7,11.8c-0.1,6.2-5.6,11.7-11.8,11.7c-6.2,0-11.7-5.6-11.7-11.8C24.5,19.6,30,14.1,36.3,14.1z
		 M36.3,17.7C31.6,17.6,28,21,28,25.6c-0.1,5,3.3,8.5,8.1,8.5c4.7,0,8.2-3.4,8.3-8C44.4,21.2,41.1,17.8,36.3,17.7z"/>
</g>
</svg>
