<?xml version="1.0" encoding="utf-8"?>
<!-- Generator: Adobe Illustrator 20.1.0, SVG Export Plug-In . SVG Version: 6.00 Build 0)  -->
<svg version="1.1" id="Layer_1" xmlns="http://www.w3.org/2000/svg" xmlns:xlink="http://www.w3.org/1999/xlink" x="0px" y="0px"
	 width="13.6px" height="15.7px" viewBox="0 0 13.6 15.7" style="enable-background:new 0 0 13.6 15.7;" xml:space="preserve">
<style type="text/css">
	.st0{opacity:0.9;fill:#FFFFFF;}
	.st1{fill:#FFFFFF;}
	.st2{fill:#C3C3C2;}
	.st3{fill:none;stroke:#AEAEAE;stroke-miterlimit:10;}
	.st4{fill:none;stroke:#AEAEAE;stroke-width:1.5;stroke-miterlimit:10;}
	.st5{fill:#1E1E1C;}
	.st6{fill:#F8CB00;}
	.st7{fill:#2E353D;}
	.st8{fill:#034356;}
	.st9{fill:#BCBBBB;}
	.st10{fill:#0B6284;}
	.st11{fill:#2096D3;}
	.st12{fill:#126180;}
	.st13{fill:#3D3D3C;}
	.st14{fill:#DAD9D8;}
	.st15{opacity:0.85;}
	.st16{opacity:0.8;}
	.st17{fill:none;stroke:#FFFFFF;stroke-linecap:round;stroke-linejoin:round;stroke-miterlimit:10;}
	.st18{opacity:0.8;fill:#FFFFFF;}
	.st19{fill:#2496D3;}
	.st20{opacity:0.65;fill:#2496D3;}
	.st21{fill:#3D3E3D;}
	.st22{fill:none;stroke:#FFFFFF;stroke-width:3.5;stroke-miterlimit:10;}
	.st23{fill:none;stroke:#2496D3;stroke-miterlimit:10;}
	.st24{fill:none;stroke:#2496D3;stroke-width:1.5;stroke-miterlimit:10;}
	.st25{opacity:0.8;fill:#2496D3;}
	.st26{opacity:0.75;}
	.st27{fill:none;stroke:#FFFFFF;stroke-width:2.5;stroke-miterlimit:10;}
	.st28{fill:none;stroke:#2496D3;stroke-width:0.5;stroke-miterlimit:10;}
	.st29{fill:none;stroke:#2496D3;stroke-width:2.375;stroke-linecap:round;stroke-linejoin:round;stroke-miterlimit:10;}
	.st30{fill:#2D3134;}
	.st31{fill:none;stroke:#000000;stroke-width:3.4954;stroke-miterlimit:10;}
	.st32{fill:#2496D3;stroke:#000000;stroke-width:2.0102;stroke-miterlimit:10;}
	.st33{fill:#2496D3;stroke:#000000;stroke-width:2.0098;stroke-miterlimit:10;}
	.st34{fill:none;stroke:#000000;stroke-width:2;stroke-miterlimit:10;}
	.st35{fill:#2496D3;stroke:#000000;stroke-width:0.9727;stroke-miterlimit:10;}
	.st36{fill:#2496D3;stroke:#000000;stroke-width:1.4055;stroke-miterlimit:10;}
	.st37{fill:#2496D3;stroke:#000000;stroke-width:2;stroke-miterlimit:10;}
	.st38{fill:none;stroke:#000000;stroke-width:4;stroke-linejoin:round;stroke-miterlimit:10;}
	.st39{fill:none;stroke:#000000;stroke-width:3.8779;stroke-linejoin:round;stroke-miterlimit:10;}
</style>
<g>
	<path class="st1" d="M8.8,6.1c0.3,0,0.6-0.1,1-0.6V6h0.8V1.6H9.7V5C9.6,5.1,9.4,5.3,9.2,5.3C9.1,5.3,9,5.2,9,5V1.6H8.2v3.7
		C8.2,5.8,8.3,6.1,8.8,6.1z"/>
	<path class="st1" d="M5.1,4.9c0,0.8,0.4,1.2,1.2,1.2c0.7,0,1.2-0.4,1.2-1.2V2.7C7.5,2,7,1.5,6.3,1.5C5.6,1.5,5.1,2,5.1,2.7V4.9z
		 M5.9,2.8c0-0.2,0.1-0.4,0.3-0.4c0.3,0,0.4,0.2,0.4,0.4v2.1c0,0.2-0.1,0.4-0.3,0.4c-0.2,0-0.4-0.2-0.4-0.4V2.8z"/>
	<polygon class="st1" points="3.1,6 4,6 4,3.6 5.1,0 4.2,0 3.6,2.4 2.9,0 2,0 3.1,3.6 	"/>
	<path class="st1" d="M11.7,7.1H1.9C0.9,7.1,0,7.9,0,9v4.8c0,1,0.9,1.9,1.9,1.9h9.8c1,0,1.9-0.9,1.9-1.9V9
		C13.6,7.9,12.7,7.1,11.7,7.1z M3.2,14.2H2.3V9.3H1.4V8.5h2.7v0.8H3.2V14.2z M6.4,14.2H5.6v-0.5c-0.1,0.2-0.3,0.3-0.5,0.4
		c-0.4,0.2-1,0.2-1-0.6V10h0.8v3.3c0,0.2,0,0.3,0.2,0.3c0.2,0,0.4-0.2,0.5-0.3V10h0.8V14.2z M9.4,13.4c0,0.5-0.2,0.9-0.7,0.9
		c-0.3,0-0.5-0.1-0.8-0.4v0.3H7.1V8.5h0.8v1.9c0.2-0.2,0.4-0.4,0.7-0.4c0.6,0,0.8,0.5,0.8,1.1V13.4z M12.3,12.2h-1.5V13
		c0,0.3,0,0.6,0.3,0.6c0.3,0,0.4-0.2,0.4-0.6v-0.3h0.8V13c0,0.8-0.4,1.3-1.2,1.3c-0.8,0-1.1-0.5-1.1-1.3v-1.9c0-0.7,0.5-1.2,1.2-1.2
		c0.8,0,1.1,0.5,1.1,1.2V12.2z"/>
	<path class="st1" d="M11.2,10.6c-0.3,0-0.4,0.2-0.4,0.5v0.4h0.7v-0.4C11.5,10.8,11.4,10.6,11.2,10.6z"/>
	<path class="st1" d="M8.1,10.7c-0.1,0-0.1,0.1-0.2,0.1v2.6c0.1,0.1,0.1,0.1,0.2,0.1c0.1,0.1,0.3,0.1,0.4,0c0-0.1,0.1-0.2,0.1-0.3
		v-2.2c0-0.1,0-0.3-0.1-0.3C8.4,10.6,8.2,10.6,8.1,10.7z"/>
</g>
</svg>
