<svg width="48" height="14" viewBox="0 0 48 14" fill="none" xmlns="http://www.w3.org/2000/svg">
<g clip-path="url(#clip0_1_1319)">
<path d="M6.22956 0.580002H2.52956C2.27956 0.580002 2.05956 0.770002 2.01956 1.02L0.529555 10.63C0.519555 10.72 0.539555 10.81 0.599555 10.88C0.659555 10.95 0.739555 10.99 0.829555 10.99H2.58956C2.83956 10.99 3.05956 10.8 3.09956 10.55L3.49956 7.96C3.53956 7.71 3.74956 7.52 4.00956 7.52H5.17956C7.60956 7.52 9.01956 6.33 9.37956 3.96C9.54956 2.92 9.37956 2.11 8.90956 1.54C8.38956 0.910002 7.45956 0.580002 6.22956 0.580002ZM6.65956 4.09C6.45956 5.43 5.44956 5.43 4.46956 5.43H3.90956L4.29956 2.92C4.31956 2.77 4.44956 2.66 4.59956 2.66H4.85956C5.52956 2.66 6.15955 2.66 6.47956 3.05C6.66956 3.28 6.72956 3.62 6.65956 4.09ZM17.2696 4.05H15.4996C15.3496 4.05 15.2196 4.16 15.1996 4.31L15.1196 4.81L14.9996 4.63C14.6196 4.07 13.7596 3.88 12.9096 3.88C10.9596 3.88 9.28956 5.38 8.95956 7.49C8.78956 8.54 9.02956 9.55 9.61956 10.25C10.1596 10.89 10.9296 11.16 11.8496 11.16C13.4196 11.16 14.2996 10.13 14.2996 10.13L14.2196 10.63C14.2096 10.72 14.2296 10.81 14.2896 10.88C14.3496 10.95 14.4296 10.99 14.5196 10.99H16.1096C16.3596 10.99 16.5796 10.8 16.6196 10.55L17.5796 4.41C17.5896 4.32 17.5696 4.23 17.5096 4.16C17.4496 4.09 17.3696 4.05 17.2796 4.05H17.2696ZM14.8096 7.54C14.6396 8.57 13.8396 9.25 12.8196 9.25C12.3096 9.25 11.8996 9.08 11.6296 8.77C11.3696 8.46 11.2696 8.01 11.3496 7.51C11.5096 6.49 12.3196 5.78 13.3296 5.78C13.8296 5.78 14.2396 5.95 14.5096 6.27C14.7796 6.59 14.8896 7.04 14.8096 7.54ZM26.6896 4.05H24.9096C24.7396 4.05 24.5796 4.14 24.4896 4.28L22.0396 7.94L20.9996 4.42C20.9296 4.2 20.7296 4.05 20.5096 4.05H18.7596C18.6596 4.05 18.5696 4.1 18.5096 4.18C18.4496 4.26 18.4396 4.37 18.4696 4.46L20.4296 10.29L18.5896 12.93C18.5196 13.03 18.5096 13.15 18.5696 13.25C18.6296 13.35 18.7296 13.42 18.8396 13.42H20.6096C20.7796 13.42 20.9396 13.34 21.0296 13.2L26.9296 4.54C26.9996 4.44 26.9996 4.32 26.9496 4.22C26.8996 4.12 26.7896 4.05 26.6796 4.05H26.6896Z" fill="#253B80"/>
<path d="M32.5594 0.580002H28.8694C28.6194 0.580002 28.3994 0.770002 28.3594 1.02L26.8694 10.63C26.8594 10.72 26.8794 10.81 26.9394 10.88C26.9994 10.95 27.0794 10.99 27.1694 10.99H29.0694C29.2494 10.99 29.3994 10.86 29.4194 10.68L29.8394 7.96C29.8794 7.71 30.0894 7.52 30.3494 7.52H31.5194C33.9494 7.52 35.3594 6.33 35.7194 3.96C35.8894 2.92 35.7194 2.11 35.2494 1.54C34.7294 0.910002 33.7994 0.580002 32.5594 0.580002ZM32.9894 4.09C32.7894 5.43 31.7794 5.43 30.7994 5.43H30.2394L30.6294 2.92C30.6494 2.77 30.7794 2.66 30.9294 2.66H31.1894C31.8594 2.66 32.4894 2.66 32.8094 3.05C32.9994 3.28 33.0594 3.62 32.9894 4.09ZM43.5994 4.05H41.8294C41.6794 4.05 41.5494 4.16 41.5294 4.31L41.4494 4.81L41.3294 4.63C40.9494 4.07 40.0894 3.88 39.2394 3.88C37.2894 3.88 35.6194 5.38 35.2894 7.49C35.1194 8.54 35.3594 9.55 35.9494 10.25C36.4894 10.89 37.2594 11.16 38.1794 11.16C39.7494 11.16 40.6294 10.13 40.6294 10.13L40.5494 10.63C40.5394 10.72 40.5594 10.81 40.6194 10.88C40.6794 10.95 40.7594 10.99 40.8494 10.99H42.4394C42.6894 10.99 42.9094 10.8 42.9494 10.55L43.9094 4.41C43.9194 4.32 43.8994 4.23 43.8394 4.16C43.7794 4.09 43.6994 4.05 43.6094 4.05H43.5994ZM41.1394 7.54C40.9694 8.57 40.1694 9.25 39.1494 9.25C38.6394 9.25 38.2294 9.08 37.9594 8.77C37.6994 8.46 37.5994 8.01 37.6794 7.51C37.8394 6.49 38.6494 5.78 39.6594 5.78C40.1594 5.78 40.5694 5.95 40.8394 6.27C41.1094 6.59 41.2194 7.04 41.1394 7.54ZM45.6794 0.840002L44.1594 10.63C44.1494 10.72 44.1694 10.81 44.2294 10.88C44.2894 10.95 44.3694 10.99 44.4594 10.99H45.9794C46.2294 10.99 46.4494 10.8 46.4894 10.55L47.9994 0.940002C48.0094 0.850002 47.9894 0.760002 47.9294 0.690002C47.8694 0.620002 47.7894 0.580002 47.6994 0.580002H45.9894C45.8394 0.580002 45.7094 0.690002 45.6894 0.840002H45.6794Z" fill="#179BD7"/>
</g>
<defs>
<clipPath id="clip0_1_1319">
<rect width="47.47" height="12.84" fill="white" transform="translate(0.530029 0.580002)"/>
</clipPath>
</defs>
</svg>
